<svg xmlns="http://www.w3.org/2000/svg" xmlns:xlink="http://www.w3.org/1999/xlink" width="150" zoomAndPan="magnify" viewBox="0 0 112.5 74.999997" height="100" preserveAspectRatio="xMidYMid meet" version="1.0"><defs><g/></defs><g fill="#6bd7dc" fill-opacity="1"><g transform="translate(27.332028, 46.587181)"><g><path d="M 7.09375 -26.265625 C 9.101562 -26.265625 10.582031 -25.671875 11.53125 -24.484375 C 12.488281 -23.296875 12.96875 -21.710938 12.96875 -19.734375 L 12.96875 -17.390625 L 10.21875 -17.390625 L 10.21875 -19.875 C 10.21875 -21.0625 9.972656 -21.984375 9.484375 -22.640625 C 9.003906 -23.296875 8.234375 -23.625 7.171875 -23.625 C 6.128906 -23.625 5.359375 -23.296875 4.859375 -22.640625 C 4.367188 -21.984375 4.125 -21.0625 4.125 -19.875 L 4.125 -6.125 C 4.125 -4.9375 4.367188 -4.015625 4.859375 -3.359375 C 5.359375 -2.703125 6.128906 -2.375 7.171875 -2.375 C 8.234375 -2.375 9.003906 -2.703125 9.484375 -3.359375 C 9.972656 -4.015625 10.21875 -4.9375 10.21875 -6.125 L 10.21875 -9.515625 L 12.96875 -9.515625 L 12.96875 -6.28125 C 12.96875 -4.300781 12.488281 -2.710938 11.53125 -1.515625 C 10.582031 -0.328125 9.101562 0.265625 7.09375 0.265625 C 5.113281 0.265625 3.644531 -0.328125 2.6875 -1.515625 C 1.738281 -2.710938 1.265625 -4.300781 1.265625 -6.28125 L 1.265625 -19.734375 C 1.265625 -20.722656 1.378906 -21.617188 1.609375 -22.421875 C 1.847656 -23.222656 2.207031 -23.910156 2.6875 -24.484375 C 3.175781 -25.054688 3.785156 -25.492188 4.515625 -25.796875 C 5.242188 -26.109375 6.101562 -26.265625 7.09375 -26.265625 Z M 7.09375 -26.265625 "/></g></g></g><g fill="#6bd7dc" fill-opacity="1"><g transform="translate(41.452914, 46.587181)"><g><path d="M 4.421875 -5.234375 L 3.421875 0 L 0.75 0 L 5.71875 -26.015625 L 9.921875 -26.015625 L 14.90625 0 L 12 0 L 11 -5.234375 Z M 4.796875 -7.734375 L 10.59375 -7.734375 L 7.65625 -22.734375 Z M 4.796875 -7.734375 "/></g></g></g><g fill="#6bd7dc" fill-opacity="1"><g transform="translate(57.134523, 46.587181)"><g><path d="M 7.28125 -26.015625 C 9.332031 -26.015625 10.8125 -25.503906 11.71875 -24.484375 C 12.625 -23.472656 13.078125 -22 13.078125 -20.0625 L 13.078125 -17.953125 C 13.078125 -16.515625 12.816406 -15.347656 12.296875 -14.453125 C 11.773438 -13.554688 10.957031 -12.9375 9.84375 -12.59375 C 11.03125 -12.25 11.867188 -11.613281 12.359375 -10.6875 C 12.859375 -9.757812 13.109375 -8.585938 13.109375 -7.171875 L 13.109375 -3.125 C 13.109375 -2.550781 13.132812 -2 13.1875 -1.46875 C 13.238281 -0.9375 13.390625 -0.445312 13.640625 0 L 10.703125 0 C 10.523438 -0.375 10.398438 -0.773438 10.328125 -1.203125 C 10.253906 -1.640625 10.21875 -2.289062 10.21875 -3.15625 L 10.21875 -7.25 C 10.21875 -8.707031 9.890625 -9.710938 9.234375 -10.265625 C 8.578125 -10.828125 7.640625 -11.109375 6.421875 -11.109375 L 4.390625 -11.109375 L 4.390625 0 L 1.484375 0 L 1.484375 -26.015625 Z M 6.546875 -13.75 C 7.703125 -13.75 8.601562 -13.988281 9.25 -14.46875 C 9.894531 -14.957031 10.21875 -15.90625 10.21875 -17.3125 L 10.21875 -19.796875 C 10.21875 -20.992188 9.988281 -21.890625 9.53125 -22.484375 C 9.070312 -23.078125 8.296875 -23.375 7.203125 -23.375 L 4.390625 -23.375 L 4.390625 -13.75 Z M 6.546875 -13.75 "/></g></g></g><g fill="#6bd7dc" fill-opacity="1"><g transform="translate(71.775647, 46.587181)"><g><path d="M 10.734375 -14.484375 L 10.734375 -11.890625 L 4.390625 -11.890625 L 4.390625 -2.640625 L 12.1875 -2.640625 L 12.1875 0 L 1.484375 0 L 1.484375 -26.015625 L 12.1875 -26.015625 L 12.1875 -23.375 L 4.390625 -23.375 L 4.390625 -14.484375 Z M 10.734375 -14.484375 "/></g></g></g></svg>