<svg xmlns="http://www.w3.org/2000/svg" xmlns:xlink="http://www.w3.org/1999/xlink" width="600" zoomAndPan="magnify" viewBox="0 0 450 449.999984" height="600" preserveAspectRatio="xMidYMid meet" version="1.0"><defs><filter x="0%" y="0%" width="100%" height="100%" id="9fdb91ac6f"><feColorMatrix values="0 0 0 0 1 0 0 0 0 1 0 0 0 0 1 0 0 0 1 0" color-interpolation-filters="sRGB"/></filter><g/><mask id="f2b88ea7c9"><g filter="url(#9fdb91ac6f)"><rect x="-45" width="540" fill="#000000" y="-44.999998" height="539.99998" fill-opacity="0.6471"/></g></mask><clipPath id="cce8bc16a1"><path d="M 1 1.039062 L 361 1.039062 L 361 264.960938 L 1 264.960938 Z M 1 1.039062 " clip-rule="nonzero"/></clipPath><clipPath id="df08445779"><rect x="0" width="362" y="0" height="268"/></clipPath></defs><g mask="url(#f2b88ea7c9)"><g transform="matrix(1, 0, 0, 1, 44, 92)"><g clip-path="url(#df08445779)"><g clip-path="url(#cce8bc16a1)"><path fill="#6dc4d5" d="M 1 1.039062 L 361.703125 1.039062 L 361.703125 264.710938 L 1 264.710938 Z M 1 1.039062 " fill-opacity="1" fill-rule="nonzero"/></g></g></g></g><g fill="#000000" fill-opacity="1"><g transform="translate(134.66471, 253.750259)"><g><path d="M 22.171875 -82.09375 C 28.441406 -82.09375 33.066406 -80.234375 36.046875 -76.515625 C 39.023438 -72.796875 40.515625 -67.84375 40.515625 -61.65625 L 40.515625 -54.34375 L 31.9375 -54.34375 L 31.9375 -62.125 C 31.9375 -65.832031 31.179688 -68.710938 29.671875 -70.765625 C 28.160156 -72.816406 25.738281 -73.84375 22.40625 -73.84375 C 19.15625 -73.84375 16.753906 -72.816406 15.203125 -70.765625 C 13.660156 -68.710938 12.890625 -65.832031 12.890625 -62.125 L 12.890625 -19.15625 C 12.890625 -15.4375 13.660156 -12.550781 15.203125 -10.5 C 16.753906 -8.457031 19.15625 -7.4375 22.40625 -7.4375 C 25.738281 -7.4375 28.160156 -8.457031 29.671875 -10.5 C 31.179688 -12.550781 31.9375 -15.4375 31.9375 -19.15625 L 31.9375 -29.71875 L 40.515625 -29.71875 L 40.515625 -19.625 C 40.515625 -13.425781 39.023438 -8.46875 36.046875 -4.75 C 33.066406 -1.039062 28.441406 0.8125 22.171875 0.8125 C 15.984375 0.8125 11.398438 -1.039062 8.421875 -4.75 C 5.441406 -8.46875 3.953125 -13.425781 3.953125 -19.625 L 3.953125 -61.65625 C 3.953125 -64.75 4.316406 -67.550781 5.046875 -70.0625 C 5.785156 -72.582031 6.910156 -74.734375 8.421875 -76.515625 C 9.929688 -78.296875 11.828125 -79.671875 14.109375 -80.640625 C 16.390625 -81.609375 19.078125 -82.09375 22.171875 -82.09375 Z M 22.171875 -82.09375 "/></g></g></g><g fill="#000000" fill-opacity="1"><g transform="translate(178.785803, 253.750259)"><g><path d="M 13.8125 -16.375 L 10.6875 0 L 2.328125 0 L 17.875 -81.28125 L 31 -81.28125 L 46.5625 0 L 37.5 0 L 34.375 -16.375 Z M 14.984375 -24.15625 L 33.09375 -24.15625 L 23.921875 -71.0625 Z M 14.984375 -24.15625 "/></g></g></g><g fill="#000000" fill-opacity="1"><g transform="translate(227.783426, 253.750259)"><g><path d="M 22.75 -81.28125 C 29.175781 -81.28125 33.800781 -79.691406 36.625 -76.515625 C 39.457031 -73.335938 40.875 -68.734375 40.875 -62.703125 L 40.875 -56.078125 C 40.875 -51.585938 40.0625 -47.945312 38.4375 -45.15625 C 36.8125 -42.375 34.253906 -40.441406 30.765625 -39.359375 C 34.484375 -38.273438 37.113281 -36.28125 38.65625 -33.375 C 40.207031 -30.476562 40.984375 -26.820312 40.984375 -22.40625 L 40.984375 -9.75 C 40.984375 -7.96875 41.0625 -6.242188 41.21875 -4.578125 C 41.375 -2.921875 41.835938 -1.394531 42.609375 0 L 33.4375 0 C 32.894531 -1.15625 32.507812 -2.410156 32.28125 -3.765625 C 32.050781 -5.128906 31.9375 -7.164062 31.9375 -9.875 L 31.9375 -22.640625 C 31.9375 -27.203125 30.910156 -30.351562 28.859375 -32.09375 C 26.804688 -33.84375 23.882812 -34.71875 20.09375 -34.71875 L 13.703125 -34.71875 L 13.703125 0 L 4.640625 0 L 4.640625 -81.28125 Z M 20.4375 -42.953125 C 24.070312 -42.953125 26.894531 -43.707031 28.90625 -45.21875 C 30.925781 -46.726562 31.9375 -49.691406 31.9375 -54.109375 L 31.9375 -61.890625 C 31.9375 -65.597656 31.21875 -68.378906 29.78125 -70.234375 C 28.351562 -72.097656 25.9375 -73.03125 22.53125 -73.03125 L 13.703125 -73.03125 L 13.703125 -42.953125 Z M 20.4375 -42.953125 "/></g></g></g><g fill="#000000" fill-opacity="1"><g transform="translate(273.530038, 253.750259)"><g><path d="M 33.5625 -45.28125 L 33.5625 -37.15625 L 13.703125 -37.15625 L 13.703125 -8.25 L 38.078125 -8.25 L 38.078125 0 L 4.640625 0 L 4.640625 -81.28125 L 38.078125 -81.28125 L 38.078125 -73.03125 L 13.703125 -73.03125 L 13.703125 -45.28125 Z M 33.5625 -45.28125 "/></g></g></g></svg>