<svg xmlns="http://www.w3.org/2000/svg" xmlns:xlink="http://www.w3.org/1999/xlink" width="600" zoomAndPan="magnify" viewBox="0 0 450 449.999984" height="600" preserveAspectRatio="xMidYMid meet" version="1.0"><defs><filter x="0%" y="0%" width="100%" height="100%" id="f0d4b901e2"><feColorMatrix values="0 0 0 0 1 0 0 0 0 1 0 0 0 0 1 0 0 0 1 0" color-interpolation-filters="sRGB"/></filter><g/><mask id="300b95e58b"><g filter="url(#f0d4b901e2)"><rect x="-45" width="540" fill="#000000" y="-44.999998" height="539.99998" fill-opacity="0.6471"/></g></mask><clipPath id="a2a57bf276"><path d="M 1 1.039062 L 361 1.039062 L 361 264.960938 L 1 264.960938 Z M 1 1.039062 " clip-rule="nonzero"/></clipPath><clipPath id="7766919e3a"><rect x="0" width="362" y="0" height="268"/></clipPath></defs><g mask="url(#300b95e58b)"><g transform="matrix(1, 0, 0, 1, 44, 92)"><g clip-path="url(#7766919e3a)"><g clip-path="url(#a2a57bf276)"><path fill="#6dc4d5" d="M 1 1.039062 L 361.703125 1.039062 L 361.703125 264.710938 L 1 264.710938 Z M 1 1.039062 " fill-opacity="1" fill-rule="nonzero"/></g></g></g></g><g fill="#000000" fill-opacity="1"><g transform="translate(133.736981, 253.750055)"><g><path d="M 23.6875 -81.28125 C 30.03125 -81.28125 34.691406 -79.476562 37.671875 -75.875 C 40.648438 -72.28125 42.140625 -67.347656 42.140625 -61.078125 L 42.140625 -20.09375 C 42.140625 -13.820312 40.648438 -8.90625 37.671875 -5.34375 C 34.691406 -1.78125 30.03125 0 23.6875 0 L 4.640625 0 L 4.640625 -81.28125 Z M 23.5625 -8.25 C 26.820312 -8.25 29.242188 -9.234375 30.828125 -11.203125 C 32.410156 -13.179688 33.203125 -16.023438 33.203125 -19.734375 L 33.203125 -61.53125 C 33.203125 -65.25 32.410156 -68.09375 30.828125 -70.0625 C 29.242188 -72.039062 26.785156 -73.03125 23.453125 -73.03125 L 13.703125 -73.03125 L 13.703125 -8.25 Z M 23.5625 -8.25 "/></g></g></g><g fill="#000000" fill-opacity="1"><g transform="translate(179.715812, 253.750055)"><g><path d="M 13.8125 -16.375 L 10.6875 0 L 2.328125 0 L 17.875 -81.28125 L 31 -81.28125 L 46.5625 0 L 37.5 0 L 34.375 -16.375 Z M 14.984375 -24.15625 L 33.09375 -24.15625 L 23.921875 -71.0625 Z M 14.984375 -24.15625 "/></g></g></g><g fill="#000000" fill-opacity="1"><g transform="translate(228.713435, 253.750055)"><g><path d="M 22.75 -81.28125 C 29.175781 -81.28125 33.800781 -79.691406 36.625 -76.515625 C 39.457031 -73.335938 40.875 -68.734375 40.875 -62.703125 L 40.875 -56.078125 C 40.875 -51.585938 40.0625 -47.945312 38.4375 -45.15625 C 36.8125 -42.375 34.253906 -40.441406 30.765625 -39.359375 C 34.484375 -38.273438 37.113281 -36.28125 38.65625 -33.375 C 40.207031 -30.476562 40.984375 -26.820312 40.984375 -22.40625 L 40.984375 -9.75 C 40.984375 -7.96875 41.0625 -6.242188 41.21875 -4.578125 C 41.375 -2.921875 41.835938 -1.394531 42.609375 0 L 33.4375 0 C 32.894531 -1.15625 32.507812 -2.410156 32.28125 -3.765625 C 32.050781 -5.128906 31.9375 -7.164062 31.9375 -9.875 L 31.9375 -22.640625 C 31.9375 -27.203125 30.910156 -30.351562 28.859375 -32.09375 C 26.804688 -33.84375 23.882812 -34.71875 20.09375 -34.71875 L 13.703125 -34.71875 L 13.703125 0 L 4.640625 0 L 4.640625 -81.28125 Z M 20.4375 -42.953125 C 24.070312 -42.953125 26.894531 -43.707031 28.90625 -45.21875 C 30.925781 -46.726562 31.9375 -49.691406 31.9375 -54.109375 L 31.9375 -61.890625 C 31.9375 -65.597656 31.21875 -68.378906 29.78125 -70.234375 C 28.351562 -72.097656 25.9375 -73.03125 22.53125 -73.03125 L 13.703125 -73.03125 L 13.703125 -42.953125 Z M 20.4375 -42.953125 "/></g></g></g><g fill="#000000" fill-opacity="1"><g transform="translate(274.46004, 253.750055)"><g><path d="M 33.5625 -45.28125 L 33.5625 -37.15625 L 13.703125 -37.15625 L 13.703125 -8.25 L 38.078125 -8.25 L 38.078125 0 L 4.640625 0 L 4.640625 -81.28125 L 38.078125 -81.28125 L 38.078125 -73.03125 L 13.703125 -73.03125 L 13.703125 -45.28125 Z M 33.5625 -45.28125 "/></g></g></g></svg>