<svg xmlns="http://www.w3.org/2000/svg" xmlns:xlink="http://www.w3.org/1999/xlink" width="150" zoomAndPan="magnify" viewBox="0 0 112.5 74.999997" height="100" preserveAspectRatio="xMidYMid meet" version="1.0"><defs><g/></defs><g fill="#f34cc4" fill-opacity="1"><g transform="translate(27.035063, 46.192179)"><g><path d="M 7.578125 -26.015625 C 9.609375 -26.015625 11.101562 -25.4375 12.0625 -24.28125 C 13.019531 -23.132812 13.5 -21.554688 13.5 -19.546875 L 13.5 -6.4375 C 13.5 -4.425781 13.019531 -2.847656 12.0625 -1.703125 C 11.101562 -0.566406 9.609375 0 7.578125 0 L 1.484375 0 L 1.484375 -26.015625 Z M 7.546875 -2.640625 C 8.585938 -2.640625 9.359375 -2.953125 9.859375 -3.578125 C 10.367188 -4.210938 10.625 -5.125 10.625 -6.3125 L 10.625 -19.703125 C 10.625 -20.890625 10.367188 -21.796875 9.859375 -22.421875 C 9.359375 -23.054688 8.578125 -23.375 7.515625 -23.375 L 4.390625 -23.375 L 4.390625 -2.640625 Z M 7.546875 -2.640625 "/></g></g></g><g fill="#f34cc4" fill-opacity="1"><g transform="translate(41.750942, 46.192179)"><g><path d="M 4.421875 -5.234375 L 3.421875 0 L 0.75 0 L 5.71875 -26.015625 L 9.921875 -26.015625 L 14.90625 0 L 12 0 L 11 -5.234375 Z M 4.796875 -7.734375 L 10.59375 -7.734375 L 7.65625 -22.75 Z M 4.796875 -7.734375 "/></g></g></g><g fill="#f34cc4" fill-opacity="1"><g transform="translate(57.433007, 46.192179)"><g><path d="M 7.28125 -26.015625 C 9.34375 -26.015625 10.820312 -25.503906 11.71875 -24.484375 C 12.625 -23.472656 13.078125 -22.003906 13.078125 -20.078125 L 13.078125 -17.953125 C 13.078125 -16.515625 12.816406 -15.347656 12.296875 -14.453125 C 11.773438 -13.566406 10.957031 -12.945312 9.84375 -12.59375 C 11.039062 -12.25 11.882812 -11.613281 12.375 -10.6875 C 12.875 -9.757812 13.125 -8.585938 13.125 -7.171875 L 13.125 -3.125 C 13.125 -2.550781 13.144531 -2 13.1875 -1.46875 C 13.238281 -0.9375 13.390625 -0.445312 13.640625 0 L 10.703125 0 C 10.523438 -0.375 10.398438 -0.773438 10.328125 -1.203125 C 10.253906 -1.640625 10.21875 -2.289062 10.21875 -3.15625 L 10.21875 -7.25 C 10.21875 -8.707031 9.890625 -9.710938 9.234375 -10.265625 C 8.578125 -10.828125 7.644531 -11.109375 6.4375 -11.109375 L 4.390625 -11.109375 L 4.390625 0 L 1.484375 0 L 1.484375 -26.015625 Z M 6.546875 -13.75 C 7.710938 -13.75 8.613281 -13.988281 9.25 -14.46875 C 9.894531 -14.957031 10.21875 -15.910156 10.21875 -17.328125 L 10.21875 -19.8125 C 10.21875 -21 9.988281 -21.890625 9.53125 -22.484375 C 9.070312 -23.078125 8.300781 -23.375 7.21875 -23.375 L 4.390625 -23.375 L 4.390625 -13.75 Z M 6.546875 -13.75 "/></g></g></g><g fill="#f34cc4" fill-opacity="1"><g transform="translate(72.07456, 46.192179)"><g><path d="M 10.75 -14.5 L 10.75 -11.890625 L 4.390625 -11.890625 L 4.390625 -2.640625 L 12.1875 -2.640625 L 12.1875 0 L 1.484375 0 L 1.484375 -26.015625 L 12.1875 -26.015625 L 12.1875 -23.375 L 4.390625 -23.375 L 4.390625 -14.5 Z M 10.75 -14.5 "/></g></g></g></svg>