<svg xmlns="http://www.w3.org/2000/svg" xmlns:xlink="http://www.w3.org/1999/xlink" width="600" zoomAndPan="magnify" viewBox="0 0 450 30.000001" height="40" preserveAspectRatio="xMidYMid meet" version="1.0"><defs><g/></defs><path stroke-linecap="butt" transform="matrix(0.232258, 0, 0, 0.232258, 131.172795, 5.654854)" fill="none" stroke-linejoin="miter" d="M 75.444175 15.075456 L 82.962079 15.075456 L 82.962079 56.14642 L 95.374188 56.14642 L 95.374188 63.008399 L 75.444175 63.008399 Z M 109.047691 35.274566 L 119.407934 35.274566 L 119.407934 42.119727 L 109.047691 42.119727 L 109.047691 56.14642 L 122.082088 56.14642 L 122.082088 63.008399 L 101.529787 63.008399 L 101.529787 15.075456 L 122.082088 15.075456 L 122.082088 21.903798 L 109.047691 21.903798 Z M 153.970109 63.008399 L 146.368112 63.008399 L 145.089901 54.313195 L 135.839683 54.313195 L 134.527834 63.008399 L 127.6154 63.008399 L 135.28467 15.075456 L 146.300838 15.075456 Z M 136.798342 47.804406 L 144.047149 47.804406 L 140.414336 23.568837 Z M 160.344349 15.075456 L 172.26872 15.075456 C 176.0529 15.075456 178.861602 16.084571 180.711646 18.085981 C 182.561689 20.087392 183.486711 23.030643 183.486711 26.915734 L 183.486711 51.151303 C 183.486711 55.036394 182.561689 57.979645 180.711646 59.997874 C 178.861602 61.999285 176.0529 63.008399 172.26872 63.008399 L 160.344349 63.008399 Z M 167.862253 21.903798 L 167.862253 56.14642 L 172.117353 56.14642 C 173.311472 56.14642 174.236494 55.810048 174.926055 55.120487 C 175.615617 54.447744 175.951988 53.236806 175.951988 51.504493 L 175.951988 26.579362 C 175.951988 24.83023 175.615617 23.619293 174.926055 22.94655 C 174.236494 22.256988 173.311472 21.903798 172.117353 21.903798 Z M 198.673885 35.274566 L 209.034129 35.274566 L 209.034129 42.119727 L 198.673885 42.119727 L 198.673885 56.14642 L 211.708282 56.14642 L 211.708282 63.008399 L 191.155982 63.008399 L 191.155982 15.075456 L 211.708282 15.075456 L 211.708282 21.903798 L 198.673885 21.903798 Z M 234.968374 63.008399 C 234.884281 62.672028 234.800188 62.386112 234.699276 62.117015 C 234.598365 61.831099 234.531091 61.494727 234.463816 61.074263 C 234.396542 60.670617 234.346086 60.149241 234.329268 59.510135 C 234.29563 58.871029 234.29563 58.080556 234.29563 57.121897 L 234.29563 49.570357 C 234.29563 47.333486 233.908803 45.769358 233.11833 44.861155 C 232.344676 43.952952 231.100101 43.49885 229.367788 43.49885 L 226.74409 43.49885 L 226.74409 63.008399 L 219.226186 63.008399 L 219.226186 15.075456 L 230.595544 15.075456 C 234.514272 15.075456 237.356611 15.983659 239.105743 17.816884 C 240.871694 19.63329 241.74626 22.391537 241.74626 26.091624 L 241.74626 29.875803 C 241.74626 34.786828 240.114858 38.032813 236.835236 39.580122 C 238.752553 40.353777 240.064402 41.631988 240.753964 43.397939 C 241.477163 45.147071 241.830353 47.266212 241.830353 49.772179 L 241.830353 57.189172 C 241.830353 58.366472 241.880808 59.392405 241.964901 60.28379 C 242.048994 61.175174 242.284454 62.083377 242.654463 63.008399 Z M 226.74409 21.903798 L 226.74409 36.636871 L 229.704159 36.636871 C 231.133738 36.636871 232.226946 36.283681 233.017419 35.543664 C 233.82471 34.820465 234.228356 33.491797 234.228356 31.57448 L 234.228356 26.84846 C 234.228356 25.116146 233.908803 23.854753 233.286516 23.081098 C 232.681047 22.307444 231.70557 21.903798 230.376902 21.903798 Z M 248.658695 26.579362 C 248.658695 22.694271 249.583717 19.717383 251.43376 17.648698 C 253.283803 15.563195 256.058868 14.520443 259.758955 14.520443 C 263.459042 14.520443 266.234107 15.563195 268.084151 17.648698 C 269.934194 19.717383 270.859216 22.694271 270.859216 26.579362 L 270.859216 28.076216 L 263.744958 28.076216 L 263.744958 26.091624 C 263.744958 24.35931 263.408586 23.148373 262.735843 22.441993 C 262.079919 21.735612 261.154897 21.382422 259.960778 21.382422 C 258.783478 21.382422 257.858456 21.735612 257.185713 22.441993 C 256.529789 23.148373 256.193417 24.35931 256.193417 26.091624 C 256.193417 27.739844 256.563426 29.186242 257.286625 30.447635 C 258.026642 31.709028 258.934845 32.886329 260.028053 34.013173 C 261.138079 35.123199 262.29856 36.250044 263.559954 37.36007 C 264.821347 38.470096 265.981829 39.697852 267.075036 41.009701 C 268.185062 42.338369 269.093265 43.85204 269.816464 45.550717 C 270.556481 47.232574 270.92649 49.217166 270.92649 51.504493 C 270.92649 55.372765 269.98465 58.366472 268.084151 60.435157 C 266.183652 62.52066 263.391768 63.546594 259.691681 63.546594 C 255.991594 63.546594 253.19971 62.52066 251.299211 60.435157 C 249.415531 58.366472 248.456872 55.372765 248.456872 51.504493 L 248.456872 48.561242 L 255.587948 48.561242 L 255.587948 51.992232 C 255.587948 53.707726 255.92432 54.918664 256.6307 55.608225 C 257.353899 56.297787 258.295739 56.634159 259.489858 56.634159 C 260.667158 56.634159 261.608999 56.297787 262.315379 55.608225 C 263.038578 54.918664 263.391768 53.707726 263.391768 51.992232 C 263.391768 50.327192 263.021759 48.880795 262.281742 47.63622 C 261.558543 46.374827 260.65034 45.197527 259.540314 44.070682 C 258.447106 42.943837 257.269806 41.833811 256.008413 40.723785 C 254.763838 39.596941 253.603356 38.369185 252.510149 37.057336 C 251.416941 35.728668 250.49192 34.231815 249.768721 32.549957 C 249.028704 30.851281 248.658695 28.866689 248.658695 26.579362 Z M 285.642745 63.008399 L 278.108022 63.008399 L 278.108022 15.075456 L 285.642745 15.075456 L 285.642745 35.610938 L 294.186581 35.610938 L 294.186581 15.075456 L 301.872671 15.075456 L 301.872671 63.008399 L 294.186581 63.008399 L 294.186581 42.456099 L 285.642745 42.456099 Z M 310.231503 15.075456 L 317.749407 15.075456 L 317.749407 63.008399 L 310.231503 63.008399 Z M 337.191682 15.075456 C 340.975861 15.075456 343.801382 16.084571 345.651426 18.085981 C 347.501469 20.087392 348.426491 23.030643 348.426491 26.915734 L 348.426491 33.138607 C 348.426491 37.023698 347.501469 39.966949 345.651426 41.985178 C 343.801382 43.986589 340.975861 44.995704 337.191682 44.995704 L 333.626143 44.995704 L 333.626143 63.008399 L 326.10824 63.008399 L 326.10824 15.075456 Z M 333.626143 21.903798 L 333.626143 38.150543 L 337.191682 38.150543 C 338.385801 38.150543 339.294004 37.83099 339.93311 37.191884 C 340.589034 36.53596 340.908587 35.358659 340.908587 33.626346 L 340.908587 26.444814 C 340.908587 24.695682 340.589034 23.518381 339.93311 22.879276 C 339.294004 22.24017 338.385801 21.903798 337.191682 21.903798 Z M 333.626143 21.903798 " stroke="#000000" stroke-width="1.925797" stroke-opacity="1" stroke-miterlimit="4"/><g fill="#000000" fill-opacity="1"><g transform="translate(215.313768, 18.20963)"><g><path d="M 0.640625 -11.140625 L 3.40625 -11.140625 C 4.289062 -11.140625 4.945312 -10.90625 5.375 -10.4375 C 5.800781 -9.976562 6.015625 -9.296875 6.015625 -8.390625 L 6.015625 -2.75 C 6.015625 -1.851562 5.800781 -1.171875 5.375 -0.703125 C 4.945312 -0.234375 4.289062 0 3.40625 0 L 0.640625 0 Z M 2.390625 -9.546875 L 2.390625 -1.59375 L 3.375 -1.59375 C 3.65625 -1.59375 3.875 -1.671875 4.03125 -1.828125 C 4.1875 -1.984375 4.265625 -2.265625 4.265625 -2.671875 L 4.265625 -8.46875 C 4.265625 -8.875 4.1875 -9.15625 4.03125 -9.3125 C 3.875 -9.46875 3.65625 -9.546875 3.375 -9.546875 Z M 2.390625 -9.546875 "/></g></g></g><g fill="#000000" fill-opacity="1"><g transform="translate(222.651542, 18.20963)"><g><path d="M 0.640625 -11.140625 L 2.390625 -11.140625 L 2.390625 0 L 0.640625 0 Z M 0.640625 -11.140625 "/></g></g></g><g fill="#000000" fill-opacity="1"><g transform="translate(226.519419, 18.20963)"><g><path d="M 4.34375 -3.234375 L 5.546875 -11.140625 L 7.984375 -11.140625 L 7.984375 0 L 6.328125 0 L 6.328125 -8 L 5.109375 0 L 3.453125 0 L 2.15625 -7.875 L 2.15625 0 L 0.625 0 L 0.625 -11.140625 L 3.0625 -11.140625 Z M 4.34375 -3.234375 "/></g></g></g><g fill="#000000" fill-opacity="1"><g transform="translate(235.974151, 18.20963)"><g><path d="M 2.390625 -6.453125 L 4.796875 -6.453125 L 4.796875 -4.859375 L 2.390625 -4.859375 L 2.390625 -1.59375 L 5.40625 -1.59375 L 5.40625 0 L 0.640625 0 L 0.640625 -11.140625 L 5.40625 -11.140625 L 5.40625 -9.546875 L 2.390625 -9.546875 Z M 2.390625 -6.453125 "/></g></g></g><g fill="#000000" fill-opacity="1"><g transform="translate(242.675245, 18.20963)"><g><path d="M 2.203125 -8.078125 L 2.203125 0 L 0.625 0 L 0.625 -11.140625 L 2.8125 -11.140625 L 4.625 -4.46875 L 4.625 -11.140625 L 6.171875 -11.140625 L 6.171875 0 L 4.375 0 Z M 2.203125 -8.078125 "/></g></g></g><g fill="#000000" fill-opacity="1"><g transform="translate(250.31544, 18.20963)"><g><path d="M 0.40625 -8.46875 C 0.40625 -9.375 0.617188 -10.066406 1.046875 -10.546875 C 1.484375 -11.023438 2.132812 -11.265625 3 -11.265625 C 3.851562 -11.265625 4.492188 -11.023438 4.921875 -10.546875 C 5.359375 -10.066406 5.578125 -9.375 5.578125 -8.46875 L 5.578125 -8.125 L 3.921875 -8.125 L 3.921875 -8.578125 C 3.921875 -8.984375 3.84375 -9.269531 3.6875 -9.4375 C 3.53125 -9.601562 3.316406 -9.6875 3.046875 -9.6875 C 2.765625 -9.6875 2.546875 -9.601562 2.390625 -9.4375 C 2.242188 -9.269531 2.171875 -8.984375 2.171875 -8.578125 C 2.171875 -8.203125 2.253906 -7.867188 2.421875 -7.578125 C 2.585938 -7.285156 2.796875 -7.007812 3.046875 -6.75 C 3.304688 -6.488281 3.582031 -6.226562 3.875 -5.96875 C 4.164062 -5.707031 4.4375 -5.421875 4.6875 -5.109375 C 4.945312 -4.804688 5.160156 -4.457031 5.328125 -4.0625 C 5.503906 -3.664062 5.59375 -3.203125 5.59375 -2.671875 C 5.59375 -1.773438 5.367188 -1.082031 4.921875 -0.59375 C 4.484375 -0.113281 3.835938 0.125 2.984375 0.125 C 2.117188 0.125 1.460938 -0.113281 1.015625 -0.59375 C 0.578125 -1.082031 0.359375 -1.773438 0.359375 -2.671875 L 0.359375 -3.359375 L 2.015625 -3.359375 L 2.015625 -2.5625 C 2.015625 -2.15625 2.097656 -1.875 2.265625 -1.71875 C 2.429688 -1.5625 2.648438 -1.484375 2.921875 -1.484375 C 3.203125 -1.484375 3.425781 -1.5625 3.59375 -1.71875 C 3.757812 -1.875 3.84375 -2.15625 3.84375 -2.5625 C 3.84375 -2.945312 3.753906 -3.285156 3.578125 -3.578125 C 3.410156 -3.867188 3.195312 -4.144531 2.9375 -4.40625 C 2.6875 -4.664062 2.414062 -4.925781 2.125 -5.1875 C 1.832031 -5.445312 1.554688 -5.726562 1.296875 -6.03125 C 1.046875 -6.34375 0.832031 -6.691406 0.65625 -7.078125 C 0.488281 -7.472656 0.40625 -7.9375 0.40625 -8.46875 Z M 0.40625 -8.46875 "/></g></g></g><g fill="#000000" fill-opacity="1"><g transform="translate(257.112037, 18.20963)"><g><path d="M 0.640625 -11.140625 L 2.390625 -11.140625 L 2.390625 0 L 0.640625 0 Z M 0.640625 -11.140625 "/></g></g></g><g fill="#000000" fill-opacity="1"><g transform="translate(260.979912, 18.20963)"><g><path d="M 2.25 -2.5625 C 2.25 -2.15625 2.328125 -1.867188 2.484375 -1.703125 C 2.648438 -1.546875 2.875 -1.46875 3.15625 -1.46875 C 3.425781 -1.46875 3.644531 -1.546875 3.8125 -1.703125 C 3.976562 -1.867188 4.0625 -2.15625 4.0625 -2.5625 L 4.0625 -8.578125 C 4.0625 -8.984375 3.976562 -9.269531 3.8125 -9.4375 C 3.644531 -9.601562 3.425781 -9.6875 3.15625 -9.6875 C 2.875 -9.6875 2.648438 -9.601562 2.484375 -9.4375 C 2.328125 -9.269531 2.25 -8.984375 2.25 -8.578125 Z M 0.5 -8.46875 C 0.5 -9.375 0.722656 -10.066406 1.171875 -10.546875 C 1.628906 -11.023438 2.289062 -11.265625 3.15625 -11.265625 C 4.007812 -11.265625 4.664062 -11.023438 5.125 -10.546875 C 5.582031 -10.066406 5.8125 -9.375 5.8125 -8.46875 L 5.8125 -2.671875 C 5.8125 -1.773438 5.582031 -1.082031 5.125 -0.59375 C 4.664062 -0.113281 4.007812 0.125 3.15625 0.125 C 2.289062 0.125 1.628906 -0.113281 1.171875 -0.59375 C 0.722656 -1.082031 0.5 -1.773438 0.5 -2.671875 Z M 0.5 -8.46875 "/></g></g></g><g fill="#000000" fill-opacity="1"><g transform="translate(268.126683, 18.20963)"><g><path d="M 2.203125 -8.078125 L 2.203125 0 L 0.625 0 L 0.625 -11.140625 L 2.8125 -11.140625 L 4.625 -4.46875 L 4.625 -11.140625 L 6.171875 -11.140625 L 6.171875 0 L 4.375 0 Z M 2.203125 -8.078125 "/></g></g></g><g fill="#000000" fill-opacity="1"><g transform="translate(275.766881, 18.20963)"><g><path d="M 0.40625 -8.46875 C 0.40625 -9.375 0.617188 -10.066406 1.046875 -10.546875 C 1.484375 -11.023438 2.132812 -11.265625 3 -11.265625 C 3.851562 -11.265625 4.492188 -11.023438 4.921875 -10.546875 C 5.359375 -10.066406 5.578125 -9.375 5.578125 -8.46875 L 5.578125 -8.125 L 3.921875 -8.125 L 3.921875 -8.578125 C 3.921875 -8.984375 3.84375 -9.269531 3.6875 -9.4375 C 3.53125 -9.601562 3.316406 -9.6875 3.046875 -9.6875 C 2.765625 -9.6875 2.546875 -9.601562 2.390625 -9.4375 C 2.242188 -9.269531 2.171875 -8.984375 2.171875 -8.578125 C 2.171875 -8.203125 2.253906 -7.867188 2.421875 -7.578125 C 2.585938 -7.285156 2.796875 -7.007812 3.046875 -6.75 C 3.304688 -6.488281 3.582031 -6.226562 3.875 -5.96875 C 4.164062 -5.707031 4.4375 -5.421875 4.6875 -5.109375 C 4.945312 -4.804688 5.160156 -4.457031 5.328125 -4.0625 C 5.503906 -3.664062 5.59375 -3.203125 5.59375 -2.671875 C 5.59375 -1.773438 5.367188 -1.082031 4.921875 -0.59375 C 4.484375 -0.113281 3.835938 0.125 2.984375 0.125 C 2.117188 0.125 1.460938 -0.113281 1.015625 -0.59375 C 0.578125 -1.082031 0.359375 -1.773438 0.359375 -2.671875 L 0.359375 -3.359375 L 2.015625 -3.359375 L 2.015625 -2.5625 C 2.015625 -2.15625 2.097656 -1.875 2.265625 -1.71875 C 2.429688 -1.5625 2.648438 -1.484375 2.921875 -1.484375 C 3.203125 -1.484375 3.425781 -1.5625 3.59375 -1.71875 C 3.757812 -1.875 3.84375 -2.15625 3.84375 -2.5625 C 3.84375 -2.945312 3.753906 -3.285156 3.578125 -3.578125 C 3.410156 -3.867188 3.195312 -4.144531 2.9375 -4.40625 C 2.6875 -4.664062 2.414062 -4.925781 2.125 -5.1875 C 1.832031 -5.445312 1.554688 -5.726562 1.296875 -6.03125 C 1.046875 -6.34375 0.832031 -6.691406 0.65625 -7.078125 C 0.488281 -7.472656 0.40625 -7.9375 0.40625 -8.46875 Z M 0.40625 -8.46875 "/></g></g></g></svg>