<svg xmlns="http://www.w3.org/2000/svg" xmlns:xlink="http://www.w3.org/1999/xlink" width="600" zoomAndPan="magnify" viewBox="0 0 450 93.749996" height="125" preserveAspectRatio="xMidYMid meet" version="1.0"><defs><g/><clipPath id="f710d4761b"><path d="M 9.949219 8.792969 L 440.050781 8.792969 L 440.050781 83.59375 L 9.949219 83.59375 Z M 9.949219 8.792969 " clip-rule="nonzero"/></clipPath></defs><g clip-path="url(#f710d4761b)"><path stroke-linecap="butt" transform="matrix(0.748005, 0, 0, 0.748005, 9.948491, 8.794569)" fill="none" stroke-linejoin="miter" d="M 0.000973534 -0.00213993 L 574.999022 -0.00213993 L 574.999022 99.998202 L 0.000973534 99.998202 L 0.000973534 -0.00213993 " stroke="#000000" stroke-width="2" stroke-opacity="1" stroke-miterlimit="4"/></g><path stroke-linecap="butt" transform="matrix(0.748005, 0, 0, 0.748005, 104.737649, 18.211891)" fill="none" stroke-linejoin="miter" d="M 0.549178 15.075282 L 23.819403 15.075282 L 23.819403 21.911172 L 15.949513 21.911172 L 15.949513 62.99962 L 8.42429 62.99962 L 8.42429 21.911172 L 0.549178 21.911172 Z M 37.51207 62.99962 L 29.99207 62.99962 L 29.99207 15.075282 L 37.51207 15.075282 L 37.51207 35.619506 L 46.071293 35.619506 L 46.071293 15.075282 L 53.747961 15.075282 L 53.747961 62.99962 L 46.071293 62.99962 L 46.071293 42.455396 L 37.51207 42.455396 Z M 69.62874 35.269617 L 79.973963 35.269617 L 79.973963 42.121174 L 69.62874 42.121174 L 69.62874 56.148064 L 82.647741 56.148064 L 82.647741 62.99962 L 62.103517 62.99962 L 62.103517 15.075282 L 82.647741 15.075282 L 82.647741 21.911172 L 69.62874 21.911172 Z M 69.62874 35.269617 " stroke="#000000" stroke-width="1.925797" stroke-opacity="1" stroke-miterlimit="4"/><g fill="#000000" fill-opacity="1"><g transform="translate(170.424299, 58.645533)"><g><path d="M 14 -10.40625 L 17.84375 -35.890625 L 25.6875 -35.890625 L 25.6875 0 L 20.359375 0 L 20.359375 -25.734375 L 16.453125 0 L 11.125 0 L 6.921875 -25.375 L 6.921875 0 L 2 0 L 2 -35.890625 L 9.84375 -35.890625 Z M 14 -10.40625 "/></g></g></g><g fill="#000000" fill-opacity="1"><g transform="translate(200.874003, 58.645533)"><g><path d="M 2.046875 -35.890625 L 7.6875 -35.890625 L 7.6875 0 L 2.046875 0 Z M 2.046875 -35.890625 "/></g></g></g><g fill="#000000" fill-opacity="1"><g transform="translate(213.330801, 58.645533)"><g><path d="M 7.078125 -25.984375 L 7.078125 0 L 2 0 L 2 -35.890625 L 9.078125 -35.890625 L 14.859375 -14.40625 L 14.859375 -35.890625 L 19.890625 -35.890625 L 19.890625 0 L 14.09375 0 Z M 7.078125 -25.984375 "/></g></g></g><g fill="#000000" fill-opacity="1"><g transform="translate(237.936652, 58.645533)"><g><path d="M 0.40625 -35.890625 L 17.84375 -35.890625 L 17.84375 -30.765625 L 11.9375 -30.765625 L 11.9375 0 L 6.3125 0 L 6.3125 -30.765625 L 0.40625 -30.765625 Z M 0.40625 -35.890625 "/></g></g></g><g fill="#000000" fill-opacity="1"><g transform="translate(258.902915, 58.645533)"><g><path d="M 20.296875 0 L 14.609375 0 L 13.640625 -6.515625 L 6.71875 -6.515625 L 5.734375 0 L 0.5625 0 L 6.3125 -35.890625 L 14.5625 -35.890625 Z M 7.4375 -11.375 L 12.875 -11.375 L 10.15625 -29.53125 Z M 7.4375 -11.375 "/></g></g></g><g fill="#000000" fill-opacity="1"><g transform="translate(282.483529, 58.645533)"><g><path d="M 10.5625 -35.890625 C 13.5 -35.890625 15.625 -35.203125 16.9375 -33.828125 C 18.257812 -32.460938 18.921875 -30.394531 18.921875 -27.625 L 18.921875 -26.34375 C 18.921875 -24.5 18.628906 -22.976562 18.046875 -21.78125 C 17.460938 -20.59375 16.539062 -19.707031 15.28125 -19.125 C 16.8125 -18.539062 17.894531 -17.585938 18.53125 -16.265625 C 19.164062 -14.953125 19.484375 -13.34375 19.484375 -11.4375 L 19.484375 -8.515625 C 19.484375 -5.742188 18.765625 -3.628906 17.328125 -2.171875 C 15.890625 -0.722656 13.753906 0 10.921875 0 L 2.046875 0 L 2.046875 -35.890625 Z M 7.6875 -16.15625 L 7.6875 -5.125 L 10.921875 -5.125 C 11.878906 -5.125 12.601562 -5.378906 13.09375 -5.890625 C 13.59375 -6.410156 13.84375 -7.332031 13.84375 -8.65625 L 13.84375 -11.796875 C 13.84375 -13.460938 13.5625 -14.601562 13 -15.21875 C 12.4375 -15.84375 11.503906 -16.15625 10.203125 -16.15625 Z M 7.6875 -30.765625 L 7.6875 -21.28125 L 9.890625 -21.28125 C 10.953125 -21.28125 11.78125 -21.550781 12.375 -22.09375 C 12.976562 -22.644531 13.28125 -23.632812 13.28125 -25.0625 L 13.28125 -27.0625 C 13.28125 -28.363281 13.046875 -29.304688 12.578125 -29.890625 C 12.117188 -30.472656 11.394531 -30.765625 10.40625 -30.765625 Z M 7.6875 -30.765625 "/></g></g></g><g fill="#000000" fill-opacity="1"><g transform="translate(306.012882, 58.645533)"><g><path d="M 2.046875 -35.890625 L 7.6875 -35.890625 L 7.6875 -5.125 L 16.96875 -5.125 L 16.96875 0 L 2.046875 0 Z M 2.046875 -35.890625 "/></g></g></g><g fill="#000000" fill-opacity="1"><g transform="translate(326.107694, 58.645533)"><g><path d="M 7.6875 -20.765625 L 15.4375 -20.765625 L 15.4375 -15.640625 L 7.6875 -15.640625 L 7.6875 -5.125 L 17.4375 -5.125 L 17.4375 0 L 2.046875 0 L 2.046875 -35.890625 L 17.4375 -35.890625 L 17.4375 -30.765625 L 7.6875 -30.765625 Z M 7.6875 -20.765625 "/></g></g></g></svg>