<svg xmlns="http://www.w3.org/2000/svg" xmlns:xlink="http://www.w3.org/1999/xlink" width="600" zoomAndPan="magnify" viewBox="0 0 450 30.000001" height="40" preserveAspectRatio="xMidYMid meet" version="1.0"><defs><g/><clipPath id="aa087dba3e"><path d="M 7.257812 0 L 442.742188 0 L 442.742188 29.03125 L 7.257812 29.03125 Z M 7.257812 0 " clip-rule="nonzero"/></clipPath></defs><g clip-path="url(#aa087dba3e)"><path fill="#ffffff" d="M 7.257812 0 L 442.742188 0 L 442.742188 29.03125 L 7.257812 29.03125 Z M 7.257812 0 " fill-opacity="1" fill-rule="nonzero"/><path fill="#f8f8f8" d="M 7.257812 0 L 442.742188 0 L 442.742188 29.03125 L 7.257812 29.03125 Z M 7.257812 0 " fill-opacity="1" fill-rule="nonzero"/></g><path stroke-linecap="butt" transform="matrix(0.387097, 0, 0, 0.387097, 228.832446, 5.654864)" fill="none" stroke-linejoin="miter" d="M 6.154526 21.356445 L 12.370672 21.356445 L 12.370672 25.473633 L 6.154526 25.473633 L 6.154526 33.889648 L 13.975164 33.889648 L 13.975164 37.996744 L 1.643784 37.996744 L 1.643784 9.247071 L 13.975164 9.247071 L 13.975164 13.344076 L 6.154526 13.344076 Z M 33.562077 9.247071 L 28.839421 23.203125 L 33.895085 37.996744 L 29.132064 37.996744 L 25.428614 26.613932 L 21.684799 37.996744 L 17.456609 37.996744 L 22.512273 23.203125 L 17.789617 9.247071 L 22.471908 9.247071 L 25.882716 19.842774 L 29.364161 9.247071 Z M 42.391829 21.356445 L 48.597884 21.356445 L 48.597884 25.473633 L 42.391829 25.473633 L 42.391829 33.889648 L 50.202376 33.889648 L 50.202376 37.996744 L 37.881087 37.996744 L 37.881087 9.247071 L 50.202376 9.247071 L 50.202376 13.344076 L 42.391829 13.344076 Z M 64.168521 37.996744 C 64.107974 37.805012 64.057519 37.633463 63.996972 37.472005 C 63.946516 37.300455 63.89606 37.098632 63.855696 36.846354 C 63.815331 36.604166 63.785058 36.281249 63.774967 35.907877 C 63.764875 35.524414 63.754784 35.040039 63.754784 34.464843 L 63.754784 29.94401 C 63.754784 28.601888 63.522688 27.663411 63.048404 27.118489 C 62.594303 26.573568 61.837467 26.291015 60.798079 26.291015 L 59.233951 26.291015 L 59.233951 37.996744 L 54.723209 37.996744 L 54.723209 9.247071 L 61.534732 9.247071 C 63.89606 9.247071 65.591373 9.791993 66.640852 10.891928 C 67.700422 11.981771 68.225162 13.636719 68.225162 15.856771 L 68.225162 18.117188 C 68.225162 21.073893 67.246321 23.021484 65.278547 23.94987 C 66.428938 24.414062 67.216047 25.180989 67.639875 26.24056 C 68.063703 27.290039 68.275617 28.561523 68.275617 30.065104 L 68.275617 34.505208 C 68.275617 35.221679 68.305891 35.837239 68.356347 36.37207 C 68.406802 36.9069 68.548078 37.451822 68.770084 37.996744 Z M 59.233951 13.344076 L 59.233951 22.183919 L 61.009993 22.183919 C 61.857649 22.183919 62.513573 21.961914 62.987857 21.527995 C 63.472232 21.094076 63.71442 20.296875 63.71442 19.146485 L 63.71442 16.310873 C 63.71442 15.271485 63.522688 14.514649 63.149316 14.050456 C 62.786034 13.586263 62.200748 13.344076 61.403547 13.344076 Z M 86.056216 27.279948 L 86.056216 31.104492 C 86.056216 33.425455 85.491112 35.211588 84.350812 36.46289 C 83.210513 37.714192 81.535383 38.329752 79.325422 38.329752 C 77.10537 38.329752 75.43024 37.714192 74.28994 36.46289 C 73.149641 35.211588 72.584537 33.425455 72.584537 31.104492 L 72.584537 16.149414 C 72.584537 13.81836 73.149641 12.032227 74.28994 10.791016 C 75.43024 9.539714 77.10537 8.914063 79.325422 8.914063 C 81.535383 8.914063 83.210513 9.539714 84.350812 10.791016 C 85.491112 12.032227 86.056216 13.81836 86.056216 16.149414 L 86.056216 18.93457 L 81.787661 18.93457 L 81.787661 15.856771 C 81.787661 14.817383 81.575747 14.090821 81.151919 13.666993 C 80.728091 13.243164 80.162987 13.03125 79.446515 13.03125 C 78.740135 13.03125 78.16494 13.243164 77.741112 13.666993 C 77.317284 14.090821 77.10537 14.817383 77.10537 15.856771 L 77.10537 31.387044 C 77.10537 32.426432 77.317284 33.152994 77.741112 33.566731 C 78.16494 33.970377 78.740135 34.182291 79.446515 34.182291 C 80.162987 34.182291 80.728091 33.970377 81.151919 33.566731 C 81.575747 33.152994 81.787661 32.426432 81.787661 31.387044 L 81.787661 27.279948 Z M 90.536684 9.247071 L 95.047426 9.247071 L 95.047426 37.996744 L 90.536684 37.996744 Z M 99.48753 16.149414 C 99.48753 13.81836 100.042543 12.032227 101.152569 10.791016 C 102.262595 9.539714 103.927634 8.914063 106.147686 8.914063 C 108.367738 8.914063 110.032777 9.539714 111.142803 10.791016 C 112.252829 12.032227 112.807842 13.81836 112.807842 16.149414 L 112.807842 17.047526 L 108.529196 17.047526 L 108.529196 15.856771 C 108.529196 14.817383 108.337465 14.090821 107.933819 13.666993 C 107.540264 13.243164 106.985251 13.03125 106.26878 13.03125 C 105.5624 13.03125 105.007387 13.243164 104.603741 13.666993 C 104.210186 14.090821 104.008363 14.817383 104.008363 15.856771 C 104.008363 16.845703 104.230369 17.713542 104.664288 18.470378 C 105.108298 19.217123 105.65322 19.933594 106.309145 20.609701 C 106.965069 21.275716 107.671449 21.941732 108.428285 22.617839 C 109.17503 23.283854 109.88141 24.020508 110.537334 24.807617 C 111.20335 25.604818 111.748272 26.513021 112.182191 27.532226 C 112.626202 28.541341 112.848207 29.732096 112.848207 31.104492 C 112.848207 33.425455 112.283103 35.211588 111.142803 36.46289 C 110.002504 37.714192 108.327374 38.329752 106.107322 38.329752 C 103.88727 38.329752 102.212139 37.714192 101.07184 36.46289 C 99.931541 35.211588 99.366436 33.425455 99.366436 31.104492 L 99.366436 29.338541 L 103.634991 29.338541 L 103.634991 31.387044 C 103.634991 32.426432 103.846905 33.152994 104.270733 33.566731 C 104.694561 33.970377 105.269757 34.182291 105.986228 34.182291 C 106.692608 34.182291 107.257712 33.970377 107.68154 33.566731 C 108.105368 33.152994 108.327374 32.426432 108.327374 31.387044 C 108.327374 30.398112 108.105368 29.530273 107.661358 28.783528 C 107.227439 28.026692 106.682517 27.320312 106.016501 26.644206 C 105.360577 25.968099 104.654197 25.302083 103.897361 24.625976 C 103.150616 23.959961 102.454327 23.223307 101.798403 22.436198 C 101.142478 21.638997 100.587465 20.740886 100.153546 19.72168 C 99.709535 18.712565 99.48753 17.52181 99.48753 16.149414 Z M 121.667868 21.356445 L 127.884013 21.356445 L 127.884013 25.473633 L 121.667868 25.473633 L 121.667868 33.889648 L 129.488506 33.889648 L 129.488506 37.996744 L 117.157126 37.996744 L 117.157126 9.247071 L 129.488506 9.247071 L 129.488506 13.344076 L 121.667868 13.344076 Z M 121.667868 21.356445 " stroke="#000000" stroke-width="0.718965" stroke-opacity="1" stroke-miterlimit="4"/><g fill="#000000" fill-opacity="1"><g transform="translate(161.66897, 17.375993)"><g><path d="M 4.34375 -3.234375 L 5.546875 -11.140625 L 7.984375 -11.140625 L 7.984375 0 L 6.328125 0 L 6.328125 -8 L 5.109375 0 L 3.453125 0 L 2.15625 -7.875 L 2.15625 0 L 0.625 0 L 0.625 -11.140625 L 3.0625 -11.140625 Z M 4.34375 -3.234375 "/></g></g></g><g fill="#000000" fill-opacity="1"><g transform="translate(171.123701, 17.375993)"><g><path d="M 2.25 -2.5625 C 2.25 -2.15625 2.328125 -1.867188 2.484375 -1.703125 C 2.648438 -1.546875 2.875 -1.46875 3.15625 -1.46875 C 3.425781 -1.46875 3.644531 -1.546875 3.8125 -1.703125 C 3.976562 -1.867188 4.0625 -2.15625 4.0625 -2.5625 L 4.0625 -8.578125 C 4.0625 -8.984375 3.976562 -9.269531 3.8125 -9.4375 C 3.644531 -9.601562 3.425781 -9.6875 3.15625 -9.6875 C 2.875 -9.6875 2.648438 -9.601562 2.484375 -9.4375 C 2.328125 -9.269531 2.25 -8.984375 2.25 -8.578125 Z M 0.5 -8.46875 C 0.5 -9.375 0.722656 -10.066406 1.171875 -10.546875 C 1.628906 -11.023438 2.289062 -11.265625 3.15625 -11.265625 C 4.007812 -11.265625 4.664062 -11.023438 5.125 -10.546875 C 5.582031 -10.066406 5.8125 -9.375 5.8125 -8.46875 L 5.8125 -2.671875 C 5.8125 -1.773438 5.582031 -1.082031 5.125 -0.59375 C 4.664062 -0.113281 4.007812 0.125 3.15625 0.125 C 2.289062 0.125 1.628906 -0.113281 1.171875 -0.59375 C 0.722656 -1.082031 0.5 -1.773438 0.5 -2.671875 Z M 0.5 -8.46875 "/></g></g></g><g fill="#000000" fill-opacity="1"><g transform="translate(178.270473, 17.375993)"><g><path d="M 0.125 -11.140625 L 5.546875 -11.140625 L 5.546875 -9.546875 L 3.703125 -9.546875 L 3.703125 0 L 1.953125 0 L 1.953125 -9.546875 L 0.125 -9.546875 Z M 0.125 -11.140625 "/></g></g></g><g fill="#000000" fill-opacity="1"><g transform="translate(184.780567, 17.375993)"><g><path d="M 0.640625 -11.140625 L 2.390625 -11.140625 L 2.390625 0 L 0.640625 0 Z M 0.640625 -11.140625 "/></g></g></g><g fill="#000000" fill-opacity="1"><g transform="translate(188.648442, 17.375993)"><g><path d="M 3.28125 -2.046875 L 4.625 -11.140625 L 6.21875 -11.140625 L 4.5 0 L 1.890625 0 L 0.171875 -11.140625 L 1.9375 -11.140625 Z M 3.28125 -2.046875 "/></g></g></g><g fill="#000000" fill-opacity="1"><g transform="translate(195.890713, 17.375993)"><g><path d="M 6.3125 0 L 4.53125 0 L 4.234375 -2.015625 L 2.078125 -2.015625 L 1.78125 0 L 0.171875 0 L 1.953125 -11.140625 L 4.515625 -11.140625 Z M 2.3125 -3.53125 L 4 -3.53125 L 3.15625 -9.171875 Z M 2.3125 -3.53125 "/></g></g></g><g fill="#000000" fill-opacity="1"><g transform="translate(203.21257, 17.375993)"><g><path d="M 0.125 -11.140625 L 5.546875 -11.140625 L 5.546875 -9.546875 L 3.703125 -9.546875 L 3.703125 0 L 1.953125 0 L 1.953125 -9.546875 L 0.125 -9.546875 Z M 0.125 -11.140625 "/></g></g></g><g fill="#000000" fill-opacity="1"><g transform="translate(209.722662, 17.375993)"><g><path d="M 0.640625 -11.140625 L 2.390625 -11.140625 L 2.390625 0 L 0.640625 0 Z M 0.640625 -11.140625 "/></g></g></g><g fill="#000000" fill-opacity="1"><g transform="translate(213.590538, 17.375993)"><g><path d="M 2.25 -2.5625 C 2.25 -2.15625 2.328125 -1.867188 2.484375 -1.703125 C 2.648438 -1.546875 2.875 -1.46875 3.15625 -1.46875 C 3.425781 -1.46875 3.644531 -1.546875 3.8125 -1.703125 C 3.976562 -1.867188 4.0625 -2.15625 4.0625 -2.5625 L 4.0625 -8.578125 C 4.0625 -8.984375 3.976562 -9.269531 3.8125 -9.4375 C 3.644531 -9.601562 3.425781 -9.6875 3.15625 -9.6875 C 2.875 -9.6875 2.648438 -9.601562 2.484375 -9.4375 C 2.328125 -9.269531 2.25 -8.984375 2.25 -8.578125 Z M 0.5 -8.46875 C 0.5 -9.375 0.722656 -10.066406 1.171875 -10.546875 C 1.628906 -11.023438 2.289062 -11.265625 3.15625 -11.265625 C 4.007812 -11.265625 4.664062 -11.023438 5.125 -10.546875 C 5.582031 -10.066406 5.8125 -9.375 5.8125 -8.46875 L 5.8125 -2.671875 C 5.8125 -1.773438 5.582031 -1.082031 5.125 -0.59375 C 4.664062 -0.113281 4.007812 0.125 3.15625 0.125 C 2.289062 0.125 1.628906 -0.113281 1.171875 -0.59375 C 0.722656 -1.082031 0.5 -1.773438 0.5 -2.671875 Z M 0.5 -8.46875 "/></g></g></g><g fill="#000000" fill-opacity="1"><g transform="translate(220.737309, 17.375993)"><g><path d="M 2.203125 -8.078125 L 2.203125 0 L 0.625 0 L 0.625 -11.140625 L 2.8125 -11.140625 L 4.625 -4.46875 L 4.625 -11.140625 L 6.171875 -11.140625 L 6.171875 0 L 4.375 0 Z M 2.203125 -8.078125 "/></g></g></g></svg>