<svg xmlns="http://www.w3.org/2000/svg" xmlns:xlink="http://www.w3.org/1999/xlink" width="1080" zoomAndPan="magnify" viewBox="0 0 810 809.999993" height="1080" preserveAspectRatio="xMidYMid meet" version="1.0"><defs><g/></defs><g fill="#000000" fill-opacity="1"><g transform="translate(30.224511, 310.288732)"><g><path d="M 62.28125 -0.203125 L 46.609375 -0.203125 L 22.359375 -116.625 L 22.359375 0 L 8.15625 0 L 8.15625 -146.3125 L 30.9375 -146.3125 L 54.96875 -29.46875 L 78.171875 -146.3125 L 100.953125 -146.3125 L 100.953125 0 L 85.484375 0 L 85.484375 -117.671875 Z M 62.28125 -0.203125 "/></g></g></g><g fill="#000000" fill-opacity="1"><g transform="translate(139.540945, 310.288732)"><g><path d="M 7.109375 -110.984375 C 7.109375 -122.273438 9.859375 -131.226562 15.359375 -137.84375 C 20.867188 -144.46875 29.265625 -147.78125 40.546875 -147.78125 C 51.835938 -147.78125 60.269531 -144.46875 65.84375 -137.84375 C 71.414062 -131.226562 74.203125 -122.273438 74.203125 -110.984375 L 74.203125 -35.328125 C 74.203125 -24.179688 71.414062 -15.257812 65.84375 -8.5625 C 60.269531 -1.875 51.835938 1.46875 40.546875 1.46875 C 29.265625 1.46875 20.867188 -1.875 15.359375 -8.5625 C 9.859375 -15.257812 7.109375 -24.179688 7.109375 -35.328125 Z M 23.203125 -34.484375 C 23.203125 -27.796875 24.628906 -22.601562 27.484375 -18.90625 C 30.335938 -15.21875 34.691406 -13.375 40.546875 -13.375 C 46.535156 -13.375 50.921875 -15.21875 53.703125 -18.90625 C 56.492188 -22.601562 57.890625 -27.796875 57.890625 -34.484375 L 57.890625 -111.828125 C 57.890625 -118.515625 56.492188 -123.703125 53.703125 -127.390625 C 50.921875 -131.085938 46.535156 -132.9375 40.546875 -132.9375 C 34.691406 -132.9375 30.335938 -131.085938 27.484375 -127.390625 C 24.628906 -123.703125 23.203125 -118.515625 23.203125 -111.828125 Z M 23.203125 -34.484375 "/></g></g></g><g fill="#000000" fill-opacity="1"><g transform="translate(220.848954, 310.288732)"><g><path d="M 29.46875 0 L 29.46875 -131.46875 L 2.515625 -131.46875 L 2.515625 -146.3125 L 72.53125 -146.3125 L 72.53125 -131.46875 L 45.5625 -131.46875 L 45.5625 0 Z M 29.46875 0 "/></g></g><g transform="translate(296.095429, 310.288732)"><g><path d="M 24.65625 -146.3125 L 24.65625 0 L 8.359375 0 L 8.359375 -146.3125 Z M 24.65625 -146.3125 "/></g></g><g transform="translate(329.120271, 310.288732)"><g><path d="M 20.6875 -146.3125 L 44.515625 -19.015625 L 68.140625 -146.3125 L 83.1875 -146.3125 L 55.8125 0 L 31.765625 0 L 4.1875 -146.3125 Z M 20.6875 -146.3125 "/></g></g></g><g fill="#000000" fill-opacity="1"><g transform="translate(416.489813, 310.288732)"><g><path d="M 24.875 -29.46875 L 19.234375 0 L 4.1875 0 L 32.1875 -146.3125 L 55.8125 -146.3125 L 83.8125 0 L 67.515625 0 L 61.875 -29.46875 Z M 26.96875 -43.46875 L 59.5625 -43.46875 L 43.0625 -127.921875 Z M 26.96875 -43.46875 "/></g></g></g><g fill="#000000" fill-opacity="1"><g transform="translate(504.69544, 310.288732)"><g><path d="M 29.46875 0 L 29.46875 -131.46875 L 2.515625 -131.46875 L 2.515625 -146.3125 L 72.53125 -146.3125 L 72.53125 -131.46875 L 45.5625 -131.46875 L 45.5625 0 Z M 29.46875 0 "/></g></g></g><g fill="#000000" fill-opacity="1"><g transform="translate(579.941943, 310.288732)"><g><path d="M 24.65625 -146.3125 L 24.65625 0 L 8.359375 0 L 8.359375 -146.3125 Z M 24.65625 -146.3125 "/></g></g></g><g fill="#000000" fill-opacity="1"><g transform="translate(612.966784, 310.288732)"><g><path d="M 7.109375 -110.984375 C 7.109375 -122.273438 9.859375 -131.226562 15.359375 -137.84375 C 20.867188 -144.46875 29.265625 -147.78125 40.546875 -147.78125 C 51.835938 -147.78125 60.269531 -144.46875 65.84375 -137.84375 C 71.414062 -131.226562 74.203125 -122.273438 74.203125 -110.984375 L 74.203125 -35.328125 C 74.203125 -24.179688 71.414062 -15.257812 65.84375 -8.5625 C 60.269531 -1.875 51.835938 1.46875 40.546875 1.46875 C 29.265625 1.46875 20.867188 -1.875 15.359375 -8.5625 C 9.859375 -15.257812 7.109375 -24.179688 7.109375 -35.328125 Z M 23.203125 -34.484375 C 23.203125 -27.796875 24.628906 -22.601562 27.484375 -18.90625 C 30.335938 -15.21875 34.691406 -13.375 40.546875 -13.375 C 46.535156 -13.375 50.921875 -15.21875 53.703125 -18.90625 C 56.492188 -22.601562 57.890625 -27.796875 57.890625 -34.484375 L 57.890625 -111.828125 C 57.890625 -118.515625 56.492188 -123.703125 53.703125 -127.390625 C 50.921875 -131.085938 46.535156 -132.9375 40.546875 -132.9375 C 34.691406 -132.9375 30.335938 -131.085938 27.484375 -127.390625 C 24.628906 -123.703125 23.203125 -118.515625 23.203125 -111.828125 Z M 23.203125 -34.484375 "/></g></g></g><g fill="#000000" fill-opacity="1"><g transform="translate(694.274768, 310.288732)"><g><path d="M 22.78125 0 L 8.15625 0 L 8.15625 -146.3125 L 28.84375 -146.3125 L 62.703125 -40.546875 L 62.703125 -146.3125 L 77.125 -146.3125 L 77.125 0 L 60.203125 0 L 22.78125 -118.296875 Z M 22.78125 0 "/></g></g></g><g fill="#000000" fill-opacity="1"><g transform="translate(267.461969, 602.587324)"><g><path d="M 62.28125 -0.203125 L 46.609375 -0.203125 L 22.359375 -116.625 L 22.359375 0 L 8.15625 0 L 8.15625 -146.3125 L 30.9375 -146.3125 L 54.96875 -29.46875 L 78.171875 -146.3125 L 100.953125 -146.3125 L 100.953125 0 L 85.484375 0 L 85.484375 -117.671875 Z M 62.28125 -0.203125 "/></g></g></g><g fill="#000000" fill-opacity="1"><g transform="translate(376.778402, 602.587324)"><g><path d="M 24.875 -29.46875 L 19.234375 0 L 4.1875 0 L 32.1875 -146.3125 L 55.8125 -146.3125 L 83.8125 0 L 67.515625 0 L 61.875 -29.46875 Z M 26.96875 -43.46875 L 59.5625 -43.46875 L 43.0625 -127.921875 Z M 26.96875 -43.46875 "/></g></g></g><g fill="#000000" fill-opacity="1"><g transform="translate(464.984003, 602.587324)"><g><path d="M 40.34375 -146.3125 C 51.90625 -146.3125 60.265625 -143.140625 65.421875 -136.796875 C 70.578125 -130.460938 73.15625 -121.71875 73.15625 -110.5625 L 73.15625 -93.015625 C 73.15625 -81.304688 70.398438 -72.488281 64.890625 -66.5625 C 59.390625 -60.644531 50.785156 -57.6875 39.078125 -57.6875 L 24.65625 -57.6875 L 24.65625 0 L 8.359375 0 L 8.359375 -146.3125 Z M 39.078125 -72.3125 C 45.210938 -72.3125 49.742188 -73.8125 52.671875 -76.8125 C 55.597656 -79.8125 57.0625 -84.863281 57.0625 -91.96875 L 57.0625 -111.40625 C 57.0625 -118.09375 55.769531 -123.109375 53.1875 -126.453125 C 50.613281 -129.796875 46.332031 -131.46875 40.34375 -131.46875 L 24.65625 -131.46875 L 24.65625 -72.3125 Z M 39.078125 -72.3125 "/></g></g></g></svg>