<svg xmlns="http://www.w3.org/2000/svg" xmlns:xlink="http://www.w3.org/1999/xlink" width="1080" zoomAndPan="magnify" viewBox="0 0 810 809.999993" height="1080" preserveAspectRatio="xMidYMid meet" version="1.0"><defs><g/></defs><g fill="#000000" fill-opacity="1"><g transform="translate(31.024744, 310.491015)"><g><path d="M 62.15625 -0.203125 L 46.515625 -0.203125 L 22.3125 -116.390625 L 22.3125 0 L 8.140625 0 L 8.140625 -146 L 30.875 -146 L 54.859375 -29.40625 L 78.015625 -146 L 100.75 -146 L 100.75 0 L 85.3125 0 L 85.3125 -117.421875 Z M 62.15625 -0.203125 "/></g></g></g><g fill="#000000" fill-opacity="1"><g transform="translate(140.107758, 310.491015)"><g><path d="M 7.09375 -110.75 C 7.09375 -122.019531 9.835938 -130.957031 15.328125 -137.5625 C 20.816406 -144.164062 29.195312 -147.46875 40.46875 -147.46875 C 51.726562 -147.46875 60.140625 -144.164062 65.703125 -137.5625 C 71.265625 -130.957031 74.046875 -122.019531 74.046875 -110.75 L 74.046875 -35.25 C 74.046875 -24.125 71.265625 -15.222656 65.703125 -8.546875 C 60.140625 -1.878906 51.726562 1.453125 40.46875 1.453125 C 29.195312 1.453125 20.816406 -1.878906 15.328125 -8.546875 C 9.835938 -15.222656 7.09375 -24.125 7.09375 -35.25 Z M 23.15625 -34.421875 C 23.15625 -27.742188 24.578125 -22.5625 27.421875 -18.875 C 30.273438 -15.1875 34.625 -13.34375 40.46875 -13.34375 C 46.445312 -13.34375 50.828125 -15.1875 53.609375 -18.875 C 56.390625 -22.5625 57.78125 -27.742188 57.78125 -34.421875 L 57.78125 -111.59375 C 57.78125 -118.257812 56.390625 -123.4375 53.609375 -127.125 C 50.828125 -130.8125 46.445312 -132.65625 40.46875 -132.65625 C 34.625 -132.65625 30.273438 -130.8125 27.421875 -127.125 C 24.578125 -123.4375 23.15625 -118.257812 23.15625 -111.59375 Z M 23.15625 -34.421875 "/></g></g></g><g fill="#000000" fill-opacity="1"><g transform="translate(221.242153, 310.491015)"><g><path d="M 29.40625 0 L 29.40625 -131.203125 L 2.5 -131.203125 L 2.5 -146 L 72.375 -146 L 72.375 -131.203125 L 45.46875 -131.203125 L 45.46875 0 Z M 29.40625 0 "/></g></g><g transform="translate(296.327957, 310.491015)"><g><path d="M 24.609375 -146 L 24.609375 0 L 8.34375 0 L 8.34375 -146 Z M 24.609375 -146 "/></g></g><g transform="translate(329.282282, 310.491015)"><g><path d="M 20.65625 -146 L 44.421875 -18.984375 L 68 -146 L 83.015625 -146 L 55.6875 0 L 31.703125 0 L 4.171875 -146 Z M 20.65625 -146 "/></g></g></g><g fill="#000000" fill-opacity="1"><g transform="translate(416.465266, 310.491015)"><g><path d="M 24.828125 -29.40625 L 19.1875 0 L 4.171875 0 L 32.125 -146 L 55.6875 -146 L 83.640625 0 L 67.375 0 L 61.734375 -29.40625 Z M 26.90625 -43.390625 L 59.4375 -43.390625 L 42.96875 -127.65625 Z M 26.90625 -43.390625 "/></g></g></g><g fill="#000000" fill-opacity="1"><g transform="translate(504.482551, 310.491015)"><g><path d="M 29.40625 0 L 29.40625 -131.203125 L 2.5 -131.203125 L 2.5 -146 L 72.375 -146 L 72.375 -131.203125 L 45.46875 -131.203125 L 45.46875 0 Z M 29.40625 0 "/></g></g></g><g fill="#000000" fill-opacity="1"><g transform="translate(579.568383, 310.491015)"><g><path d="M 24.609375 -146 L 24.609375 0 L 8.34375 0 L 8.34375 -146 Z M 24.609375 -146 "/></g></g></g><g fill="#000000" fill-opacity="1"><g transform="translate(612.522706, 310.491015)"><g><path d="M 7.09375 -110.75 C 7.09375 -122.019531 9.835938 -130.957031 15.328125 -137.5625 C 20.816406 -144.164062 29.195312 -147.46875 40.46875 -147.46875 C 51.726562 -147.46875 60.140625 -144.164062 65.703125 -137.5625 C 71.265625 -130.957031 74.046875 -122.019531 74.046875 -110.75 L 74.046875 -35.25 C 74.046875 -24.125 71.265625 -15.222656 65.703125 -8.546875 C 60.140625 -1.878906 51.726562 1.453125 40.46875 1.453125 C 29.195312 1.453125 20.816406 -1.878906 15.328125 -8.546875 C 9.835938 -15.222656 7.09375 -24.125 7.09375 -35.25 Z M 23.15625 -34.421875 C 23.15625 -27.742188 24.578125 -22.5625 27.421875 -18.875 C 30.273438 -15.1875 34.625 -13.34375 40.46875 -13.34375 C 46.445312 -13.34375 50.828125 -15.1875 53.609375 -18.875 C 56.390625 -22.5625 57.78125 -27.742188 57.78125 -34.421875 L 57.78125 -111.59375 C 57.78125 -118.257812 56.390625 -123.4375 53.609375 -127.125 C 50.828125 -130.8125 46.445312 -132.65625 40.46875 -132.65625 C 34.625 -132.65625 30.273438 -130.8125 27.421875 -127.125 C 24.578125 -123.4375 23.15625 -118.257812 23.15625 -111.59375 Z M 23.15625 -34.421875 "/></g></g></g><g fill="#000000" fill-opacity="1"><g transform="translate(693.657076, 310.491015)"><g><path d="M 22.734375 0 L 8.140625 0 L 8.140625 -146 L 28.78125 -146 L 62.578125 -40.46875 L 62.578125 -146 L 76.96875 -146 L 76.96875 0 L 60.078125 0 L 22.734375 -118.0625 Z M 22.734375 0 "/></g></g></g><g fill="#000000" fill-opacity="1"><g transform="translate(111.021352, 602.165471)"><g><path d="M 60.28125 -81.34375 L 60.28125 -66.75 L 24.609375 -66.75 L 24.609375 -14.8125 L 68.40625 -14.8125 L 68.40625 0 L 8.34375 0 L 8.34375 -146 L 68.40625 -146 L 68.40625 -131.203125 L 24.609375 -131.203125 L 24.609375 -81.34375 Z M 60.28125 -81.34375 "/></g></g><g transform="translate(186.107157, 602.165471)"><g><path d="M 44.640625 -62.984375 L 20.234375 0 L 4.796875 0 L 34.203125 -75.296875 L 6.671875 -146 L 23.5625 -146 L 46.09375 -87.609375 L 68.828125 -146 L 84.0625 -146 L 56.734375 -75.296875 L 85.9375 0 L 68.828125 0 Z M 44.640625 -62.984375 "/></g></g><g transform="translate(276.835837, 602.165471)"><g><path d="M 60.28125 -81.34375 L 60.28125 -66.75 L 24.609375 -66.75 L 24.609375 -14.8125 L 68.40625 -14.8125 L 68.40625 0 L 8.34375 0 L 8.34375 -146 L 68.40625 -146 L 68.40625 -131.203125 L 24.609375 -131.203125 L 24.609375 -81.34375 Z M 60.28125 -81.34375 "/></g></g><g transform="translate(351.921641, 602.165471)"><g><path d="M 40.875 -146 C 52.414062 -146 60.722656 -143.148438 65.796875 -137.453125 C 70.878906 -131.753906 73.421875 -123.476562 73.421875 -112.625 L 73.421875 -100.75 C 73.421875 -92.675781 71.957031 -86.132812 69.03125 -81.125 C 66.113281 -76.125 61.523438 -72.648438 55.265625 -70.703125 C 61.941406 -68.753906 66.671875 -65.171875 69.453125 -59.953125 C 72.234375 -54.742188 73.625 -48.175781 73.625 -40.25 L 73.625 -17.515625 C 73.625 -14.316406 73.765625 -11.222656 74.046875 -8.234375 C 74.328125 -5.242188 75.160156 -2.5 76.546875 0 L 60.078125 0 C 59.097656 -2.082031 58.398438 -4.335938 57.984375 -6.765625 C 57.566406 -9.203125 57.359375 -12.859375 57.359375 -17.734375 L 57.359375 -40.671875 C 57.359375 -48.878906 55.515625 -54.546875 51.828125 -57.671875 C 48.140625 -60.796875 42.890625 -62.359375 36.078125 -62.359375 L 24.609375 -62.359375 L 24.609375 0 L 8.34375 0 L 8.34375 -146 Z M 36.703125 -77.171875 C 43.242188 -77.171875 48.320312 -78.523438 51.9375 -81.234375 C 55.550781 -83.953125 57.359375 -89.273438 57.359375 -97.203125 L 57.359375 -111.171875 C 57.359375 -117.847656 56.070312 -122.851562 53.5 -126.1875 C 50.925781 -129.53125 46.582031 -131.203125 40.46875 -131.203125 L 24.609375 -131.203125 L 24.609375 -77.171875 Z M 36.703125 -77.171875 "/></g></g><g transform="translate(434.098882, 602.165471)"><g><path d="M 39.84375 -147.46875 C 51.101562 -147.46875 59.410156 -144.128906 64.765625 -137.453125 C 70.117188 -130.773438 72.796875 -121.875 72.796875 -110.75 L 72.796875 -97.609375 L 57.359375 -97.609375 L 57.359375 -111.59375 C 57.359375 -118.257812 56 -123.4375 53.28125 -127.125 C 50.570312 -130.8125 46.226562 -132.65625 40.25 -132.65625 C 34.414062 -132.65625 30.109375 -130.8125 27.328125 -127.125 C 24.546875 -123.4375 23.15625 -118.257812 23.15625 -111.59375 L 23.15625 -34.421875 C 23.15625 -27.742188 24.546875 -22.5625 27.328125 -18.875 C 30.109375 -15.1875 34.414062 -13.34375 40.25 -13.34375 C 46.226562 -13.34375 50.570312 -15.1875 53.28125 -18.875 C 56 -22.5625 57.359375 -27.742188 57.359375 -34.421875 L 57.359375 -53.390625 L 72.796875 -53.390625 L 72.796875 -35.25 C 72.796875 -24.125 70.117188 -15.222656 64.765625 -8.546875 C 59.410156 -1.878906 51.101562 1.453125 39.84375 1.453125 C 28.71875 1.453125 20.476562 -1.878906 15.125 -8.546875 C 9.769531 -15.222656 7.09375 -24.125 7.09375 -35.25 L 7.09375 -110.75 C 7.09375 -116.3125 7.75 -121.351562 9.0625 -125.875 C 10.382812 -130.394531 12.398438 -134.253906 15.109375 -137.453125 C 17.828125 -140.648438 21.238281 -143.117188 25.34375 -144.859375 C 29.445312 -146.597656 34.28125 -147.46875 39.84375 -147.46875 Z M 39.84375 -147.46875 "/></g></g></g><g fill="#000000" fill-opacity="1"><g transform="translate(513.356169, 602.165471)"><g><path d="M 24.609375 -146 L 24.609375 0 L 8.34375 0 L 8.34375 -146 Z M 24.609375 -146 "/></g></g></g><g fill="#000000" fill-opacity="1"><g transform="translate(546.310517, 602.165471)"><g><path d="M 39 -147.46875 C 50.125 -147.46875 58.328125 -144.164062 63.609375 -137.5625 C 68.898438 -130.957031 71.546875 -122.09375 71.546875 -110.96875 L 71.546875 -107 L 56.109375 -107 L 56.109375 -111.796875 C 56.109375 -118.472656 54.785156 -123.617188 52.140625 -127.234375 C 49.503906 -130.847656 45.265625 -132.65625 39.421875 -132.65625 C 33.578125 -132.65625 29.332031 -130.847656 26.6875 -127.234375 C 24.050781 -123.617188 22.734375 -118.539062 22.734375 -112 C 22.734375 -106.582031 23.945312 -101.859375 26.375 -97.828125 C 28.8125 -93.796875 31.835938 -90.070312 35.453125 -86.65625 C 39.066406 -83.25 42.992188 -79.910156 47.234375 -76.640625 C 51.484375 -73.378906 55.414062 -69.800781 59.03125 -65.90625 C 62.644531 -62.019531 65.664062 -57.609375 68.09375 -52.671875 C 70.53125 -47.734375 71.75 -41.859375 71.75 -35.046875 C 71.75 -23.921875 69.070312 -15.054688 63.71875 -8.453125 C 58.363281 -1.847656 50.054688 1.453125 38.796875 1.453125 C 27.535156 1.453125 19.257812 -1.847656 13.96875 -8.453125 C 8.6875 -15.054688 6.046875 -23.921875 6.046875 -35.046875 L 6.046875 -43.390625 L 21.28125 -43.390625 L 21.28125 -34.203125 C 21.28125 -27.523438 22.671875 -22.378906 25.453125 -18.765625 C 28.234375 -15.148438 32.539062 -13.34375 38.375 -13.34375 C 44.21875 -13.34375 48.53125 -15.148438 51.3125 -18.765625 C 54.09375 -22.378906 55.484375 -27.523438 55.484375 -34.203125 C 55.484375 -39.628906 54.265625 -44.320312 51.828125 -48.28125 C 49.398438 -52.25 46.375 -55.9375 42.75 -59.34375 C 39.132812 -62.75 35.242188 -66.082031 31.078125 -69.34375 C 26.910156 -72.613281 23.015625 -76.195312 19.390625 -80.09375 C 15.773438 -83.988281 12.75 -88.40625 10.3125 -93.34375 C 7.882812 -98.28125 6.671875 -104.15625 6.671875 -110.96875 C 6.671875 -122.226562 9.3125 -131.125 14.59375 -137.65625 C 19.882812 -144.195312 28.019531 -147.46875 39 -147.46875 Z M 39 -147.46875 "/></g></g></g><g fill="#000000" fill-opacity="1"><g transform="translate(623.899227, 602.165471)"><g><path d="M 60.28125 -81.34375 L 60.28125 -66.75 L 24.609375 -66.75 L 24.609375 -14.8125 L 68.40625 -14.8125 L 68.40625 0 L 8.34375 0 L 8.34375 -146 L 68.40625 -146 L 68.40625 -131.203125 L 24.609375 -131.203125 L 24.609375 -81.34375 Z M 60.28125 -81.34375 "/></g></g></g></svg>