<svg xmlns="http://www.w3.org/2000/svg" xmlns:xlink="http://www.w3.org/1999/xlink" width="600" zoomAndPan="magnify" viewBox="0 0 450 30.000001" height="40" preserveAspectRatio="xMidYMid meet" version="1.0"><defs><g/><clipPath id="f9b5b14fd3"><path d="M 7.257812 0 L 442.742188 0 L 442.742188 29.03125 L 7.257812 29.03125 Z M 7.257812 0 " clip-rule="nonzero"/></clipPath></defs><g clip-path="url(#f9b5b14fd3)"><path fill="#ffffff" d="M 7.257812 0 L 442.742188 0 L 442.742188 29.03125 L 7.257812 29.03125 Z M 7.257812 0 " fill-opacity="1" fill-rule="nonzero"/><path fill="#f8f8f8" d="M 7.257812 0 L 442.742188 0 L 442.742188 29.03125 L 7.257812 29.03125 Z M 7.257812 0 " fill-opacity="1" fill-rule="nonzero"/></g><path stroke-linecap="butt" transform="matrix(0.387097, 0, 0, 0.387097, 247.134507, 5.654856)" fill="none" stroke-linejoin="miter" d="M 11.216976 29.661477 L 14.294775 9.247089 L 20.581559 9.247089 L 20.581559 37.996763 L 16.302913 37.996763 L 16.302913 17.380553 L 13.184749 37.996763 L 8.916195 37.996763 L 5.545752 17.663105 L 5.545752 37.996763 L 1.600114 37.996763 L 1.600114 9.247089 L 7.886898 9.247089 Z M 40.218928 37.996763 L 35.65773 37.996763 L 34.880712 32.789732 L 29.330582 32.789732 L 28.553564 37.996763 L 24.396012 37.996763 L 29.007665 9.247089 L 35.617366 9.247089 Z M 29.905777 28.884458 L 34.255061 28.884458 L 32.085465 14.343118 Z M 50.683446 9.247089 C 52.964044 9.247089 54.649266 9.852558 55.759292 11.053405 C 56.869318 12.254251 57.424331 14.020201 57.424331 16.351256 L 57.424331 20.08498 C 57.424331 22.416034 56.869318 24.181985 55.759292 25.392922 C 54.649266 26.593768 52.964044 27.199237 50.683446 27.199237 L 48.554214 27.199237 L 48.554214 37.996763 L 44.033381 37.996763 L 44.033381 9.247089 Z M 48.554214 13.344095 L 48.554214 23.08205 L 50.683446 23.08205 C 51.399917 23.08205 51.95493 22.900409 52.328302 22.516946 C 52.721857 22.123391 52.913589 21.417011 52.913589 20.377623 L 52.913589 16.068704 C 52.913589 15.019225 52.721857 14.312844 52.328302 13.929381 C 51.95493 13.545917 51.399917 13.344095 50.683446 13.344095 Z M 48.554214 13.344095 " stroke="#000000" stroke-width="0.718965" stroke-opacity="1" stroke-miterlimit="4"/><g fill="#000000" fill-opacity="1"><g transform="translate(179.971031, 17.375986)"><g><path d="M 4.34375 -3.234375 L 5.546875 -11.140625 L 7.984375 -11.140625 L 7.984375 0 L 6.328125 0 L 6.328125 -8 L 5.109375 0 L 3.453125 0 L 2.15625 -7.875 L 2.15625 0 L 0.625 0 L 0.625 -11.140625 L 3.0625 -11.140625 Z M 4.34375 -3.234375 "/></g></g></g><g fill="#000000" fill-opacity="1"><g transform="translate(189.425762, 17.375986)"><g><path d="M 2.25 -2.5625 C 2.25 -2.15625 2.328125 -1.867188 2.484375 -1.703125 C 2.648438 -1.546875 2.875 -1.46875 3.15625 -1.46875 C 3.425781 -1.46875 3.644531 -1.546875 3.8125 -1.703125 C 3.976562 -1.867188 4.0625 -2.15625 4.0625 -2.5625 L 4.0625 -8.578125 C 4.0625 -8.984375 3.976562 -9.269531 3.8125 -9.4375 C 3.644531 -9.601562 3.425781 -9.6875 3.15625 -9.6875 C 2.875 -9.6875 2.648438 -9.601562 2.484375 -9.4375 C 2.328125 -9.269531 2.25 -8.984375 2.25 -8.578125 Z M 0.5 -8.46875 C 0.5 -9.375 0.722656 -10.066406 1.171875 -10.546875 C 1.628906 -11.023438 2.289062 -11.265625 3.15625 -11.265625 C 4.007812 -11.265625 4.664062 -11.023438 5.125 -10.546875 C 5.582031 -10.066406 5.8125 -9.375 5.8125 -8.46875 L 5.8125 -2.671875 C 5.8125 -1.773438 5.582031 -1.082031 5.125 -0.59375 C 4.664062 -0.113281 4.007812 0.125 3.15625 0.125 C 2.289062 0.125 1.628906 -0.113281 1.171875 -0.59375 C 0.722656 -1.082031 0.5 -1.773438 0.5 -2.671875 Z M 0.5 -8.46875 "/></g></g></g><g fill="#000000" fill-opacity="1"><g transform="translate(196.572534, 17.375986)"><g><path d="M 0.125 -11.140625 L 5.546875 -11.140625 L 5.546875 -9.546875 L 3.703125 -9.546875 L 3.703125 0 L 1.953125 0 L 1.953125 -9.546875 L 0.125 -9.546875 Z M 0.125 -11.140625 "/></g></g></g><g fill="#000000" fill-opacity="1"><g transform="translate(203.082628, 17.375986)"><g><path d="M 0.640625 -11.140625 L 2.390625 -11.140625 L 2.390625 0 L 0.640625 0 Z M 0.640625 -11.140625 "/></g></g></g><g fill="#000000" fill-opacity="1"><g transform="translate(206.950503, 17.375986)"><g><path d="M 3.28125 -2.046875 L 4.625 -11.140625 L 6.21875 -11.140625 L 4.5 0 L 1.890625 0 L 0.171875 -11.140625 L 1.9375 -11.140625 Z M 3.28125 -2.046875 "/></g></g></g><g fill="#000000" fill-opacity="1"><g transform="translate(214.192774, 17.375986)"><g><path d="M 6.3125 0 L 4.53125 0 L 4.234375 -2.015625 L 2.078125 -2.015625 L 1.78125 0 L 0.171875 0 L 1.953125 -11.140625 L 4.515625 -11.140625 Z M 2.3125 -3.53125 L 4 -3.53125 L 3.15625 -9.171875 Z M 2.3125 -3.53125 "/></g></g></g><g fill="#000000" fill-opacity="1"><g transform="translate(221.51463, 17.375986)"><g><path d="M 0.125 -11.140625 L 5.546875 -11.140625 L 5.546875 -9.546875 L 3.703125 -9.546875 L 3.703125 0 L 1.953125 0 L 1.953125 -9.546875 L 0.125 -9.546875 Z M 0.125 -11.140625 "/></g></g></g><g fill="#000000" fill-opacity="1"><g transform="translate(228.024723, 17.375986)"><g><path d="M 0.640625 -11.140625 L 2.390625 -11.140625 L 2.390625 0 L 0.640625 0 Z M 0.640625 -11.140625 "/></g></g></g><g fill="#000000" fill-opacity="1"><g transform="translate(231.892598, 17.375986)"><g><path d="M 2.25 -2.5625 C 2.25 -2.15625 2.328125 -1.867188 2.484375 -1.703125 C 2.648438 -1.546875 2.875 -1.46875 3.15625 -1.46875 C 3.425781 -1.46875 3.644531 -1.546875 3.8125 -1.703125 C 3.976562 -1.867188 4.0625 -2.15625 4.0625 -2.5625 L 4.0625 -8.578125 C 4.0625 -8.984375 3.976562 -9.269531 3.8125 -9.4375 C 3.644531 -9.601562 3.425781 -9.6875 3.15625 -9.6875 C 2.875 -9.6875 2.648438 -9.601562 2.484375 -9.4375 C 2.328125 -9.269531 2.25 -8.984375 2.25 -8.578125 Z M 0.5 -8.46875 C 0.5 -9.375 0.722656 -10.066406 1.171875 -10.546875 C 1.628906 -11.023438 2.289062 -11.265625 3.15625 -11.265625 C 4.007812 -11.265625 4.664062 -11.023438 5.125 -10.546875 C 5.582031 -10.066406 5.8125 -9.375 5.8125 -8.46875 L 5.8125 -2.671875 C 5.8125 -1.773438 5.582031 -1.082031 5.125 -0.59375 C 4.664062 -0.113281 4.007812 0.125 3.15625 0.125 C 2.289062 0.125 1.628906 -0.113281 1.171875 -0.59375 C 0.722656 -1.082031 0.5 -1.773438 0.5 -2.671875 Z M 0.5 -8.46875 "/></g></g></g><g fill="#000000" fill-opacity="1"><g transform="translate(239.039369, 17.375986)"><g><path d="M 2.203125 -8.078125 L 2.203125 0 L 0.625 0 L 0.625 -11.140625 L 2.8125 -11.140625 L 4.625 -4.46875 L 4.625 -11.140625 L 6.171875 -11.140625 L 6.171875 0 L 4.375 0 Z M 2.203125 -8.078125 "/></g></g></g></svg>