<svg xmlns="http://www.w3.org/2000/svg" xmlns:xlink="http://www.w3.org/1999/xlink" width="150" zoomAndPan="magnify" viewBox="0 0 112.5 74.999997" height="100" preserveAspectRatio="xMidYMid meet" version="1.0"><defs><g/></defs><g fill="#908ec6" fill-opacity="1"><g transform="translate(6.550781, 46.587188)"><g><path d="M 7.171875 -26.015625 C 9.222656 -26.015625 10.707031 -25.445312 11.625 -24.3125 C 12.539062 -23.1875 13 -21.632812 13 -19.65625 L 13 -16.53125 C 13 -14.445312 12.507812 -12.878906 11.53125 -11.828125 C 10.550781 -10.773438 9.023438 -10.25 6.953125 -10.25 L 4.390625 -10.25 L 4.390625 0 L 1.484375 0 L 1.484375 -26.015625 Z M 6.953125 -12.859375 C 8.035156 -12.859375 8.835938 -13.125 9.359375 -13.65625 C 9.878906 -14.1875 10.140625 -15.082031 10.140625 -16.34375 L 10.140625 -19.796875 C 10.140625 -20.992188 9.910156 -21.890625 9.453125 -22.484375 C 8.992188 -23.078125 8.234375 -23.375 7.171875 -23.375 L 4.390625 -23.375 L 4.390625 -12.859375 Z M 6.953125 -12.859375 "/></g></g></g><g fill="#908ec6" fill-opacity="1"><g transform="translate(20.448702, 46.587188)"><g><path d="M 7.28125 -26.015625 C 9.332031 -26.015625 10.8125 -25.503906 11.71875 -24.484375 C 12.625 -23.472656 13.078125 -22 13.078125 -20.0625 L 13.078125 -17.953125 C 13.078125 -16.515625 12.816406 -15.347656 12.296875 -14.453125 C 11.773438 -13.554688 10.957031 -12.9375 9.84375 -12.59375 C 11.03125 -12.25 11.867188 -11.613281 12.359375 -10.6875 C 12.859375 -9.757812 13.109375 -8.585938 13.109375 -7.171875 L 13.109375 -3.125 C 13.109375 -2.550781 13.132812 -2 13.1875 -1.46875 C 13.238281 -0.9375 13.390625 -0.445312 13.640625 0 L 10.703125 0 C 10.523438 -0.375 10.398438 -0.773438 10.328125 -1.203125 C 10.253906 -1.640625 10.21875 -2.289062 10.21875 -3.15625 L 10.21875 -7.25 C 10.21875 -8.707031 9.890625 -9.710938 9.234375 -10.265625 C 8.578125 -10.828125 7.640625 -11.109375 6.421875 -11.109375 L 4.390625 -11.109375 L 4.390625 0 L 1.484375 0 L 1.484375 -26.015625 Z M 6.546875 -13.75 C 7.703125 -13.75 8.601562 -13.988281 9.25 -14.46875 C 9.894531 -14.957031 10.21875 -15.90625 10.21875 -17.3125 L 10.21875 -19.796875 C 10.21875 -20.992188 9.988281 -21.890625 9.53125 -22.484375 C 9.070312 -23.078125 8.296875 -23.375 7.203125 -23.375 L 4.390625 -23.375 L 4.390625 -13.75 Z M 6.546875 -13.75 "/></g></g></g><g fill="#908ec6" fill-opacity="1"><g transform="translate(35.089826, 46.587188)"><g><path d="M 10.734375 -14.484375 L 10.734375 -11.890625 L 4.390625 -11.890625 L 4.390625 -2.640625 L 12.1875 -2.640625 L 12.1875 0 L 1.484375 0 L 1.484375 -26.015625 L 12.1875 -26.015625 L 12.1875 -23.375 L 4.390625 -23.375 L 4.390625 -14.484375 Z M 10.734375 -14.484375 "/></g></g></g><g fill="#908ec6" fill-opacity="1"><g transform="translate(48.4675, 46.587188)"><g><path d="M 7.171875 -26.015625 C 9.222656 -26.015625 10.707031 -25.445312 11.625 -24.3125 C 12.539062 -23.1875 13 -21.632812 13 -19.65625 L 13 -16.53125 C 13 -14.445312 12.507812 -12.878906 11.53125 -11.828125 C 10.550781 -10.773438 9.023438 -10.25 6.953125 -10.25 L 4.390625 -10.25 L 4.390625 0 L 1.484375 0 L 1.484375 -26.015625 Z M 6.953125 -12.859375 C 8.035156 -12.859375 8.835938 -13.125 9.359375 -13.65625 C 9.878906 -14.1875 10.140625 -15.082031 10.140625 -16.34375 L 10.140625 -19.796875 C 10.140625 -20.992188 9.910156 -21.890625 9.453125 -22.484375 C 8.992188 -23.078125 8.234375 -23.375 7.171875 -23.375 L 4.390625 -23.375 L 4.390625 -12.859375 Z M 6.953125 -12.859375 "/></g></g></g><g fill="#908ec6" fill-opacity="1"><g transform="translate(62.253944, 46.587188)"><g><path d="M 4.421875 -5.234375 L 3.421875 0 L 0.75 0 L 5.71875 -26.015625 L 9.921875 -26.015625 L 14.90625 0 L 12 0 L 11 -5.234375 Z M 4.796875 -7.734375 L 10.59375 -7.734375 L 7.65625 -22.734375 Z M 4.796875 -7.734375 "/></g></g></g><g fill="#908ec6" fill-opacity="1"><g transform="translate(77.935553, 46.587188)"><g><path d="M 7.28125 -26.015625 C 9.332031 -26.015625 10.8125 -25.503906 11.71875 -24.484375 C 12.625 -23.472656 13.078125 -22 13.078125 -20.0625 L 13.078125 -17.953125 C 13.078125 -16.515625 12.816406 -15.347656 12.296875 -14.453125 C 11.773438 -13.554688 10.957031 -12.9375 9.84375 -12.59375 C 11.03125 -12.25 11.867188 -11.613281 12.359375 -10.6875 C 12.859375 -9.757812 13.109375 -8.585938 13.109375 -7.171875 L 13.109375 -3.125 C 13.109375 -2.550781 13.132812 -2 13.1875 -1.46875 C 13.238281 -0.9375 13.390625 -0.445312 13.640625 0 L 10.703125 0 C 10.523438 -0.375 10.398438 -0.773438 10.328125 -1.203125 C 10.253906 -1.640625 10.21875 -2.289062 10.21875 -3.15625 L 10.21875 -7.25 C 10.21875 -8.707031 9.890625 -9.710938 9.234375 -10.265625 C 8.578125 -10.828125 7.640625 -11.109375 6.421875 -11.109375 L 4.390625 -11.109375 L 4.390625 0 L 1.484375 0 L 1.484375 -26.015625 Z M 6.546875 -13.75 C 7.703125 -13.75 8.601562 -13.988281 9.25 -14.46875 C 9.894531 -14.957031 10.21875 -15.90625 10.21875 -17.3125 L 10.21875 -19.796875 C 10.21875 -20.992188 9.988281 -21.890625 9.53125 -22.484375 C 9.070312 -23.078125 8.296875 -23.375 7.203125 -23.375 L 4.390625 -23.375 L 4.390625 -13.75 Z M 6.546875 -13.75 "/></g></g></g><g fill="#908ec6" fill-opacity="1"><g transform="translate(92.576677, 46.587188)"><g><path d="M 10.734375 -14.484375 L 10.734375 -11.890625 L 4.390625 -11.890625 L 4.390625 -2.640625 L 12.1875 -2.640625 L 12.1875 0 L 1.484375 0 L 1.484375 -26.015625 L 12.1875 -26.015625 L 12.1875 -23.375 L 4.390625 -23.375 L 4.390625 -14.484375 Z M 10.734375 -14.484375 "/></g></g></g></svg>