<svg xmlns="http://www.w3.org/2000/svg" xmlns:xlink="http://www.w3.org/1999/xlink" width="600" zoomAndPan="magnify" viewBox="0 0 450 449.999984" height="600" preserveAspectRatio="xMidYMid meet" version="1.0"><defs><filter x="0%" y="0%" width="100%" height="100%" id="6b501bd6fc"><feColorMatrix values="0 0 0 0 1 0 0 0 0 1 0 0 0 0 1 0 0 0 1 0" color-interpolation-filters="sRGB"/></filter><g/><mask id="788404de90"><g filter="url(#6b501bd6fc)"><rect x="-45" width="540" fill="#000000" y="-44.999998" height="539.99998" fill-opacity="0.6471"/></g></mask><clipPath id="4ae5854042"><path d="M 1 1.039062 L 361 1.039062 L 361 264.960938 L 1 264.960938 Z M 1 1.039062 " clip-rule="nonzero"/></clipPath><clipPath id="1b9caf9b23"><rect x="0" width="362" y="0" height="268"/></clipPath></defs><g mask="url(#788404de90)"><g transform="matrix(1, 0, 0, 1, 44, 92)"><g clip-path="url(#1b9caf9b23)"><g clip-path="url(#4ae5854042)"><path fill="#6dc4d5" d="M 1 1.039062 L 361.703125 1.039062 L 361.703125 264.710938 L 1 264.710938 Z M 1 1.039062 " fill-opacity="1" fill-rule="nonzero"/></g></g></g></g><g fill="#000000" fill-opacity="1"><g transform="translate(69.87631, 253.750026)"><g><path d="M 22.40625 -81.28125 C 28.832031 -81.28125 33.476562 -79.515625 36.34375 -75.984375 C 39.207031 -72.460938 40.640625 -67.609375 40.640625 -61.421875 L 40.640625 -51.671875 C 40.640625 -45.171875 39.109375 -40.273438 36.046875 -36.984375 C 32.992188 -33.691406 28.21875 -32.046875 21.71875 -32.046875 L 13.703125 -32.046875 L 13.703125 0 L 4.640625 0 L 4.640625 -81.28125 Z M 21.71875 -40.171875 C 25.125 -40.171875 27.640625 -41.003906 29.265625 -42.671875 C 30.890625 -44.335938 31.703125 -47.144531 31.703125 -51.09375 L 31.703125 -61.890625 C 31.703125 -65.597656 30.984375 -68.378906 29.546875 -70.234375 C 28.117188 -72.097656 25.738281 -73.03125 22.40625 -73.03125 L 13.703125 -73.03125 L 13.703125 -40.171875 Z M 21.71875 -40.171875 "/></g></g></g><g fill="#000000" fill-opacity="1"><g transform="translate(112.952423, 253.750026)"><g><path d="M 22.75 -81.28125 C 29.175781 -81.28125 33.800781 -79.691406 36.625 -76.515625 C 39.457031 -73.335938 40.875 -68.734375 40.875 -62.703125 L 40.875 -56.078125 C 40.875 -51.585938 40.0625 -47.945312 38.4375 -45.15625 C 36.8125 -42.375 34.253906 -40.441406 30.765625 -39.359375 C 34.484375 -38.273438 37.113281 -36.28125 38.65625 -33.375 C 40.207031 -30.476562 40.984375 -26.820312 40.984375 -22.40625 L 40.984375 -9.75 C 40.984375 -7.96875 41.0625 -6.242188 41.21875 -4.578125 C 41.375 -2.921875 41.835938 -1.394531 42.609375 0 L 33.4375 0 C 32.894531 -1.15625 32.507812 -2.410156 32.28125 -3.765625 C 32.050781 -5.128906 31.9375 -7.164062 31.9375 -9.875 L 31.9375 -22.640625 C 31.9375 -27.203125 30.910156 -30.351562 28.859375 -32.09375 C 26.804688 -33.84375 23.882812 -34.71875 20.09375 -34.71875 L 13.703125 -34.71875 L 13.703125 0 L 4.640625 0 L 4.640625 -81.28125 Z M 20.4375 -42.953125 C 24.070312 -42.953125 26.894531 -43.707031 28.90625 -45.21875 C 30.925781 -46.726562 31.9375 -49.691406 31.9375 -54.109375 L 31.9375 -61.890625 C 31.9375 -65.597656 31.21875 -68.378906 29.78125 -70.234375 C 28.351562 -72.097656 25.9375 -73.03125 22.53125 -73.03125 L 13.703125 -73.03125 L 13.703125 -42.953125 Z M 20.4375 -42.953125 "/></g></g></g><g fill="#000000" fill-opacity="1"><g transform="translate(158.699028, 253.750026)"><g><path d="M 33.5625 -45.28125 L 33.5625 -37.15625 L 13.703125 -37.15625 L 13.703125 -8.25 L 38.078125 -8.25 L 38.078125 0 L 4.640625 0 L 4.640625 -81.28125 L 38.078125 -81.28125 L 38.078125 -73.03125 L 13.703125 -73.03125 L 13.703125 -45.28125 Z M 33.5625 -45.28125 "/></g></g></g><g fill="#000000" fill-opacity="1"><g transform="translate(200.497949, 253.750026)"><g><path d="M 22.40625 -81.28125 C 28.832031 -81.28125 33.476562 -79.515625 36.34375 -75.984375 C 39.207031 -72.460938 40.640625 -67.609375 40.640625 -61.421875 L 40.640625 -51.671875 C 40.640625 -45.171875 39.109375 -40.273438 36.046875 -36.984375 C 32.992188 -33.691406 28.21875 -32.046875 21.71875 -32.046875 L 13.703125 -32.046875 L 13.703125 0 L 4.640625 0 L 4.640625 -81.28125 Z M 21.71875 -40.171875 C 25.125 -40.171875 27.640625 -41.003906 29.265625 -42.671875 C 30.890625 -44.335938 31.703125 -47.144531 31.703125 -51.09375 L 31.703125 -61.890625 C 31.703125 -65.597656 30.984375 -68.378906 29.546875 -70.234375 C 28.117188 -72.097656 25.738281 -73.03125 22.40625 -73.03125 L 13.703125 -73.03125 L 13.703125 -40.171875 Z M 21.71875 -40.171875 "/></g></g></g><g fill="#000000" fill-opacity="1"><g transform="translate(243.574069, 253.750026)"><g><path d="M 13.8125 -16.375 L 10.6875 0 L 2.328125 0 L 17.875 -81.28125 L 31 -81.28125 L 46.5625 0 L 37.5 0 L 34.375 -16.375 Z M 14.984375 -24.15625 L 33.09375 -24.15625 L 23.921875 -71.0625 Z M 14.984375 -24.15625 "/></g></g></g><g fill="#000000" fill-opacity="1"><g transform="translate(292.571692, 253.750026)"><g><path d="M 22.75 -81.28125 C 29.175781 -81.28125 33.800781 -79.691406 36.625 -76.515625 C 39.457031 -73.335938 40.875 -68.734375 40.875 -62.703125 L 40.875 -56.078125 C 40.875 -51.585938 40.0625 -47.945312 38.4375 -45.15625 C 36.8125 -42.375 34.253906 -40.441406 30.765625 -39.359375 C 34.484375 -38.273438 37.113281 -36.28125 38.65625 -33.375 C 40.207031 -30.476562 40.984375 -26.820312 40.984375 -22.40625 L 40.984375 -9.75 C 40.984375 -7.96875 41.0625 -6.242188 41.21875 -4.578125 C 41.375 -2.921875 41.835938 -1.394531 42.609375 0 L 33.4375 0 C 32.894531 -1.15625 32.507812 -2.410156 32.28125 -3.765625 C 32.050781 -5.128906 31.9375 -7.164062 31.9375 -9.875 L 31.9375 -22.640625 C 31.9375 -27.203125 30.910156 -30.351562 28.859375 -32.09375 C 26.804688 -33.84375 23.882812 -34.71875 20.09375 -34.71875 L 13.703125 -34.71875 L 13.703125 0 L 4.640625 0 L 4.640625 -81.28125 Z M 20.4375 -42.953125 C 24.070312 -42.953125 26.894531 -43.707031 28.90625 -45.21875 C 30.925781 -46.726562 31.9375 -49.691406 31.9375 -54.109375 L 31.9375 -61.890625 C 31.9375 -65.597656 31.21875 -68.378906 29.78125 -70.234375 C 28.351562 -72.097656 25.9375 -73.03125 22.53125 -73.03125 L 13.703125 -73.03125 L 13.703125 -42.953125 Z M 20.4375 -42.953125 "/></g></g></g><g fill="#000000" fill-opacity="1"><g transform="translate(338.318304, 253.750026)"><g><path d="M 33.5625 -45.28125 L 33.5625 -37.15625 L 13.703125 -37.15625 L 13.703125 -8.25 L 38.078125 -8.25 L 38.078125 0 L 4.640625 0 L 4.640625 -81.28125 L 38.078125 -81.28125 L 38.078125 -73.03125 L 13.703125 -73.03125 L 13.703125 -45.28125 Z M 33.5625 -45.28125 "/></g></g></g></svg>