<svg xmlns="http://www.w3.org/2000/svg" xmlns:xlink="http://www.w3.org/1999/xlink" width="1080" zoomAndPan="magnify" viewBox="0 0 810 809.999993" height="1080" preserveAspectRatio="xMidYMid meet" version="1.0"><defs><g/></defs><g fill="#000000" fill-opacity="1"><g transform="translate(40.500001, 310.270326)"><g><path d="M 40.96875 -146.34375 C 52.539062 -146.34375 60.867188 -143.484375 65.953125 -137.765625 C 71.046875 -132.054688 73.59375 -123.765625 73.59375 -112.890625 L 73.59375 -100.984375 C 73.59375 -92.898438 72.128906 -86.347656 69.203125 -81.328125 C 66.273438 -76.304688 61.675781 -72.820312 55.40625 -70.875 C 62.09375 -68.925781 66.828125 -65.335938 69.609375 -60.109375 C 72.398438 -54.878906 73.796875 -48.289062 73.796875 -40.34375 L 73.796875 -17.5625 C 73.796875 -14.351562 73.9375 -11.25 74.21875 -8.25 C 74.5 -5.257812 75.332031 -2.507812 76.71875 0 L 60.203125 0 C 59.234375 -2.09375 58.539062 -4.359375 58.125 -6.796875 C 57.707031 -9.234375 57.5 -12.890625 57.5 -17.765625 L 57.5 -40.765625 C 57.5 -48.992188 55.648438 -54.675781 51.953125 -57.8125 C 48.253906 -60.945312 42.992188 -62.515625 36.171875 -62.515625 L 24.671875 -62.515625 L 24.671875 0 L 8.359375 0 L 8.359375 -146.34375 Z M 36.796875 -77.359375 C 43.347656 -77.359375 48.4375 -78.710938 52.0625 -81.421875 C 55.6875 -84.140625 57.5 -89.472656 57.5 -97.421875 L 57.5 -111.4375 C 57.5 -118.125 56.207031 -123.140625 53.625 -126.484375 C 51.039062 -129.828125 46.6875 -131.5 40.5625 -131.5 L 24.671875 -131.5 L 24.671875 -77.359375 Z M 36.796875 -77.359375 "/></g></g></g><g fill="#000000" fill-opacity="1"><g transform="translate(122.869099, 310.270326)"><g><path d="M 60.421875 -81.53125 L 60.421875 -66.90625 L 24.671875 -66.90625 L 24.671875 -14.84375 L 68.578125 -14.84375 L 68.578125 0 L 8.359375 0 L 8.359375 -146.34375 L 68.578125 -146.34375 L 68.578125 -131.5 L 24.671875 -131.5 L 24.671875 -81.53125 Z M 60.421875 -81.53125 "/></g></g><g transform="translate(198.130192, 310.270326)"><g><path d="M 58.328125 -78.1875 L 58.328125 -63.34375 L 24.671875 -63.34375 L 24.671875 0 L 8.359375 0 L 8.359375 -146.34375 L 66.484375 -146.34375 L 66.484375 -131.5 L 24.671875 -131.5 L 24.671875 -78.1875 Z M 58.328125 -78.1875 "/></g></g><g transform="translate(269.210114, 310.270326)"><g><path d="M 8.359375 0 L 8.359375 -146.34375 L 24.671875 -146.34375 L 24.671875 -14.84375 L 66.484375 -14.84375 L 66.484375 0 Z M 8.359375 0 "/></g></g><g transform="translate(339.66286, 310.270326)"><g><path d="M 60.421875 -81.53125 L 60.421875 -66.90625 L 24.671875 -66.90625 L 24.671875 -14.84375 L 68.578125 -14.84375 L 68.578125 0 L 8.359375 0 L 8.359375 -146.34375 L 68.578125 -146.34375 L 68.578125 -131.5 L 24.671875 -131.5 L 24.671875 -81.53125 Z M 60.421875 -81.53125 "/></g></g><g transform="translate(414.923954, 310.270326)"><g><path d="M 39.9375 -147.8125 C 51.21875 -147.8125 59.539062 -144.460938 64.90625 -137.765625 C 70.28125 -131.078125 72.96875 -122.160156 72.96875 -111.015625 L 72.96875 -97.84375 L 57.5 -97.84375 L 57.5 -111.84375 C 57.5 -118.539062 56.140625 -123.734375 53.421875 -127.421875 C 50.703125 -131.117188 46.34375 -132.96875 40.34375 -132.96875 C 34.488281 -132.96875 30.164062 -131.117188 27.375 -127.421875 C 24.59375 -123.734375 23.203125 -118.539062 23.203125 -111.84375 L 23.203125 -34.5 C 23.203125 -27.800781 24.59375 -22.601562 27.375 -18.90625 C 30.164062 -15.21875 34.488281 -13.375 40.34375 -13.375 C 46.34375 -13.375 50.703125 -15.21875 53.421875 -18.90625 C 56.140625 -22.601562 57.5 -27.800781 57.5 -34.5 L 57.5 -53.515625 L 72.96875 -53.515625 L 72.96875 -35.328125 C 72.96875 -24.179688 70.28125 -15.257812 64.90625 -8.5625 C 59.539062 -1.875 51.21875 1.46875 39.9375 1.46875 C 28.78125 1.46875 20.519531 -1.875 15.15625 -8.5625 C 9.789062 -15.257812 7.109375 -24.179688 7.109375 -35.328125 L 7.109375 -111.015625 C 7.109375 -116.585938 7.769531 -121.640625 9.09375 -126.171875 C 10.414062 -130.703125 12.4375 -134.566406 15.15625 -137.765625 C 17.875 -140.972656 21.285156 -143.445312 25.390625 -145.1875 C 29.503906 -146.9375 34.351562 -147.8125 39.9375 -147.8125 Z M 39.9375 -147.8125 "/></g></g></g><g fill="#000000" fill-opacity="1"><g transform="translate(494.366252, 310.270326)"><g><path d="M 29.484375 0 L 29.484375 -131.5 L 2.515625 -131.5 L 2.515625 -146.34375 L 72.546875 -146.34375 L 72.546875 -131.5 L 45.578125 -131.5 L 45.578125 0 Z M 29.484375 0 "/></g></g></g><g fill="#000000" fill-opacity="1"><g transform="translate(569.627325, 310.270326)"><g><path d="M 24.671875 -146.34375 L 24.671875 0 L 8.359375 0 L 8.359375 -146.34375 Z M 24.671875 -146.34375 "/></g></g></g><g fill="#000000" fill-opacity="1"><g transform="translate(602.658581, 310.270326)"><g><path d="M 7.109375 -111.015625 C 7.109375 -122.304688 9.859375 -131.257812 15.359375 -137.875 C 20.867188 -144.5 29.269531 -147.8125 40.5625 -147.8125 C 51.851562 -147.8125 60.285156 -144.5 65.859375 -137.875 C 71.429688 -131.257812 74.21875 -122.304688 74.21875 -111.015625 L 74.21875 -35.328125 C 74.21875 -24.179688 71.429688 -15.257812 65.859375 -8.5625 C 60.285156 -1.875 51.851562 1.46875 40.5625 1.46875 C 29.269531 1.46875 20.867188 -1.875 15.359375 -8.5625 C 9.859375 -15.257812 7.109375 -24.179688 7.109375 -35.328125 Z M 23.203125 -34.5 C 23.203125 -27.800781 24.628906 -22.601562 27.484375 -18.90625 C 30.347656 -15.21875 34.707031 -13.375 40.5625 -13.375 C 46.550781 -13.375 50.9375 -15.21875 53.71875 -18.90625 C 56.507812 -22.601562 57.90625 -27.800781 57.90625 -34.5 L 57.90625 -111.84375 C 57.90625 -118.539062 56.507812 -123.734375 53.71875 -127.421875 C 50.9375 -131.117188 46.550781 -132.96875 40.5625 -132.96875 C 34.707031 -132.96875 30.347656 -131.117188 27.484375 -127.421875 C 24.628906 -123.734375 23.203125 -118.539062 23.203125 -111.84375 Z M 23.203125 -34.5 "/></g></g></g><g fill="#000000" fill-opacity="1"><g transform="translate(683.98236, 310.270326)"><g><path d="M 22.78125 0 L 8.15625 0 L 8.15625 -146.34375 L 28.84375 -146.34375 L 62.71875 -40.5625 L 62.71875 -146.34375 L 77.140625 -146.34375 L 77.140625 0 L 60.203125 0 L 22.78125 -118.328125 Z M 22.78125 0 "/></g></g></g><g fill="#000000" fill-opacity="1"><g transform="translate(110.551984, 602.625702)"><g/></g></g><g fill="#000000" fill-opacity="1"><g transform="translate(142.936671, 602.625702)"><g><path d="M 24.875 -29.484375 L 19.234375 0 L 4.1875 0 L 32.203125 -146.34375 L 55.8125 -146.34375 L 83.828125 0 L 67.53125 0 L 61.875 -29.484375 Z M 26.96875 -43.484375 L 59.578125 -43.484375 L 43.0625 -127.953125 Z M 26.96875 -43.484375 "/></g></g></g><g fill="#000000" fill-opacity="1"><g transform="translate(231.159407, 602.625702)"><g><path d="M 39.9375 -147.8125 C 51.21875 -147.8125 59.539062 -144.460938 64.90625 -137.765625 C 70.28125 -131.078125 72.96875 -122.160156 72.96875 -111.015625 L 72.96875 -97.84375 L 57.5 -97.84375 L 57.5 -111.84375 C 57.5 -118.539062 56.140625 -123.734375 53.421875 -127.421875 C 50.703125 -131.117188 46.34375 -132.96875 40.34375 -132.96875 C 34.488281 -132.96875 30.164062 -131.117188 27.375 -127.421875 C 24.59375 -123.734375 23.203125 -118.539062 23.203125 -111.84375 L 23.203125 -34.5 C 23.203125 -27.800781 24.59375 -22.601562 27.375 -18.90625 C 30.164062 -15.21875 34.488281 -13.375 40.34375 -13.375 C 46.34375 -13.375 50.703125 -15.21875 53.421875 -18.90625 C 56.140625 -22.601562 57.5 -27.800781 57.5 -34.5 L 57.5 -53.515625 L 72.96875 -53.515625 L 72.96875 -35.328125 C 72.96875 -24.179688 70.28125 -15.257812 64.90625 -8.5625 C 59.539062 -1.875 51.21875 1.46875 39.9375 1.46875 C 28.78125 1.46875 20.519531 -1.875 15.15625 -8.5625 C 9.789062 -15.257812 7.109375 -24.179688 7.109375 -35.328125 L 7.109375 -111.015625 C 7.109375 -116.585938 7.769531 -121.640625 9.09375 -126.171875 C 10.414062 -130.703125 12.4375 -134.566406 15.15625 -137.765625 C 17.875 -140.972656 21.285156 -143.445312 25.390625 -145.1875 C 29.503906 -146.9375 34.351562 -147.8125 39.9375 -147.8125 Z M 39.9375 -147.8125 "/></g></g></g><g fill="#000000" fill-opacity="1"><g transform="translate(310.601697, 602.625702)"><g><path d="M 29.484375 0 L 29.484375 -131.5 L 2.515625 -131.5 L 2.515625 -146.34375 L 72.546875 -146.34375 L 72.546875 -131.5 L 45.578125 -131.5 L 45.578125 0 Z M 29.484375 0 "/></g></g><g transform="translate(385.862791, 602.625702)"><g><path d="M 24.671875 -146.34375 L 24.671875 0 L 8.359375 0 L 8.359375 -146.34375 Z M 24.671875 -146.34375 "/></g></g><g transform="translate(418.894048, 602.625702)"><g><path d="M 20.703125 -146.34375 L 44.53125 -19.03125 L 68.15625 -146.34375 L 83.203125 -146.34375 L 55.8125 0 L 31.78125 0 L 4.1875 -146.34375 Z M 20.703125 -146.34375 "/></g></g></g><g fill="#000000" fill-opacity="1"><g transform="translate(506.280563, 602.625702)"><g><path d="M 24.671875 -146.34375 L 24.671875 0 L 8.359375 0 L 8.359375 -146.34375 Z M 24.671875 -146.34375 "/></g></g></g><g fill="#000000" fill-opacity="1"><g transform="translate(539.31182, 602.625702)"><g><path d="M 29.484375 0 L 29.484375 -131.5 L 2.515625 -131.5 L 2.515625 -146.34375 L 72.546875 -146.34375 L 72.546875 -131.5 L 45.578125 -131.5 L 45.578125 0 Z M 29.484375 0 "/></g></g><g transform="translate(614.572913, 602.625702)"><g><path d="M 34.28125 -52.46875 L 3.34375 -146.34375 L 20.28125 -146.34375 L 43.0625 -74.421875 L 66.0625 -146.34375 L 81.53125 -146.34375 L 50.390625 -52.46875 L 50.390625 0 L 34.28125 0 Z M 34.28125 -52.46875 "/></g></g></g></svg>