<svg xmlns="http://www.w3.org/2000/svg" xmlns:xlink="http://www.w3.org/1999/xlink" width="600" zoomAndPan="magnify" viewBox="0 0 450 30.000001" height="40" preserveAspectRatio="xMidYMid meet" version="1.0"><defs><g/><clipPath id="ff0c3e7f1e"><path d="M 7.257812 0 L 442.742188 0 L 442.742188 29.03125 L 7.257812 29.03125 Z M 7.257812 0 " clip-rule="nonzero"/></clipPath></defs><g clip-path="url(#ff0c3e7f1e)"><path fill="#ffffff" d="M 7.257812 0 L 442.742188 0 L 442.742188 29.03125 L 7.257812 29.03125 Z M 7.257812 0 " fill-opacity="1" fill-rule="nonzero"/><path fill="#f8f8f8" d="M 7.257812 0 L 442.742188 0 L 442.742188 29.03125 L 7.257812 29.03125 Z M 7.257812 0 " fill-opacity="1" fill-rule="nonzero"/></g><path stroke-linecap="butt" transform="matrix(0.232258, 0, 0, 0.232258, 225.072755, 5.654853)" fill="none" stroke-linejoin="miter" d="M 54.633039 63.008403 L 47.031042 63.008403 L 45.736012 54.313199 L 36.485795 54.313199 L 35.190764 63.008403 L 28.261511 63.008403 L 35.9476 15.07546 L 46.963768 15.07546 Z M 37.444453 47.80441 L 44.69326 47.80441 L 41.077266 23.568841 Z M 82.837791 45.130256 L 82.837791 51.504497 C 82.837791 55.372769 81.879133 58.366476 79.995452 60.435161 C 78.094953 62.520664 75.303069 63.546598 71.619801 63.546598 C 67.919714 63.546598 65.111012 62.520664 63.227331 60.435161 C 61.326832 58.366476 60.384992 55.372769 60.384992 51.504497 L 60.384992 26.579366 C 60.384992 22.694275 61.326832 19.717387 63.227331 17.648702 C 65.111012 15.563199 67.919714 14.520447 71.619801 14.520447 C 75.303069 14.520447 78.094953 15.563199 79.995452 17.648702 C 81.879133 19.717387 82.837791 22.694275 82.837791 26.579366 L 82.837791 31.221294 L 75.706715 31.221294 L 75.706715 26.091628 C 75.706715 24.359314 75.353525 23.148377 74.663963 22.441997 C 73.957583 21.735616 73.015743 21.382426 71.821624 21.382426 C 70.627505 21.382426 69.685665 21.735616 68.979284 22.441997 C 68.272904 23.148377 67.919714 24.359314 67.919714 26.091628 L 67.919714 51.992236 C 67.919714 53.70773 68.272904 54.918668 68.979284 55.608229 C 69.685665 56.297791 70.627505 56.634163 71.821624 56.634163 C 73.015743 56.634163 73.957583 56.297791 74.663963 55.608229 C 75.353525 54.918668 75.706715 53.70773 75.706715 51.992236 L 75.706715 45.130256 Z M 88.118824 15.07546 L 111.378916 15.07546 L 111.378916 21.903802 L 103.507822 21.903802 L 103.507822 63.008403 L 95.989918 63.008403 L 95.989918 21.903802 L 88.118824 21.903802 Z M 117.551333 15.07546 L 125.086056 15.07546 L 125.086056 63.008403 L 117.551333 63.008403 Z M 144.814246 54.17865 L 150.549381 15.07546 L 157.478634 15.07546 L 150.07846 63.008403 L 138.843651 63.008403 L 131.443478 15.07546 L 139.062293 15.07546 Z M 163.836056 15.07546 L 171.370778 15.07546 L 171.370778 63.008403 L 163.836056 63.008403 Z M 177.543196 15.07546 L 200.803287 15.07546 L 200.803287 21.903802 L 192.932193 21.903802 L 192.932193 63.008403 L 185.41429 63.008403 L 185.41429 21.903802 L 177.543196 21.903802 Z M 214.022688 47.114848 L 204.503374 15.07546 L 212.374468 15.07546 L 218.126421 36.905972 L 223.895193 15.07546 L 231.076725 15.07546 L 221.557411 47.114848 L 221.557411 63.008403 L 214.022688 63.008403 Z M 214.022688 47.114848 " stroke="#000000" stroke-width="1.198274" stroke-opacity="1" stroke-miterlimit="4"/><g fill="#000000" fill-opacity="1"><g transform="translate(166.438053, 17.375979)"><g><path d="M 4.296875 0 C 4.273438 -0.0703125 4.253906 -0.140625 4.234375 -0.203125 C 4.210938 -0.265625 4.191406 -0.34375 4.171875 -0.4375 C 4.160156 -0.539062 4.148438 -0.664062 4.140625 -0.8125 C 4.140625 -0.957031 4.140625 -1.144531 4.140625 -1.375 L 4.140625 -3.125 C 4.140625 -3.644531 4.046875 -4.007812 3.859375 -4.21875 C 3.679688 -4.425781 3.394531 -4.53125 3 -4.53125 L 2.390625 -4.53125 L 2.390625 0 L 0.640625 0 L 0.640625 -11.140625 L 3.28125 -11.140625 C 4.195312 -11.140625 4.859375 -10.925781 5.265625 -10.5 C 5.671875 -10.082031 5.875 -9.441406 5.875 -8.578125 L 5.875 -7.703125 C 5.875 -6.554688 5.492188 -5.800781 4.734375 -5.4375 C 5.171875 -5.257812 5.472656 -4.96875 5.640625 -4.5625 C 5.804688 -4.15625 5.890625 -3.660156 5.890625 -3.078125 L 5.890625 -1.359375 C 5.890625 -1.078125 5.898438 -0.832031 5.921875 -0.625 C 5.941406 -0.414062 5.992188 -0.207031 6.078125 0 Z M 2.390625 -9.546875 L 2.390625 -6.125 L 3.078125 -6.125 C 3.398438 -6.125 3.65625 -6.207031 3.84375 -6.375 C 4.03125 -6.550781 4.125 -6.863281 4.125 -7.3125 L 4.125 -8.40625 C 4.125 -8.8125 4.050781 -9.101562 3.90625 -9.28125 C 3.757812 -9.457031 3.535156 -9.546875 3.234375 -9.546875 Z M 2.390625 -9.546875 "/></g></g></g><g fill="#000000" fill-opacity="1"><g transform="translate(173.680324, 17.375979)"><g><path d="M 2.390625 -6.453125 L 4.796875 -6.453125 L 4.796875 -4.859375 L 2.390625 -4.859375 L 2.390625 -1.59375 L 5.40625 -1.59375 L 5.40625 0 L 0.640625 0 L 0.640625 -11.140625 L 5.40625 -11.140625 L 5.40625 -9.546875 L 2.390625 -9.546875 Z M 2.390625 -6.453125 "/></g></g></g><g fill="#000000" fill-opacity="1"><g transform="translate(180.38142, 17.375979)"><g><path d="M 2.390625 -6.1875 L 4.65625 -6.1875 L 4.65625 -4.59375 L 2.390625 -4.59375 L 2.390625 0 L 0.640625 0 L 0.640625 -11.140625 L 5.265625 -11.140625 L 5.265625 -9.546875 L 2.390625 -9.546875 Z M 2.390625 -6.1875 "/></g></g></g><g fill="#000000" fill-opacity="1"><g transform="translate(186.700509, 17.375979)"><g><path d="M 0.640625 -11.140625 L 2.390625 -11.140625 L 2.390625 -1.59375 L 5.265625 -1.59375 L 5.265625 0 L 0.640625 0 Z M 0.640625 -11.140625 "/></g></g></g><g fill="#000000" fill-opacity="1"><g transform="translate(192.94001, 17.375979)"><g><path d="M 2.390625 -6.453125 L 4.796875 -6.453125 L 4.796875 -4.859375 L 2.390625 -4.859375 L 2.390625 -1.59375 L 5.40625 -1.59375 L 5.40625 0 L 0.640625 0 L 0.640625 -11.140625 L 5.40625 -11.140625 L 5.40625 -9.546875 L 2.390625 -9.546875 Z M 2.390625 -6.453125 "/></g></g></g><g fill="#000000" fill-opacity="1"><g transform="translate(199.641105, 17.375979)"><g><path d="M 5.71875 -4.15625 L 5.71875 -2.671875 C 5.71875 -1.773438 5.492188 -1.082031 5.046875 -0.59375 C 4.609375 -0.113281 3.960938 0.125 3.109375 0.125 C 2.242188 0.125 1.59375 -0.113281 1.15625 -0.59375 C 0.71875 -1.082031 0.5 -1.773438 0.5 -2.671875 L 0.5 -8.46875 C 0.5 -9.375 0.71875 -10.066406 1.15625 -10.546875 C 1.59375 -11.023438 2.242188 -11.265625 3.109375 -11.265625 C 3.960938 -11.265625 4.609375 -11.023438 5.046875 -10.546875 C 5.492188 -10.066406 5.71875 -9.375 5.71875 -8.46875 L 5.71875 -7.390625 L 4.0625 -7.390625 L 4.0625 -8.578125 C 4.0625 -8.984375 3.976562 -9.269531 3.8125 -9.4375 C 3.644531 -9.601562 3.425781 -9.6875 3.15625 -9.6875 C 2.875 -9.6875 2.648438 -9.601562 2.484375 -9.4375 C 2.328125 -9.269531 2.25 -8.984375 2.25 -8.578125 L 2.25 -2.5625 C 2.25 -2.15625 2.328125 -1.875 2.484375 -1.71875 C 2.648438 -1.5625 2.875 -1.484375 3.15625 -1.484375 C 3.425781 -1.484375 3.644531 -1.5625 3.8125 -1.71875 C 3.976562 -1.875 4.0625 -2.15625 4.0625 -2.5625 L 4.0625 -4.15625 Z M 5.71875 -4.15625 "/></g></g></g><g fill="#000000" fill-opacity="1"><g transform="translate(206.628704, 17.375979)"><g><path d="M 0.125 -11.140625 L 5.546875 -11.140625 L 5.546875 -9.546875 L 3.703125 -9.546875 L 3.703125 0 L 1.953125 0 L 1.953125 -9.546875 L 0.125 -9.546875 Z M 0.125 -11.140625 "/></g></g></g><g fill="#000000" fill-opacity="1"><g transform="translate(213.138799, 17.375979)"><g><path d="M 0.640625 -11.140625 L 2.390625 -11.140625 L 2.390625 0 L 0.640625 0 Z M 0.640625 -11.140625 "/></g></g></g><g fill="#000000" fill-opacity="1"><g transform="translate(217.006675, 17.375979)"><g><path d="M 2.25 -2.5625 C 2.25 -2.15625 2.328125 -1.867188 2.484375 -1.703125 C 2.648438 -1.546875 2.875 -1.46875 3.15625 -1.46875 C 3.425781 -1.46875 3.644531 -1.546875 3.8125 -1.703125 C 3.976562 -1.867188 4.0625 -2.15625 4.0625 -2.5625 L 4.0625 -8.578125 C 4.0625 -8.984375 3.976562 -9.269531 3.8125 -9.4375 C 3.644531 -9.601562 3.425781 -9.6875 3.15625 -9.6875 C 2.875 -9.6875 2.648438 -9.601562 2.484375 -9.4375 C 2.328125 -9.269531 2.25 -8.984375 2.25 -8.578125 Z M 0.5 -8.46875 C 0.5 -9.375 0.722656 -10.066406 1.171875 -10.546875 C 1.628906 -11.023438 2.289062 -11.265625 3.15625 -11.265625 C 4.007812 -11.265625 4.664062 -11.023438 5.125 -10.546875 C 5.582031 -10.066406 5.8125 -9.375 5.8125 -8.46875 L 5.8125 -2.671875 C 5.8125 -1.773438 5.582031 -1.082031 5.125 -0.59375 C 4.664062 -0.113281 4.007812 0.125 3.15625 0.125 C 2.289062 0.125 1.628906 -0.113281 1.171875 -0.59375 C 0.722656 -1.082031 0.5 -1.773438 0.5 -2.671875 Z M 0.5 -8.46875 "/></g></g></g><g fill="#000000" fill-opacity="1"><g transform="translate(224.153446, 17.375979)"><g><path d="M 2.203125 -8.078125 L 2.203125 0 L 0.625 0 L 0.625 -11.140625 L 2.8125 -11.140625 L 4.625 -4.46875 L 4.625 -11.140625 L 6.171875 -11.140625 L 6.171875 0 L 4.375 0 Z M 2.203125 -8.078125 "/></g></g></g></svg>