<svg xmlns="http://www.w3.org/2000/svg" xmlns:xlink="http://www.w3.org/1999/xlink" width="150" zoomAndPan="magnify" viewBox="0 0 112.5 74.999997" height="100" preserveAspectRatio="xMidYMid meet" version="1.0"><defs><g/></defs><g fill="#492371" fill-opacity="1"><g transform="translate(19.902342, 46.587174)"><g><path d="M 6.953125 -26.265625 C 8.929688 -26.265625 10.390625 -25.675781 11.328125 -24.5 C 12.273438 -23.320312 12.75 -21.742188 12.75 -19.765625 L 12.75 -19.0625 L 10 -19.0625 L 10 -19.921875 C 10 -21.109375 9.757812 -22.019531 9.28125 -22.65625 C 8.8125 -23.300781 8.054688 -23.625 7.015625 -23.625 C 5.984375 -23.625 5.226562 -23.300781 4.75 -22.65625 C 4.28125 -22.019531 4.046875 -21.117188 4.046875 -19.953125 C 4.046875 -18.984375 4.257812 -18.140625 4.6875 -17.421875 C 5.125 -16.703125 5.664062 -16.039062 6.3125 -15.4375 C 6.957031 -14.832031 7.65625 -14.238281 8.40625 -13.65625 C 9.164062 -13.070312 9.867188 -12.429688 10.515625 -11.734375 C 11.160156 -11.046875 11.695312 -10.257812 12.125 -9.375 C 12.5625 -8.5 12.78125 -7.457031 12.78125 -6.25 C 12.78125 -4.257812 12.300781 -2.675781 11.34375 -1.5 C 10.394531 -0.320312 8.914062 0.265625 6.90625 0.265625 C 4.90625 0.265625 3.429688 -0.320312 2.484375 -1.5 C 1.546875 -2.675781 1.078125 -4.257812 1.078125 -6.25 L 1.078125 -7.734375 L 3.796875 -7.734375 L 3.796875 -6.09375 C 3.796875 -4.90625 4.039062 -3.988281 4.53125 -3.34375 C 5.03125 -2.695312 5.800781 -2.375 6.84375 -2.375 C 7.875 -2.375 8.640625 -2.695312 9.140625 -3.34375 C 9.640625 -3.988281 9.890625 -4.90625 9.890625 -6.09375 C 9.890625 -7.0625 9.671875 -7.894531 9.234375 -8.59375 C 8.796875 -9.300781 8.253906 -9.957031 7.609375 -10.5625 C 6.972656 -11.175781 6.28125 -11.773438 5.53125 -12.359375 C 4.789062 -12.941406 4.097656 -13.578125 3.453125 -14.265625 C 2.804688 -14.960938 2.265625 -15.75 1.828125 -16.625 C 1.398438 -17.507812 1.1875 -18.554688 1.1875 -19.765625 C 1.1875 -21.773438 1.65625 -23.359375 2.59375 -24.515625 C 3.539062 -25.679688 4.992188 -26.265625 6.953125 -26.265625 Z M 6.953125 -26.265625 "/></g></g></g><g fill="#492371" fill-opacity="1"><g transform="translate(33.725946, 46.587174)"><g><path d="M 4.390625 -11.703125 L 4.390625 0 L 1.484375 0 L 1.484375 -26.015625 L 4.390625 -26.015625 L 4.390625 -14.3125 L 10.78125 -14.3125 L 10.78125 -26.015625 L 13.671875 -26.015625 L 13.671875 0 L 10.78125 0 L 10.78125 -11.703125 Z M 4.390625 -11.703125 "/></g></g></g><g fill="#492371" fill-opacity="1"><g transform="translate(48.887318, 46.587174)"><g><path d="M 4.421875 -5.234375 L 3.421875 0 L 0.75 0 L 5.71875 -26.015625 L 9.921875 -26.015625 L 14.90625 0 L 12 0 L 11 -5.234375 Z M 4.796875 -7.734375 L 10.59375 -7.734375 L 7.65625 -22.734375 Z M 4.796875 -7.734375 "/></g></g></g><g fill="#492371" fill-opacity="1"><g transform="translate(64.568927, 46.587174)"><g><path d="M 7.28125 -26.015625 C 9.332031 -26.015625 10.8125 -25.503906 11.71875 -24.484375 C 12.625 -23.472656 13.078125 -22 13.078125 -20.0625 L 13.078125 -17.953125 C 13.078125 -16.515625 12.816406 -15.347656 12.296875 -14.453125 C 11.773438 -13.554688 10.957031 -12.9375 9.84375 -12.59375 C 11.03125 -12.25 11.867188 -11.613281 12.359375 -10.6875 C 12.859375 -9.757812 13.109375 -8.585938 13.109375 -7.171875 L 13.109375 -3.125 C 13.109375 -2.550781 13.132812 -2 13.1875 -1.46875 C 13.238281 -0.9375 13.390625 -0.445312 13.640625 0 L 10.703125 0 C 10.523438 -0.375 10.398438 -0.773438 10.328125 -1.203125 C 10.253906 -1.640625 10.21875 -2.289062 10.21875 -3.15625 L 10.21875 -7.25 C 10.21875 -8.707031 9.890625 -9.710938 9.234375 -10.265625 C 8.578125 -10.828125 7.640625 -11.109375 6.421875 -11.109375 L 4.390625 -11.109375 L 4.390625 0 L 1.484375 0 L 1.484375 -26.015625 Z M 6.546875 -13.75 C 7.703125 -13.75 8.601562 -13.988281 9.25 -14.46875 C 9.894531 -14.957031 10.21875 -15.90625 10.21875 -17.3125 L 10.21875 -19.796875 C 10.21875 -20.992188 9.988281 -21.890625 9.53125 -22.484375 C 9.070312 -23.078125 8.296875 -23.375 7.203125 -23.375 L 4.390625 -23.375 L 4.390625 -13.75 Z M 6.546875 -13.75 "/></g></g></g><g fill="#492371" fill-opacity="1"><g transform="translate(79.210051, 46.587174)"><g><path d="M 10.734375 -14.484375 L 10.734375 -11.890625 L 4.390625 -11.890625 L 4.390625 -2.640625 L 12.1875 -2.640625 L 12.1875 0 L 1.484375 0 L 1.484375 -26.015625 L 12.1875 -26.015625 L 12.1875 -23.375 L 4.390625 -23.375 L 4.390625 -14.484375 Z M 10.734375 -14.484375 "/></g></g></g></svg>