<svg xmlns="http://www.w3.org/2000/svg" xmlns:xlink="http://www.w3.org/1999/xlink" width="600" zoomAndPan="magnify" viewBox="0 0 450 449.999984" height="600" preserveAspectRatio="xMidYMid meet" version="1.0"><defs><filter x="0%" y="0%" width="100%" height="100%" id="7517f11db3"><feColorMatrix values="0 0 0 0 1 0 0 0 0 1 0 0 0 0 1 0 0 0 1 0" color-interpolation-filters="sRGB"/></filter><g/><mask id="26eb19bd1f"><g filter="url(#7517f11db3)"><rect x="-45" width="540" fill="#000000" y="-44.999998" height="539.99998" fill-opacity="0.6471"/></g></mask><clipPath id="45c14a247c"><path d="M 1 1.039062 L 361 1.039062 L 361 264.960938 L 1 264.960938 Z M 1 1.039062 " clip-rule="nonzero"/></clipPath><clipPath id="0d7c6d064e"><rect x="0" width="362" y="0" height="268"/></clipPath></defs><g mask="url(#26eb19bd1f)"><g transform="matrix(1, 0, 0, 1, 44, 92)"><g clip-path="url(#0d7c6d064e)"><g clip-path="url(#45c14a247c)"><path fill="#6dc4d5" d="M 1 1.039062 L 361.703125 1.039062 L 361.703125 264.710938 L 1 264.710938 Z M 1 1.039062 " fill-opacity="1" fill-rule="nonzero"/></g></g></g></g><g fill="#000000" fill-opacity="1"><g transform="translate(111.443685, 253.750083)"><g><path d="M 21.71875 -82.09375 C 27.90625 -82.09375 32.46875 -80.253906 35.40625 -76.578125 C 38.351562 -72.898438 39.828125 -67.960938 39.828125 -61.765625 L 39.828125 -59.5625 L 31.234375 -59.5625 L 31.234375 -62.234375 C 31.234375 -65.953125 30.5 -68.816406 29.03125 -70.828125 C 27.5625 -72.835938 25.195312 -73.84375 21.9375 -73.84375 C 18.6875 -73.84375 16.328125 -72.835938 14.859375 -70.828125 C 13.390625 -68.816406 12.65625 -65.988281 12.65625 -62.34375 C 12.65625 -59.332031 13.332031 -56.703125 14.6875 -54.453125 C 16.039062 -52.210938 17.722656 -50.144531 19.734375 -48.25 C 21.742188 -46.351562 23.929688 -44.492188 26.296875 -42.671875 C 28.660156 -40.847656 30.847656 -38.851562 32.859375 -36.6875 C 34.867188 -34.519531 36.550781 -32.0625 37.90625 -29.3125 C 39.257812 -26.570312 39.9375 -23.300781 39.9375 -19.5 C 39.9375 -13.3125 38.445312 -8.378906 35.46875 -4.703125 C 32.488281 -1.023438 27.863281 0.8125 21.59375 0.8125 C 15.320312 0.8125 10.710938 -1.023438 7.765625 -4.703125 C 4.828125 -8.378906 3.359375 -13.3125 3.359375 -19.5 L 3.359375 -24.15625 L 11.84375 -24.15625 L 11.84375 -19.046875 C 11.84375 -15.328125 12.613281 -12.460938 14.15625 -10.453125 C 15.707031 -8.441406 18.109375 -7.4375 21.359375 -7.4375 C 24.609375 -7.4375 27.007812 -8.441406 28.5625 -10.453125 C 30.113281 -12.460938 30.890625 -15.328125 30.890625 -19.046875 C 30.890625 -22.054688 30.210938 -24.664062 28.859375 -26.875 C 27.503906 -29.082031 25.816406 -31.132812 23.796875 -33.03125 C 21.785156 -34.925781 19.617188 -36.78125 17.296875 -38.59375 C 14.972656 -40.414062 12.804688 -42.410156 10.796875 -44.578125 C 8.785156 -46.753906 7.101562 -49.210938 5.75 -51.953125 C 4.394531 -54.703125 3.71875 -57.972656 3.71875 -61.765625 C 3.71875 -68.035156 5.1875 -72.988281 8.125 -76.625 C 11.070312 -80.269531 15.601562 -82.09375 21.71875 -82.09375 Z M 21.71875 -82.09375 "/></g></g></g><g fill="#000000" fill-opacity="1"><g transform="translate(154.635899, 253.750083)"><g><path d="M 13.703125 -36.578125 L 13.703125 0 L 4.640625 0 L 4.640625 -81.28125 L 13.703125 -81.28125 L 13.703125 -44.703125 L 33.671875 -44.703125 L 33.671875 -81.28125 L 42.734375 -81.28125 L 42.734375 0 L 33.671875 0 L 33.671875 -36.578125 Z M 13.703125 -36.578125 "/></g></g></g><g fill="#000000" fill-opacity="1"><g transform="translate(202.00801, 253.750083)"><g><path d="M 13.8125 -16.375 L 10.6875 0 L 2.328125 0 L 17.875 -81.28125 L 31 -81.28125 L 46.5625 0 L 37.5 0 L 34.375 -16.375 Z M 14.984375 -24.15625 L 33.09375 -24.15625 L 23.921875 -71.0625 Z M 14.984375 -24.15625 "/></g></g></g><g fill="#000000" fill-opacity="1"><g transform="translate(251.005627, 253.750083)"><g><path d="M 22.75 -81.28125 C 29.175781 -81.28125 33.800781 -79.691406 36.625 -76.515625 C 39.457031 -73.335938 40.875 -68.734375 40.875 -62.703125 L 40.875 -56.078125 C 40.875 -51.585938 40.0625 -47.945312 38.4375 -45.15625 C 36.8125 -42.375 34.253906 -40.441406 30.765625 -39.359375 C 34.484375 -38.273438 37.113281 -36.28125 38.65625 -33.375 C 40.207031 -30.476562 40.984375 -26.820312 40.984375 -22.40625 L 40.984375 -9.75 C 40.984375 -7.96875 41.0625 -6.242188 41.21875 -4.578125 C 41.375 -2.921875 41.835938 -1.394531 42.609375 0 L 33.4375 0 C 32.894531 -1.15625 32.507812 -2.410156 32.28125 -3.765625 C 32.050781 -5.128906 31.9375 -7.164062 31.9375 -9.875 L 31.9375 -22.640625 C 31.9375 -27.203125 30.910156 -30.351562 28.859375 -32.09375 C 26.804688 -33.84375 23.882812 -34.71875 20.09375 -34.71875 L 13.703125 -34.71875 L 13.703125 0 L 4.640625 0 L 4.640625 -81.28125 Z M 20.4375 -42.953125 C 24.070312 -42.953125 26.894531 -43.707031 28.90625 -45.21875 C 30.925781 -46.726562 31.9375 -49.691406 31.9375 -54.109375 L 31.9375 -61.890625 C 31.9375 -65.597656 31.21875 -68.378906 29.78125 -70.234375 C 28.351562 -72.097656 25.9375 -73.03125 22.53125 -73.03125 L 13.703125 -73.03125 L 13.703125 -42.953125 Z M 20.4375 -42.953125 "/></g></g></g><g fill="#000000" fill-opacity="1"><g transform="translate(296.752238, 253.750083)"><g><path d="M 33.5625 -45.28125 L 33.5625 -37.15625 L 13.703125 -37.15625 L 13.703125 -8.25 L 38.078125 -8.25 L 38.078125 0 L 4.640625 0 L 4.640625 -81.28125 L 38.078125 -81.28125 L 38.078125 -73.03125 L 13.703125 -73.03125 L 13.703125 -45.28125 Z M 33.5625 -45.28125 "/></g></g></g></svg>