<svg xmlns="http://www.w3.org/2000/svg" xmlns:xlink="http://www.w3.org/1999/xlink" width="600" zoomAndPan="magnify" viewBox="0 0 450 30.000001" height="40" preserveAspectRatio="xMidYMid meet" version="1.0"><defs><g/><clipPath id="b75aae1ea8"><path d="M 7.257812 0 L 442.742188 0 L 442.742188 29.03125 L 7.257812 29.03125 Z M 7.257812 0 " clip-rule="nonzero"/></clipPath></defs><g clip-path="url(#b75aae1ea8)"><path fill="#ffffff" d="M 7.257812 0 L 442.742188 0 L 442.742188 36.289062 L 7.257812 36.289062 Z M 7.257812 0 " fill-opacity="1" fill-rule="nonzero"/><path fill="#ffffff" d="M 7.257812 0 L 442.742188 0 L 442.742188 29.03125 L 7.257812 29.03125 Z M 7.257812 0 " fill-opacity="1" fill-rule="nonzero"/><path fill="#f8f8f8" d="M 7.257812 0 L 442.742188 0 L 442.742188 29.03125 L 7.257812 29.03125 Z M 7.257812 0 " fill-opacity="1" fill-rule="nonzero"/></g><path stroke-linecap="butt" transform="matrix(0.387097, 0, 0, 0.387097, 253.41761, 5.654854)" fill="none" stroke-linejoin="miter" d="M 11.212189 29.661481 L 14.289988 9.247094 L 20.576771 9.247094 L 20.576771 37.996768 L 16.308217 37.996768 L 16.308217 17.380557 L 13.190053 37.996768 L 8.911407 37.996768 L 5.551056 17.66311 L 5.551056 37.996768 L 1.605418 37.996768 L 1.605418 9.247094 L 7.882111 9.247094 Z M 40.21414 37.996768 L 35.652943 37.996768 L 34.875925 32.789737 L 29.335886 32.789737 L 28.548776 37.996768 L 24.401316 37.996768 L 29.002878 9.247094 L 35.612578 9.247094 Z M 29.911081 28.884463 L 34.260365 28.884463 L 32.080677 14.343123 Z M 50.688749 9.247094 C 52.959257 9.247094 54.65457 9.852563 55.764596 11.053409 C 56.874622 12.254256 57.429635 14.020206 57.429635 16.351261 L 57.429635 20.084984 C 57.429635 22.416039 56.874622 24.181989 55.764596 25.392927 C 54.65457 26.593773 52.959257 27.199242 50.688749 27.199242 L 48.549427 27.199242 L 48.549427 37.996768 L 44.038685 37.996768 L 44.038685 9.247094 Z M 48.549427 13.344099 L 48.549427 23.082055 L 50.688749 23.082055 C 51.405221 23.082055 51.950143 22.900414 52.333606 22.516951 C 52.71707 22.123396 52.908801 21.417016 52.908801 20.377628 L 52.908801 16.068709 C 52.908801 15.019229 52.71707 14.312849 52.333606 13.929386 C 51.950143 13.545922 51.405221 13.344099 50.688749 13.344099 Z M 48.549427 13.344099 " stroke="#000000" stroke-width="0.718965" stroke-opacity="1" stroke-miterlimit="4"/><g fill="#000000" fill-opacity="1"><g transform="translate(175.954017, 17.148909)"><g><path d="M 0.40625 -8.46875 C 0.40625 -9.375 0.617188 -10.066406 1.046875 -10.546875 C 1.484375 -11.023438 2.132812 -11.265625 3 -11.265625 C 3.851562 -11.265625 4.492188 -11.023438 4.921875 -10.546875 C 5.359375 -10.066406 5.578125 -9.375 5.578125 -8.46875 L 5.578125 -8.125 L 3.921875 -8.125 L 3.921875 -8.578125 C 3.921875 -8.984375 3.84375 -9.269531 3.6875 -9.4375 C 3.53125 -9.601562 3.316406 -9.6875 3.046875 -9.6875 C 2.765625 -9.6875 2.546875 -9.601562 2.390625 -9.4375 C 2.242188 -9.269531 2.171875 -8.984375 2.171875 -8.578125 C 2.171875 -8.203125 2.253906 -7.867188 2.421875 -7.578125 C 2.585938 -7.285156 2.796875 -7.007812 3.046875 -6.75 C 3.304688 -6.488281 3.582031 -6.226562 3.875 -5.96875 C 4.164062 -5.707031 4.4375 -5.421875 4.6875 -5.109375 C 4.945312 -4.804688 5.160156 -4.457031 5.328125 -4.0625 C 5.503906 -3.664062 5.59375 -3.203125 5.59375 -2.671875 C 5.59375 -1.773438 5.367188 -1.082031 4.921875 -0.59375 C 4.484375 -0.113281 3.835938 0.125 2.984375 0.125 C 2.117188 0.125 1.460938 -0.113281 1.015625 -0.59375 C 0.578125 -1.082031 0.359375 -1.773438 0.359375 -2.671875 L 0.359375 -3.359375 L 2.015625 -3.359375 L 2.015625 -2.5625 C 2.015625 -2.15625 2.097656 -1.875 2.265625 -1.71875 C 2.429688 -1.5625 2.648438 -1.484375 2.921875 -1.484375 C 3.203125 -1.484375 3.425781 -1.5625 3.59375 -1.71875 C 3.757812 -1.875 3.84375 -2.15625 3.84375 -2.5625 C 3.84375 -2.945312 3.753906 -3.285156 3.578125 -3.578125 C 3.410156 -3.867188 3.195312 -4.144531 2.9375 -4.40625 C 2.6875 -4.664062 2.414062 -4.925781 2.125 -5.1875 C 1.832031 -5.445312 1.554688 -5.726562 1.296875 -6.03125 C 1.046875 -6.34375 0.832031 -6.691406 0.65625 -7.078125 C 0.488281 -7.472656 0.40625 -7.9375 0.40625 -8.46875 Z M 0.40625 -8.46875 "/></g></g></g><g fill="#000000" fill-opacity="1"><g transform="translate(182.74924, 17.148909)"><g><path d="M 0.125 -11.140625 L 5.546875 -11.140625 L 5.546875 -9.546875 L 3.703125 -9.546875 L 3.703125 0 L 1.953125 0 L 1.953125 -9.546875 L 0.125 -9.546875 Z M 0.125 -11.140625 "/></g></g></g><g fill="#000000" fill-opacity="1"><g transform="translate(189.258022, 17.148909)"><g><path d="M 6.3125 0 L 4.53125 0 L 4.234375 -2.015625 L 2.078125 -2.015625 L 1.78125 0 L 0.171875 0 L 1.953125 -11.140625 L 4.515625 -11.140625 Z M 2.3125 -3.53125 L 4 -3.53125 L 3.15625 -9.171875 Z M 2.3125 -3.53125 "/></g></g></g><g fill="#000000" fill-opacity="1"><g transform="translate(196.578379, 17.148909)"><g><path d="M 2.921875 -4.4375 L 2.390625 -3.421875 L 2.390625 0 L 0.640625 0 L 0.640625 -11.140625 L 2.390625 -11.140625 L 2.390625 -6.296875 L 4.6875 -11.140625 L 6.4375 -11.140625 L 4 -6.171875 L 6.4375 0 L 4.640625 0 Z M 2.921875 -4.4375 "/></g></g></g><g fill="#000000" fill-opacity="1"><g transform="translate(204.010132, 17.148909)"><g><path d="M 2.390625 -6.453125 L 4.796875 -6.453125 L 4.796875 -4.859375 L 2.390625 -4.859375 L 2.390625 -1.59375 L 5.40625 -1.59375 L 5.40625 0 L 0.640625 0 L 0.640625 -11.140625 L 5.40625 -11.140625 L 5.40625 -9.546875 L 2.390625 -9.546875 Z M 2.390625 -6.453125 "/></g></g></g><g fill="#000000" fill-opacity="1"><g transform="translate(210.709875, 17.148909)"><g><path d="M 2.390625 0 L 0.640625 0 L 0.640625 -11.140625 L 2.390625 -11.140625 L 2.390625 -6.375 L 4.375 -6.375 L 4.375 -11.140625 L 6.15625 -11.140625 L 6.15625 0 L 4.375 0 L 4.375 -4.78125 L 2.390625 -4.78125 Z M 2.390625 0 "/></g></g></g><g fill="#000000" fill-opacity="1"><g transform="translate(218.348501, 17.148909)"><g><path d="M 2.25 -2.5625 C 2.25 -2.15625 2.328125 -1.867188 2.484375 -1.703125 C 2.648438 -1.546875 2.875 -1.46875 3.15625 -1.46875 C 3.425781 -1.46875 3.644531 -1.546875 3.8125 -1.703125 C 3.976562 -1.867188 4.0625 -2.15625 4.0625 -2.5625 L 4.0625 -8.578125 C 4.0625 -8.984375 3.976562 -9.269531 3.8125 -9.4375 C 3.644531 -9.601562 3.425781 -9.6875 3.15625 -9.6875 C 2.875 -9.6875 2.648438 -9.601562 2.484375 -9.4375 C 2.328125 -9.269531 2.25 -8.984375 2.25 -8.578125 Z M 0.5 -8.46875 C 0.5 -9.375 0.722656 -10.066406 1.171875 -10.546875 C 1.628906 -11.023438 2.289062 -11.265625 3.15625 -11.265625 C 4.007812 -11.265625 4.664062 -11.023438 5.125 -10.546875 C 5.582031 -10.066406 5.8125 -9.375 5.8125 -8.46875 L 5.8125 -2.671875 C 5.8125 -1.773438 5.582031 -1.082031 5.125 -0.59375 C 4.664062 -0.113281 4.007812 0.125 3.15625 0.125 C 2.289062 0.125 1.628906 -0.113281 1.171875 -0.59375 C 0.722656 -1.082031 0.5 -1.773438 0.5 -2.671875 Z M 0.5 -8.46875 "/></g></g></g><g fill="#000000" fill-opacity="1"><g transform="translate(225.493818, 17.148909)"><g><path d="M 0.640625 -11.140625 L 2.390625 -11.140625 L 2.390625 -1.59375 L 5.265625 -1.59375 L 5.265625 0 L 0.640625 0 Z M 0.640625 -11.140625 "/></g></g></g><g fill="#000000" fill-opacity="1"><g transform="translate(231.732073, 17.148909)"><g><path d="M 0.640625 -11.140625 L 3.40625 -11.140625 C 4.289062 -11.140625 4.945312 -10.90625 5.375 -10.4375 C 5.800781 -9.976562 6.015625 -9.296875 6.015625 -8.390625 L 6.015625 -2.75 C 6.015625 -1.851562 5.800781 -1.171875 5.375 -0.703125 C 4.945312 -0.234375 4.289062 0 3.40625 0 L 0.640625 0 Z M 2.390625 -9.546875 L 2.390625 -1.59375 L 3.375 -1.59375 C 3.65625 -1.59375 3.875 -1.671875 4.03125 -1.828125 C 4.1875 -1.984375 4.265625 -2.265625 4.265625 -2.671875 L 4.265625 -8.46875 C 4.265625 -8.875 4.1875 -9.15625 4.03125 -9.3125 C 3.875 -9.46875 3.65625 -9.546875 3.375 -9.546875 Z M 2.390625 -9.546875 "/></g></g></g><g fill="#000000" fill-opacity="1"><g transform="translate(239.068342, 17.148909)"><g><path d="M 2.390625 -6.453125 L 4.796875 -6.453125 L 4.796875 -4.859375 L 2.390625 -4.859375 L 2.390625 -1.59375 L 5.40625 -1.59375 L 5.40625 0 L 0.640625 0 L 0.640625 -11.140625 L 5.40625 -11.140625 L 5.40625 -9.546875 L 2.390625 -9.546875 Z M 2.390625 -6.453125 "/></g></g></g><g fill="#000000" fill-opacity="1"><g transform="translate(245.768083, 17.148909)"><g><path d="M 4.296875 0 C 4.273438 -0.0703125 4.253906 -0.140625 4.234375 -0.203125 C 4.210938 -0.265625 4.191406 -0.34375 4.171875 -0.4375 C 4.160156 -0.539062 4.148438 -0.664062 4.140625 -0.8125 C 4.140625 -0.957031 4.140625 -1.144531 4.140625 -1.375 L 4.140625 -3.125 C 4.140625 -3.644531 4.046875 -4.007812 3.859375 -4.21875 C 3.679688 -4.425781 3.394531 -4.53125 3 -4.53125 L 2.390625 -4.53125 L 2.390625 0 L 0.640625 0 L 0.640625 -11.140625 L 3.28125 -11.140625 C 4.195312 -11.140625 4.859375 -10.925781 5.265625 -10.5 C 5.671875 -10.082031 5.875 -9.441406 5.875 -8.578125 L 5.875 -7.703125 C 5.875 -6.554688 5.492188 -5.800781 4.734375 -5.4375 C 5.171875 -5.257812 5.472656 -4.96875 5.640625 -4.5625 C 5.804688 -4.15625 5.890625 -3.660156 5.890625 -3.078125 L 5.890625 -1.359375 C 5.890625 -1.078125 5.898438 -0.832031 5.921875 -0.625 C 5.941406 -0.414062 5.992188 -0.207031 6.078125 0 Z M 2.390625 -9.546875 L 2.390625 -6.125 L 3.078125 -6.125 C 3.398438 -6.125 3.65625 -6.207031 3.84375 -6.375 C 4.03125 -6.550781 4.125 -6.863281 4.125 -7.3125 L 4.125 -8.40625 C 4.125 -8.8125 4.050781 -9.101562 3.90625 -9.28125 C 3.757812 -9.457031 3.535156 -9.546875 3.234375 -9.546875 Z M 2.390625 -9.546875 "/></g></g></g></svg>