<svg xmlns="http://www.w3.org/2000/svg" xmlns:xlink="http://www.w3.org/1999/xlink" width="1080" zoomAndPan="magnify" viewBox="0 0 810 809.999993" height="1080" preserveAspectRatio="xMidYMid meet" version="1.0"><defs><g/></defs><g fill="#000000" fill-opacity="1"><g transform="translate(34.712338, 325.235117)"><g><path d="M 32.921875 -124.453125 C 42.304688 -124.453125 49.226562 -121.664062 53.6875 -116.09375 C 58.144531 -110.519531 60.375 -103.039062 60.375 -93.65625 L 60.375 -90.296875 L 47.359375 -90.296875 L 47.359375 -94.359375 C 47.359375 -99.984375 46.238281 -104.320312 44 -107.375 C 41.769531 -110.425781 38.191406 -111.953125 33.265625 -111.953125 C 28.335938 -111.953125 24.757812 -110.425781 22.53125 -107.375 C 20.300781 -104.320312 19.1875 -100.039062 19.1875 -94.53125 C 19.1875 -89.945312 20.210938 -85.953125 22.265625 -82.546875 C 24.316406 -79.148438 26.867188 -76.015625 29.921875 -73.140625 C 32.972656 -70.265625 36.285156 -67.445312 39.859375 -64.6875 C 43.441406 -61.9375 46.757812 -58.914062 49.8125 -55.625 C 52.863281 -52.34375 55.414062 -48.617188 57.46875 -44.453125 C 59.53125 -40.285156 60.5625 -35.328125 60.5625 -29.578125 C 60.5625 -20.179688 58.300781 -12.695312 53.78125 -7.125 C 49.257812 -1.550781 42.242188 1.234375 32.734375 1.234375 C 23.234375 1.234375 16.253906 -1.550781 11.796875 -7.125 C 7.335938 -12.695312 5.109375 -20.179688 5.109375 -29.578125 L 5.109375 -36.609375 L 17.953125 -36.609375 L 17.953125 -28.875 C 17.953125 -23.238281 19.125 -18.894531 21.46875 -15.84375 C 23.820312 -12.789062 27.460938 -11.265625 32.390625 -11.265625 C 37.316406 -11.265625 40.953125 -12.789062 43.296875 -15.84375 C 45.648438 -18.894531 46.828125 -23.238281 46.828125 -28.875 C 46.828125 -33.445312 45.796875 -37.40625 43.734375 -40.75 C 41.679688 -44.09375 39.128906 -47.203125 36.078125 -50.078125 C 33.035156 -52.953125 29.753906 -55.769531 26.234375 -58.53125 C 22.710938 -61.289062 19.425781 -64.3125 16.375 -67.59375 C 13.320312 -70.882812 10.769531 -74.609375 8.71875 -78.765625 C 6.664062 -82.929688 5.640625 -87.894531 5.640625 -93.65625 C 5.640625 -103.15625 7.867188 -110.660156 12.328125 -116.171875 C 16.785156 -121.691406 23.648438 -124.453125 32.921875 -124.453125 Z M 32.921875 -124.453125 "/></g></g></g><g fill="#000000" fill-opacity="1"><g transform="translate(100.196541, 325.235117)"><g><path d="M 24.828125 0 L 24.828125 -110.71875 L 2.109375 -110.71875 L 2.109375 -123.21875 L 61.078125 -123.21875 L 61.078125 -110.71875 L 38.375 -110.71875 L 38.375 0 Z M 24.828125 0 "/></g></g><g transform="translate(163.568333, 325.235117)"><g><path d="M 20.953125 -24.828125 L 16.1875 0 L 3.515625 0 L 27.109375 -123.21875 L 47 -123.21875 L 70.59375 0 L 56.859375 0 L 52.109375 -24.828125 Z M 22.703125 -36.609375 L 50.171875 -36.609375 L 36.265625 -107.734375 Z M 22.703125 -36.609375 "/></g></g><g transform="translate(237.854155, 325.235117)"><g><path d="M 27.984375 -53.515625 L 20.765625 -41.375 L 20.765625 0 L 7.046875 0 L 7.046875 -123.21875 L 20.765625 -123.21875 L 20.765625 -63.71875 L 53.515625 -123.21875 L 67.421875 -123.21875 L 36.265625 -67.0625 L 68.46875 0 L 54.390625 0 Z M 27.984375 -53.515625 "/></g></g><g transform="translate(309.851552, 325.235117)"><g><path d="M 50.875 -68.65625 L 50.875 -56.328125 L 20.765625 -56.328125 L 20.765625 -12.5 L 57.734375 -12.5 L 57.734375 0 L 7.046875 0 L 7.046875 -123.21875 L 57.734375 -123.21875 L 57.734375 -110.71875 L 20.765625 -110.71875 L 20.765625 -68.65625 Z M 50.875 -68.65625 "/></g></g><g transform="translate(373.223344, 325.235117)"><g><path d="M 20.765625 -55.453125 L 20.765625 0 L 7.046875 0 L 7.046875 -123.21875 L 20.765625 -123.21875 L 20.765625 -67.765625 L 51.046875 -67.765625 L 51.046875 -123.21875 L 64.78125 -123.21875 L 64.78125 0 L 51.046875 0 L 51.046875 -55.453125 Z M 20.765625 -55.453125 "/></g></g></g><g fill="#000000" fill-opacity="1"><g transform="translate(445.044749, 325.235117)"><g><path d="M 5.984375 -93.46875 C 5.984375 -102.976562 8.300781 -110.519531 12.9375 -116.09375 C 17.570312 -121.664062 24.644531 -124.453125 34.15625 -124.453125 C 43.65625 -124.453125 50.75 -121.664062 55.4375 -116.09375 C 60.132812 -110.519531 62.484375 -102.976562 62.484375 -93.46875 L 62.484375 -29.75 C 62.484375 -20.363281 60.132812 -12.851562 55.4375 -7.21875 C 50.75 -1.582031 43.65625 1.234375 34.15625 1.234375 C 24.644531 1.234375 17.570312 -1.582031 12.9375 -7.21875 C 8.300781 -12.851562 5.984375 -20.363281 5.984375 -29.75 Z M 19.546875 -29.046875 C 19.546875 -23.410156 20.742188 -19.035156 23.140625 -15.921875 C 25.546875 -12.816406 29.21875 -11.265625 34.15625 -11.265625 C 39.195312 -11.265625 42.890625 -12.816406 45.234375 -15.921875 C 47.585938 -19.035156 48.765625 -23.410156 48.765625 -29.046875 L 48.765625 -94.171875 C 48.765625 -99.804688 47.585938 -104.175781 45.234375 -107.28125 C 42.890625 -110.394531 39.195312 -111.953125 34.15625 -111.953125 C 29.21875 -111.953125 25.546875 -110.394531 23.140625 -107.28125 C 20.742188 -104.175781 19.546875 -99.804688 19.546875 -94.171875 Z M 19.546875 -29.046875 "/></g></g></g><g fill="#000000" fill-opacity="1"><g transform="translate(513.52148, 325.235117)"><g><path d="M 7.046875 0 L 7.046875 -123.21875 L 20.765625 -123.21875 L 20.765625 -12.5 L 55.984375 -12.5 L 55.984375 0 Z M 7.046875 0 "/></g></g></g><g fill="#000000" fill-opacity="1"><g transform="translate(572.844499, 325.235117)"><g><path d="M 35.90625 -123.21875 C 45.53125 -123.21875 52.601562 -120.488281 57.125 -115.03125 C 61.644531 -109.570312 63.90625 -102.09375 63.90625 -92.59375 L 63.90625 -30.453125 C 63.90625 -20.941406 61.644531 -13.488281 57.125 -8.09375 C 52.601562 -2.695312 45.53125 0 35.90625 0 L 7.046875 0 L 7.046875 -123.21875 Z M 35.734375 -12.5 C 40.660156 -12.5 44.328125 -13.992188 46.734375 -16.984375 C 49.140625 -19.972656 50.34375 -24.285156 50.34375 -29.921875 L 50.34375 -93.296875 C 50.34375 -98.929688 49.140625 -103.242188 46.734375 -106.234375 C 44.328125 -109.222656 40.601562 -110.71875 35.5625 -110.71875 L 20.765625 -110.71875 L 20.765625 -12.5 Z M 35.734375 -12.5 "/></g></g></g><g fill="#000000" fill-opacity="1"><g transform="translate(642.553454, 325.235117)"><g><path d="M 50.875 -68.65625 L 50.875 -56.328125 L 20.765625 -56.328125 L 20.765625 -12.5 L 57.734375 -12.5 L 57.734375 0 L 7.046875 0 L 7.046875 -123.21875 L 57.734375 -123.21875 L 57.734375 -110.71875 L 20.765625 -110.71875 L 20.765625 -68.65625 Z M 50.875 -68.65625 "/></g></g></g><g fill="#000000" fill-opacity="1"><g transform="translate(705.925269, 325.235117)"><g><path d="M 34.5 -123.21875 C 44.238281 -123.21875 51.25 -120.8125 55.53125 -116 C 59.820312 -111.1875 61.96875 -104.207031 61.96875 -95.0625 L 61.96875 -85.015625 C 61.96875 -78.210938 60.734375 -72.695312 58.265625 -68.46875 C 55.796875 -64.25 51.921875 -61.316406 46.640625 -59.671875 C 52.273438 -58.023438 56.265625 -55.003906 58.609375 -50.609375 C 60.960938 -46.210938 62.140625 -40.664062 62.140625 -33.96875 L 62.140625 -14.78125 C 62.140625 -12.082031 62.253906 -9.472656 62.484375 -6.953125 C 62.722656 -4.429688 63.429688 -2.113281 64.609375 0 L 50.703125 0 C 49.878906 -1.757812 49.289062 -3.664062 48.9375 -5.71875 C 48.582031 -7.769531 48.40625 -10.851562 48.40625 -14.96875 L 48.40625 -34.328125 C 48.40625 -41.253906 46.847656 -46.035156 43.734375 -48.671875 C 40.628906 -51.316406 36.203125 -52.640625 30.453125 -52.640625 L 20.765625 -52.640625 L 20.765625 0 L 7.046875 0 L 7.046875 -123.21875 Z M 30.984375 -65.125 C 36.492188 -65.125 40.773438 -66.269531 43.828125 -68.5625 C 46.878906 -70.851562 48.40625 -75.34375 48.40625 -82.03125 L 48.40625 -93.828125 C 48.40625 -99.460938 47.316406 -103.6875 45.140625 -106.5 C 42.972656 -109.3125 39.3125 -110.71875 34.15625 -110.71875 L 20.765625 -110.71875 L 20.765625 -65.125 Z M 30.984375 -65.125 "/></g></g></g><g fill="#000000" fill-opacity="1"><g transform="translate(289.177656, 571.405923)"><g><path d="M 52.453125 -0.171875 L 39.25 -0.171875 L 18.828125 -98.21875 L 18.828125 0 L 6.859375 0 L 6.859375 -123.21875 L 26.046875 -123.21875 L 46.296875 -24.828125 L 65.828125 -123.21875 L 85.015625 -123.21875 L 85.015625 0 L 72 0 L 72 -99.109375 Z M 52.453125 -0.171875 "/></g></g></g><g fill="#000000" fill-opacity="1"><g transform="translate(381.242809, 571.405923)"><g><path d="M 20.953125 -24.828125 L 16.1875 0 L 3.515625 0 L 27.109375 -123.21875 L 47 -123.21875 L 70.59375 0 L 56.859375 0 L 52.109375 -24.828125 Z M 22.703125 -36.609375 L 50.171875 -36.609375 L 36.265625 -107.734375 Z M 22.703125 -36.609375 "/></g></g></g><g fill="#000000" fill-opacity="1"><g transform="translate(455.52864, 571.405923)"><g><path d="M 33.96875 -123.21875 C 43.707031 -123.21875 50.75 -120.546875 55.09375 -115.203125 C 59.4375 -109.867188 61.609375 -102.507812 61.609375 -93.125 L 61.609375 -78.328125 C 61.609375 -68.472656 59.289062 -61.050781 54.65625 -56.0625 C 50.019531 -51.070312 42.773438 -48.578125 32.921875 -48.578125 L 20.765625 -48.578125 L 20.765625 0 L 7.046875 0 L 7.046875 -123.21875 Z M 32.921875 -60.90625 C 38.078125 -60.90625 41.890625 -62.164062 44.359375 -64.6875 C 46.828125 -67.207031 48.0625 -71.460938 48.0625 -77.453125 L 48.0625 -93.828125 C 48.0625 -99.460938 46.972656 -103.6875 44.796875 -106.5 C 42.628906 -109.3125 39.019531 -110.71875 33.96875 -110.71875 L 20.765625 -110.71875 L 20.765625 -60.90625 Z M 32.921875 -60.90625 "/></g></g></g></svg>