<svg xmlns="http://www.w3.org/2000/svg" xmlns:xlink="http://www.w3.org/1999/xlink" width="600" zoomAndPan="magnify" viewBox="0 0 450 30.000001" height="40" preserveAspectRatio="xMidYMid meet" version="1.0"><defs><g/></defs><path stroke-linecap="butt" transform="matrix(1.12015, 0, 0, 1.12015, 186.494754, 3.488378)" fill="none" stroke-linejoin="miter" d="M 3.090904 15.476351 C 3.090904 16.027338 3.202496 16.41791 3.429168 16.648069 C 3.65584 16.871253 3.959231 16.982845 4.339342 16.982845 C 4.719452 16.982845 5.022844 16.871253 5.246028 16.648069 C 5.472699 16.41791 5.584292 16.027338 5.584292 15.476351 L 5.584292 7.190634 C 5.584292 6.63616 5.472699 6.249075 5.246028 6.022403 C 5.022844 5.795732 4.719452 5.680652 4.339342 5.680652 C 3.959231 5.680652 3.65584 5.795732 3.429168 6.022403 C 3.202496 6.249075 3.090904 6.63616 3.090904 7.190634 Z M 0.677724 7.344073 C 0.677724 6.10261 0.991577 5.150589 1.619283 4.488011 C 2.246989 3.821945 3.153675 3.487169 4.339342 3.487169 C 5.521521 3.487169 6.428207 3.821945 7.055913 4.488011 C 7.683619 5.150589 7.997472 6.10261 7.997472 7.344073 L 7.997472 15.319425 C 7.997472 16.560888 7.683619 17.516395 7.055913 18.182461 C 6.428207 18.84504 5.521521 19.176329 4.339342 19.176329 C 3.153675 19.176329 2.246989 18.84504 1.619283 18.182461 C 0.991577 17.516395 0.677724 16.560888 0.677724 15.319425 Z M 12.618085 7.891572 L 12.618085 18.998479 L 10.452499 18.998479 L 10.452499 3.665019 L 13.472462 3.665019 L 15.948413 12.843474 L 15.948413 3.665019 L 18.096562 3.665019 L 18.096562 18.998479 L 15.617124 18.998479 Z M 23.153082 10.126902 L 26.465974 10.126902 L 26.465974 12.320386 L 23.153082 12.320386 L 23.153082 16.808483 L 27.320352 16.808483 L 27.320352 18.998479 L 20.746876 18.998479 L 20.746876 3.665019 L 27.320352 3.665019 L 27.320352 5.851528 L 23.153082 5.851528 Z M 23.153082 10.126902 " stroke="#000000" stroke-width="0.383448" stroke-opacity="1" stroke-miterlimit="4"/><g fill="#000000" fill-opacity="1"><g transform="translate(138.883934, 18.826213)"><g><path d="M 6.96875 -9.15625 L 6 0 L 2.28125 0 L 0.375 -17.1875 L 3 -17.1875 L 4.453125 -3.640625 L 5.75 -17.1875 L 8.34375 -17.1875 L 9.703125 -3.53125 L 11.109375 -17.1875 L 13.453125 -17.1875 L 11.546875 0 L 7.953125 0 Z M 6.96875 -9.15625 "/></g></g></g><g fill="#000000" fill-opacity="1"><g transform="translate(154.010865, 18.826213)"><g><path d="M 3.6875 -9.953125 L 7.390625 -9.953125 L 7.390625 -7.484375 L 3.6875 -7.484375 L 3.6875 -2.453125 L 8.34375 -2.453125 L 8.34375 0 L 0.984375 0 L 0.984375 -17.1875 L 8.34375 -17.1875 L 8.34375 -14.734375 L 3.6875 -14.734375 Z M 3.6875 -9.953125 "/></g></g></g><g fill="#000000" fill-opacity="1"><g transform="translate(164.349415, 18.826213)"><g><path d="M 3.6875 -9.953125 L 7.390625 -9.953125 L 7.390625 -7.484375 L 3.6875 -7.484375 L 3.6875 -2.453125 L 8.34375 -2.453125 L 8.34375 0 L 0.984375 0 L 0.984375 -17.1875 L 8.34375 -17.1875 L 8.34375 -14.734375 L 3.6875 -14.734375 Z M 3.6875 -9.953125 "/></g></g></g><g fill="#000000" fill-opacity="1"><g transform="translate(174.687965, 18.826213)"><g><path d="M 4.515625 -6.859375 L 3.6875 -5.28125 L 3.6875 0 L 0.984375 0 L 0.984375 -17.1875 L 3.6875 -17.1875 L 3.6875 -9.703125 L 7.21875 -17.1875 L 9.921875 -17.1875 L 6.171875 -9.53125 L 9.921875 0 L 7.140625 0 Z M 4.515625 -6.859375 "/></g></g></g><g fill="#000000" fill-opacity="1"><g transform="translate(186.140279, 18.826213)"><g/></g></g><g fill="#000000" fill-opacity="1"><g transform="translate(218.813001, 18.826213)"><g><path d="M 9.734375 0 L 7 0 L 6.53125 -3.125 L 3.21875 -3.125 L 2.75 0 L 0.265625 0 L 3.015625 -17.1875 L 6.96875 -17.1875 Z M 3.5625 -5.453125 L 6.171875 -5.453125 L 4.859375 -14.140625 Z M 3.5625 -5.453125 "/></g></g></g><g fill="#000000" fill-opacity="1"><g transform="translate(230.109224, 18.826213)"><g><path d="M 8.8125 -6.40625 L 8.8125 -4.125 C 8.8125 -2.726562 8.472656 -1.65625 7.796875 -0.90625 C 7.117188 -0.164062 6.117188 0.203125 4.796875 0.203125 C 3.460938 0.203125 2.457031 -0.164062 1.78125 -0.90625 C 1.101562 -1.65625 0.765625 -2.726562 0.765625 -4.125 L 0.765625 -13.0625 C 0.765625 -14.457031 1.101562 -15.523438 1.78125 -16.265625 C 2.457031 -17.015625 3.460938 -17.390625 4.796875 -17.390625 C 6.117188 -17.390625 7.117188 -17.015625 7.796875 -16.265625 C 8.472656 -15.523438 8.8125 -14.457031 8.8125 -13.0625 L 8.8125 -11.390625 L 6.265625 -11.390625 L 6.265625 -13.234375 C 6.265625 -13.859375 6.132812 -14.296875 5.875 -14.546875 C 5.625 -14.804688 5.285156 -14.9375 4.859375 -14.9375 C 4.429688 -14.9375 4.09375 -14.804688 3.84375 -14.546875 C 3.59375 -14.296875 3.46875 -13.859375 3.46875 -13.234375 L 3.46875 -3.953125 C 3.46875 -3.328125 3.59375 -2.890625 3.84375 -2.640625 C 4.09375 -2.398438 4.429688 -2.28125 4.859375 -2.28125 C 5.285156 -2.28125 5.625 -2.398438 5.875 -2.640625 C 6.132812 -2.890625 6.265625 -3.328125 6.265625 -3.953125 L 6.265625 -6.40625 Z M 8.8125 -6.40625 "/></g></g></g><g fill="#000000" fill-opacity="1"><g transform="translate(240.889777, 18.826213)"><g><path d="M 0.203125 -17.1875 L 8.546875 -17.1875 L 8.546875 -14.734375 L 5.71875 -14.734375 L 5.71875 0 L 3.015625 0 L 3.015625 -14.734375 L 0.203125 -14.734375 Z M 0.203125 -17.1875 "/></g></g></g><g fill="#000000" fill-opacity="1"><g transform="translate(250.933659, 18.826213)"><g><path d="M 0.984375 -17.1875 L 3.6875 -17.1875 L 3.6875 0 L 0.984375 0 Z M 0.984375 -17.1875 "/></g></g></g><g fill="#000000" fill-opacity="1"><g transform="translate(256.901289, 18.826213)"><g><path d="M 5.0625 -3.171875 L 7.125 -17.1875 L 9.609375 -17.1875 L 6.953125 0 L 2.921875 0 L 0.265625 -17.1875 L 3 -17.1875 Z M 5.0625 -3.171875 "/></g></g></g><g fill="#000000" fill-opacity="1"><g transform="translate(268.074741, 18.826213)"><g><path d="M 0.984375 -17.1875 L 3.6875 -17.1875 L 3.6875 0 L 0.984375 0 Z M 0.984375 -17.1875 "/></g></g></g><g fill="#000000" fill-opacity="1"><g transform="translate(274.042371, 18.826213)"><g><path d="M 0.203125 -17.1875 L 8.546875 -17.1875 L 8.546875 -14.734375 L 5.71875 -14.734375 L 5.71875 0 L 3.015625 0 L 3.015625 -14.734375 L 0.203125 -14.734375 Z M 0.203125 -17.1875 "/></g></g></g><g fill="#000000" fill-opacity="1"><g transform="translate(284.086254, 18.826213)"><g><path d="M 0.984375 -17.1875 L 3.6875 -17.1875 L 3.6875 0 L 0.984375 0 Z M 0.984375 -17.1875 "/></g></g></g><g fill="#000000" fill-opacity="1"><g transform="translate(290.053885, 18.826213)"><g><path d="M 3.6875 -9.953125 L 7.390625 -9.953125 L 7.390625 -7.484375 L 3.6875 -7.484375 L 3.6875 -2.453125 L 8.34375 -2.453125 L 8.34375 0 L 0.984375 0 L 0.984375 -17.1875 L 8.34375 -17.1875 L 8.34375 -14.734375 L 3.6875 -14.734375 Z M 3.6875 -9.953125 "/></g></g></g><g fill="#000000" fill-opacity="1"><g transform="translate(300.392437, 18.826213)"><g><path d="M 0.640625 -13.0625 C 0.640625 -14.457031 0.96875 -15.523438 1.625 -16.265625 C 2.289062 -17.015625 3.289062 -17.390625 4.625 -17.390625 C 5.945312 -17.390625 6.9375 -17.015625 7.59375 -16.265625 C 8.257812 -15.523438 8.59375 -14.457031 8.59375 -13.0625 L 8.59375 -12.53125 L 6.046875 -12.53125 L 6.046875 -13.234375 C 6.046875 -13.859375 5.925781 -14.296875 5.6875 -14.546875 C 5.445312 -14.804688 5.113281 -14.9375 4.6875 -14.9375 C 4.257812 -14.9375 3.925781 -14.804688 3.6875 -14.546875 C 3.457031 -14.296875 3.34375 -13.859375 3.34375 -13.234375 C 3.34375 -12.648438 3.472656 -12.128906 3.734375 -11.671875 C 3.992188 -11.222656 4.320312 -10.796875 4.71875 -10.390625 C 5.113281 -9.992188 5.535156 -9.59375 5.984375 -9.1875 C 6.429688 -8.789062 6.847656 -8.351562 7.234375 -7.875 C 7.628906 -7.40625 7.957031 -6.867188 8.21875 -6.265625 C 8.488281 -5.660156 8.625 -4.945312 8.625 -4.125 C 8.625 -2.726562 8.28125 -1.65625 7.59375 -0.90625 C 6.914062 -0.164062 5.914062 0.203125 4.59375 0.203125 C 3.269531 0.203125 2.265625 -0.164062 1.578125 -0.90625 C 0.898438 -1.65625 0.5625 -2.726562 0.5625 -4.125 L 0.5625 -5.1875 L 3.125 -5.1875 L 3.125 -3.953125 C 3.125 -3.328125 3.25 -2.890625 3.5 -2.640625 C 3.75 -2.398438 4.085938 -2.28125 4.515625 -2.28125 C 4.941406 -2.28125 5.28125 -2.398438 5.53125 -2.640625 C 5.789062 -2.890625 5.921875 -3.328125 5.921875 -3.953125 C 5.921875 -4.546875 5.789062 -5.066406 5.53125 -5.515625 C 5.269531 -5.960938 4.941406 -6.382812 4.546875 -6.78125 C 4.148438 -7.1875 3.726562 -7.585938 3.28125 -7.984375 C 2.832031 -8.390625 2.410156 -8.828125 2.015625 -9.296875 C 1.617188 -9.773438 1.289062 -10.316406 1.03125 -10.921875 C 0.769531 -11.535156 0.640625 -12.25 0.640625 -13.0625 Z M 0.640625 -13.0625 "/></g></g></g></svg>