<svg xmlns="http://www.w3.org/2000/svg" xmlns:xlink="http://www.w3.org/1999/xlink" width="600" zoomAndPan="magnify" viewBox="0 0 450 93.749996" height="125" preserveAspectRatio="xMidYMid meet" version="1.0"><defs><g/></defs><path stroke-linecap="butt" transform="matrix(0.748005, 0, 0, 0.748005, 224.393142, 18.211891)" fill="none" stroke-linejoin="miter" d="M 33.408416 62.99962 L 25.80486 62.99962 L 24.520193 54.309841 L 15.271637 54.309841 L 13.971303 62.99962 L 7.046636 62.99962 L 14.723303 15.075282 L 25.736971 15.075282 Z M 16.227303 47.802952 L 23.480971 47.802952 L 19.851526 23.566617 Z M 61.613641 45.129174 L 61.613641 51.500286 C 61.613641 55.375175 60.663196 58.357064 58.772751 60.440731 C 56.877085 62.513953 54.083195 63.553175 50.396306 63.553175 C 46.69375 63.553175 43.899861 62.513953 42.004194 60.440731 C 40.108528 58.357064 39.163305 55.375175 39.163305 51.500286 L 39.163305 26.574617 C 39.163305 22.694505 40.108528 19.723061 42.004194 17.649838 C 43.899861 15.566171 46.69375 14.521727 50.396306 14.521727 C 54.083195 14.521727 56.877085 15.566171 58.772751 17.649838 C 60.663196 19.723061 61.613641 22.694505 61.613641 26.574617 L 61.613641 31.222395 L 54.490529 31.222395 L 54.490529 26.08895 C 54.490529 24.365617 54.14064 23.148839 53.43564 22.443839 C 52.735862 21.733616 51.79064 21.378505 50.594751 21.378505 C 49.414528 21.378505 48.469306 21.733616 47.753862 22.443839 C 47.054084 23.148839 46.698973 24.365617 46.698973 26.08895 L 46.698973 51.985952 C 46.698973 53.709286 47.054084 54.920841 47.753862 55.610175 C 48.469306 56.289064 49.414528 56.628508 50.594751 56.628508 C 51.79064 56.628508 52.735862 56.289064 53.43564 55.610175 C 54.14064 54.920841 54.490529 53.709286 54.490529 51.985952 L 54.490529 45.129174 Z M 66.89853 15.075282 L 90.163532 15.075282 L 90.163532 21.911172 L 82.293642 21.911172 L 82.293642 62.99962 L 74.768419 62.99962 L 74.768419 21.911172 L 66.89853 21.911172 Z M 96.336199 15.075282 L 103.861422 15.075282 L 103.861422 62.99962 L 96.336199 62.99962 Z M 123.590979 54.174064 L 129.340646 15.075282 L 136.260091 15.075282 L 128.85498 62.99962 L 117.621979 62.99962 L 110.232534 15.075282 L 117.83609 15.075282 Z M 142.620759 15.075282 L 150.145981 15.075282 L 150.145981 62.99962 L 142.620759 62.99962 Z M 156.318649 15.075282 L 179.583651 15.075282 L 179.583651 21.911172 L 171.713761 21.911172 L 171.713761 62.99962 L 164.188538 62.99962 L 164.188538 21.911172 L 156.318649 21.911172 Z M 185.756318 15.075282 L 193.281541 15.075282 L 193.281541 62.99962 L 185.756318 62.99962 Z M 209.16232 35.269617 L 219.512765 35.269617 L 219.512765 42.121174 L 209.16232 42.121174 L 209.16232 56.148064 L 222.186543 56.148064 L 222.186543 62.99962 L 201.642319 62.99962 L 201.642319 15.075282 L 222.186543 15.075282 L 222.186543 21.911172 L 209.16232 21.911172 Z M 228.745655 26.574617 C 228.745655 22.694505 229.669988 19.723061 231.518655 17.649838 C 233.372544 15.566171 236.145544 14.521727 239.842878 14.521727 C 243.545434 14.521727 246.318434 15.566171 248.167101 17.649838 C 250.02099 19.723061 250.945323 22.694505 250.945323 26.574617 L 250.945323 28.078617 L 243.822211 28.078617 L 243.822211 26.08895 C 243.822211 24.365617 243.487989 23.148839 242.819545 22.443839 C 242.161545 21.733616 241.237211 21.378505 240.046544 21.378505 C 238.866322 21.378505 237.936767 21.733616 237.268322 22.443839 C 236.615544 23.148839 236.286544 24.365617 236.286544 26.08895 C 236.286544 27.739172 236.646878 29.196173 237.372766 30.454728 C 238.103878 31.702839 239.017767 32.888284 240.114433 34.016284 C 241.216322 35.128617 242.391322 36.240951 243.639434 37.358507 C 244.897989 38.47084 246.072989 39.69284 247.164434 41.019285 C 248.271545 42.345729 249.185434 43.854952 249.906101 45.546952 C 250.642434 47.228507 251.013212 49.212952 251.013212 51.500286 C 251.013212 55.375175 250.062768 58.357064 248.167101 60.440731 C 246.276656 62.513953 243.477545 63.553175 239.780211 63.553175 C 236.077655 63.553175 233.278544 62.513953 231.388099 60.440731 C 229.492432 58.357064 228.54721 55.375175 228.54721 51.500286 L 228.54721 48.554952 L 235.6651 48.554952 L 235.6651 51.985952 C 235.6651 53.709286 236.014989 54.920841 236.719989 55.610175 C 237.430211 56.289064 238.385878 56.628508 239.576544 56.628508 C 240.756767 56.628508 241.701989 56.289064 242.401767 55.610175 C 243.117211 54.920841 243.472323 53.709286 243.472323 51.985952 C 243.472323 50.33573 243.106767 48.883952 242.370434 47.635841 C 241.644545 46.377285 240.730656 45.191841 239.628767 44.079507 C 238.537322 42.951507 237.362322 41.833951 236.098544 40.716396 C 234.850433 39.593618 233.680655 38.371618 232.589211 37.055618 C 231.497766 35.729173 230.583877 34.225173 229.847544 32.543617 C 229.11121 30.846395 228.745655 28.86195 228.745655 26.574617 Z M 228.745655 26.574617 " stroke="#000000" stroke-width="1.925797" stroke-opacity="1" stroke-miterlimit="4"/><g fill="#000000" fill-opacity="1"><g transform="translate(47.875819, 55.960707)"><g><path d="M 14.5625 -19.125 L 12.515625 0 L 4.765625 0 L 0.765625 -35.890625 L 6.25 -35.890625 L 9.28125 -7.59375 L 12 -35.890625 L 17.4375 -35.890625 L 20.25 -7.375 L 23.171875 -35.890625 L 28.09375 -35.890625 L 24.09375 0 L 16.609375 0 Z M 14.5625 -19.125 "/></g></g></g><g fill="#000000" fill-opacity="1"><g transform="translate(79.453277, 55.960707)"><g><path d="M 7.6875 -20.765625 L 15.4375 -20.765625 L 15.4375 -15.640625 L 7.6875 -15.640625 L 7.6875 -5.125 L 17.4375 -5.125 L 17.4375 0 L 2.046875 0 L 2.046875 -35.890625 L 17.4375 -35.890625 L 17.4375 -30.765625 L 7.6875 -30.765625 Z M 7.6875 -20.765625 "/></g></g></g><g fill="#000000" fill-opacity="1"><g transform="translate(101.03468, 55.960707)"><g><path d="M 7.6875 -20.765625 L 15.4375 -20.765625 L 15.4375 -15.640625 L 7.6875 -15.640625 L 7.6875 -5.125 L 17.4375 -5.125 L 17.4375 0 L 2.046875 0 L 2.046875 -35.890625 L 17.4375 -35.890625 L 17.4375 -30.765625 L 7.6875 -30.765625 Z M 7.6875 -20.765625 "/></g></g></g><g fill="#000000" fill-opacity="1"><g transform="translate(122.616086, 55.960707)"><g><path d="M 9.4375 -14.296875 L 7.6875 -11.015625 L 7.6875 0 L 2.046875 0 L 2.046875 -35.890625 L 7.6875 -35.890625 L 7.6875 -20.25 L 15.078125 -35.890625 L 20.71875 -35.890625 L 12.875 -19.890625 L 20.71875 0 L 14.921875 0 Z M 9.4375 -14.296875 "/></g></g></g><g fill="#000000" fill-opacity="1"><g transform="translate(146.555533, 55.960707)"><g/></g></g><g fill="#000000" fill-opacity="1"><g transform="translate(157.218159, 55.960707)"><g><path d="M 7.234375 -8.25 C 7.234375 -6.957031 7.492188 -6.046875 8.015625 -5.515625 C 8.546875 -4.984375 9.257812 -4.71875 10.15625 -4.71875 C 11.039062 -4.71875 11.75 -4.984375 12.28125 -5.515625 C 12.8125 -6.046875 13.078125 -6.957031 13.078125 -8.25 L 13.078125 -27.625 C 13.078125 -28.925781 12.8125 -29.84375 12.28125 -30.375 C 11.75 -30.90625 11.039062 -31.171875 10.15625 -31.171875 C 9.257812 -31.171875 8.546875 -30.90625 8.015625 -30.375 C 7.492188 -29.84375 7.234375 -28.925781 7.234375 -27.625 Z M 1.59375 -27.265625 C 1.59375 -30.171875 2.328125 -32.398438 3.796875 -33.953125 C 5.265625 -35.515625 7.382812 -36.296875 10.15625 -36.296875 C 12.914062 -36.296875 15.03125 -35.515625 16.5 -33.953125 C 17.976562 -32.398438 18.71875 -30.171875 18.71875 -27.265625 L 18.71875 -8.609375 C 18.71875 -5.703125 17.976562 -3.472656 16.5 -1.921875 C 15.03125 -0.367188 12.914062 0.40625 10.15625 0.40625 C 7.382812 0.40625 5.265625 -0.367188 3.796875 -1.921875 C 2.328125 -3.472656 1.59375 -5.703125 1.59375 -8.609375 Z M 1.59375 -27.265625 "/></g></g></g><g fill="#000000" fill-opacity="1"><g transform="translate(180.234895, 55.960707)"><g><path d="M 7.078125 -25.984375 L 7.078125 0 L 2 0 L 2 -35.890625 L 9.078125 -35.890625 L 14.859375 -14.40625 L 14.859375 -35.890625 L 19.890625 -35.890625 L 19.890625 0 L 14.09375 0 Z M 7.078125 -25.984375 "/></g></g></g><g fill="#000000" fill-opacity="1"><g transform="translate(204.84075, 55.960707)"><g><path d="M 7.6875 -20.765625 L 15.4375 -20.765625 L 15.4375 -15.640625 L 7.6875 -15.640625 L 7.6875 -5.125 L 17.4375 -5.125 L 17.4375 0 L 2.046875 0 L 2.046875 -35.890625 L 17.4375 -35.890625 L 17.4375 -30.765625 L 7.6875 -30.765625 Z M 7.6875 -20.765625 "/></g></g></g><g fill="#000000" fill-opacity="1"><g transform="translate(226.421324, 55.960707)"><g/></g></g></svg>