<svg xmlns="http://www.w3.org/2000/svg" xmlns:xlink="http://www.w3.org/1999/xlink" width="600" zoomAndPan="magnify" viewBox="0 0 450 30.000001" height="40" preserveAspectRatio="xMidYMid meet" version="1.0"><defs><g/><clipPath id="4c2c7e93b2"><path d="M 7.257812 0 L 442.742188 0 L 442.742188 29.03125 L 7.257812 29.03125 Z M 7.257812 0 " clip-rule="nonzero"/></clipPath></defs><g clip-path="url(#4c2c7e93b2)"><path fill="#ffffff" d="M 7.257812 0 L 442.742188 0 L 442.742188 29.03125 L 7.257812 29.03125 Z M 7.257812 0 " fill-opacity="1" fill-rule="nonzero"/><path fill="#f8f8f8" d="M 7.257812 0 L 442.742188 0 L 442.742188 29.03125 L 7.257812 29.03125 Z M 7.257812 0 " fill-opacity="1" fill-rule="nonzero"/></g><path stroke-linecap="butt" transform="matrix(0.387097, 0, 0, 0.387097, 228.832446, 5.090953)" fill="none" stroke-linejoin="miter" d="M 14.742091 27.283592 L 14.742091 31.098044 C 14.742091 33.429099 14.176987 35.215232 13.036687 36.466534 C 11.896388 37.707745 10.231349 38.333396 8.011297 38.333396 C 5.791245 38.333396 4.116115 37.707745 2.975815 36.466534 C 1.845607 35.215232 1.270412 33.429099 1.270412 31.098044 L 1.270412 16.142967 C 1.270412 13.822004 1.845607 12.035871 2.975815 10.79466 C 4.116115 9.543358 5.791245 8.917707 8.011297 8.917707 C 10.231349 8.917707 11.896388 9.543358 13.036687 10.79466 C 14.176987 12.035871 14.742091 13.822004 14.742091 16.142967 L 14.742091 18.938214 L 10.473537 18.938214 L 10.473537 15.850324 C 10.473537 14.821027 10.261622 14.094464 9.837794 13.670636 C 9.413966 13.236717 8.848862 13.024803 8.132391 13.024803 C 7.426011 13.024803 6.860906 13.236717 6.426987 13.670636 C 6.003159 14.094464 5.801336 14.821027 5.801336 15.850324 L 5.801336 31.390688 C 5.801336 32.430076 6.003159 33.156638 6.426987 33.570375 C 6.860906 33.974021 7.426011 34.175844 8.132391 34.175844 C 8.848862 34.175844 9.413966 33.974021 9.837794 33.570375 C 10.261622 33.156638 10.473537 32.430076 10.473537 31.390688 L 10.473537 27.283592 Z M 23.380112 31.390688 C 23.380112 32.430076 23.592026 33.156638 24.005763 33.590557 C 24.439682 34.004294 25.004786 34.216208 25.711166 34.216208 C 26.427637 34.216208 27.002833 34.004294 27.41657 33.590557 C 27.840398 33.156638 28.052312 32.430076 28.052312 31.390688 L 28.052312 15.850324 C 28.052312 14.821027 27.840398 14.094464 27.41657 13.670636 C 27.002833 13.236717 26.427637 13.024803 25.711166 13.024803 C 25.004786 13.024803 24.439682 13.236717 24.005763 13.670636 C 23.592026 14.094464 23.380112 14.821027 23.380112 15.850324 Z M 18.859278 16.142967 C 18.859278 13.822004 19.444565 12.035871 20.625229 10.79466 C 21.795802 9.543358 23.491114 8.917707 25.711166 8.917707 C 27.931218 8.917707 29.636622 9.543358 30.807195 10.79466 C 31.987859 12.035871 32.573145 13.822004 32.573145 16.142967 L 32.573145 31.098044 C 32.573145 33.429099 31.987859 35.215232 30.807195 36.466534 C 29.636622 37.707745 27.931218 38.333396 25.711166 38.333396 C 23.491114 38.333396 21.795802 37.707745 20.625229 36.466534 C 19.444565 35.215232 18.859278 33.429099 18.859278 31.098044 Z M 46.791569 29.665102 L 49.869368 9.250715 L 56.156152 9.250715 L 56.156152 38.000388 L 51.877506 38.000388 L 51.877506 17.384178 L 48.759342 38.000388 L 44.490788 38.000388 L 41.120345 17.656639 L 41.120345 38.000388 L 37.174707 38.000388 L 37.174707 9.250715 L 43.461491 9.250715 Z M 70.737857 29.665102 L 73.815656 9.250715 L 80.10244 9.250715 L 80.10244 38.000388 L 75.833885 38.000388 L 75.833885 17.384178 L 72.715721 38.000388 L 68.437076 38.000388 L 65.066633 17.656639 L 65.066633 38.000388 L 61.131086 38.000388 L 61.131086 9.250715 L 67.407779 9.250715 Z M 85.117739 9.250715 L 89.628481 9.250715 L 89.628481 38.000388 L 85.117739 38.000388 Z M 93.331932 9.250715 L 107.298077 9.250715 L 107.298077 13.34772 L 102.56533 13.34772 L 102.56533 38.000388 L 98.054588 38.000388 L 98.054588 13.34772 L 93.331932 13.34772 Z M 93.331932 9.250715 " stroke="#000000" stroke-width="0.718965" stroke-opacity="1" stroke-miterlimit="4"/><g fill="#000000" fill-opacity="1"><g transform="translate(185.656448, 16.585011)"><g><path d="M 4.515625 -5.9375 L 3.890625 0 L 1.484375 0 L 0.234375 -11.140625 L 1.9375 -11.140625 L 2.875 -2.359375 L 3.71875 -11.140625 L 5.40625 -11.140625 L 6.296875 -2.296875 L 7.203125 -11.140625 L 8.71875 -11.140625 L 7.484375 0 L 5.15625 0 Z M 4.515625 -5.9375 "/></g></g></g><g fill="#000000" fill-opacity="1"><g transform="translate(195.45928, 16.585011)"><g><path d="M 2.390625 -6.453125 L 4.796875 -6.453125 L 4.796875 -4.859375 L 2.390625 -4.859375 L 2.390625 -1.59375 L 5.40625 -1.59375 L 5.40625 0 L 0.640625 0 L 0.640625 -11.140625 L 5.40625 -11.140625 L 5.40625 -9.546875 L 2.390625 -9.546875 Z M 2.390625 -6.453125 "/></g></g></g><g fill="#000000" fill-opacity="1"><g transform="translate(202.159023, 16.585011)"><g><path d="M 2.390625 -6.453125 L 4.796875 -6.453125 L 4.796875 -4.859375 L 2.390625 -4.859375 L 2.390625 -1.59375 L 5.40625 -1.59375 L 5.40625 0 L 0.640625 0 L 0.640625 -11.140625 L 5.40625 -11.140625 L 5.40625 -9.546875 L 2.390625 -9.546875 Z M 2.390625 -6.453125 "/></g></g></g><g fill="#000000" fill-opacity="1"><g transform="translate(208.858765, 16.585011)"><g><path d="M 2.921875 -4.4375 L 2.390625 -3.421875 L 2.390625 0 L 0.640625 0 L 0.640625 -11.140625 L 2.390625 -11.140625 L 2.390625 -6.296875 L 4.6875 -11.140625 L 6.4375 -11.140625 L 4 -6.171875 L 6.4375 0 L 4.640625 0 Z M 2.921875 -4.4375 "/></g></g></g><g fill="#000000" fill-opacity="1"><g transform="translate(216.290517, 16.585011)"><g><path d="M 0.640625 -11.140625 L 2.390625 -11.140625 L 2.390625 -1.59375 L 5.265625 -1.59375 L 5.265625 0 L 0.640625 0 Z M 0.640625 -11.140625 "/></g></g></g><g fill="#000000" fill-opacity="1"><g transform="translate(222.528776, 16.585011)"><g><path d="M 2.28125 -3.6875 L 0.0625 -11.140625 L 1.890625 -11.140625 L 3.234375 -6.0625 L 4.5625 -11.140625 L 6.234375 -11.140625 L 4.03125 -3.6875 L 4.03125 0 L 2.28125 0 Z M 2.28125 -3.6875 "/></g></g></g></svg>