<svg xmlns="http://www.w3.org/2000/svg" xmlns:xlink="http://www.w3.org/1999/xlink" width="1080" zoomAndPan="magnify" viewBox="0 0 810 809.999993" height="1080" preserveAspectRatio="xMidYMid meet" version="1.0"><defs><g/></defs><g fill="#000000" fill-opacity="1"><g transform="translate(148.46484, 310.500122)"><g><path d="M 47.234375 0 L 24.875 0 L 4.8125 -146.296875 L 20.6875 -146.296875 L 37.828125 -21.734375 L 54.125 -146.09375 L 70.21875 -146.09375 L 86.3125 -21.53125 L 102.828125 -146.296875 L 117.046875 -146.296875 L 97.1875 0 L 75.65625 0 L 61.65625 -99.28125 Z M 47.234375 0 "/></g></g></g><g fill="#000000" fill-opacity="1"><g transform="translate(270.308706, 310.500122)"><g><path d="M 60.40625 -81.515625 L 60.40625 -66.875 L 24.65625 -66.875 L 24.65625 -14.84375 L 68.546875 -14.84375 L 68.546875 0 L 8.359375 0 L 8.359375 -146.296875 L 68.546875 -146.296875 L 68.546875 -131.46875 L 24.65625 -131.46875 L 24.65625 -81.515625 Z M 60.40625 -81.515625 "/></g></g></g><g fill="#000000" fill-opacity="1"><g transform="translate(345.546785, 310.500122)"><g><path d="M 60.40625 -81.515625 L 60.40625 -66.875 L 24.65625 -66.875 L 24.65625 -14.84375 L 68.546875 -14.84375 L 68.546875 0 L 8.359375 0 L 8.359375 -146.296875 L 68.546875 -146.296875 L 68.546875 -131.46875 L 24.65625 -131.46875 L 24.65625 -81.515625 Z M 60.40625 -81.515625 "/></g></g></g><g fill="#000000" fill-opacity="1"><g transform="translate(420.784865, 310.500122)"><g><path d="M 33.234375 -63.53125 L 24.65625 -49.109375 L 24.65625 0 L 8.359375 0 L 8.359375 -146.296875 L 24.65625 -146.296875 L 24.65625 -75.65625 L 63.53125 -146.296875 L 80.046875 -146.296875 L 43.046875 -79.625 L 81.296875 0 L 64.578125 0 Z M 33.234375 -63.53125 "/></g></g></g><g fill="#000000" fill-opacity="1"><g transform="translate(506.263643, 310.500122)"><g><path d="M 8.359375 0 L 8.359375 -146.296875 L 24.65625 -146.296875 L 24.65625 -14.84375 L 66.46875 -14.84375 L 66.46875 0 Z M 8.359375 0 "/></g></g></g><g fill="#000000" fill-opacity="1"><g transform="translate(576.694815, 310.500122)"><g><path d="M 34.28125 -52.453125 L 3.34375 -146.296875 L 20.265625 -146.296875 L 43.046875 -74.40625 L 66.046875 -146.296875 L 81.515625 -146.296875 L 50.375 -52.453125 L 50.375 0 L 34.28125 0 Z M 34.28125 -52.453125 "/></g></g></g><g fill="#000000" fill-opacity="1"><g transform="translate(161.203121, 603.000107)"><g><path d="M 39.921875 -147.765625 C 51.203125 -147.765625 59.523438 -144.421875 64.890625 -137.734375 C 70.253906 -131.046875 72.9375 -122.128906 72.9375 -110.984375 L 72.9375 -97.8125 L 57.46875 -97.8125 L 57.46875 -111.8125 C 57.46875 -118.5 56.109375 -123.6875 53.390625 -127.375 C 50.679688 -131.070312 46.332031 -132.921875 40.34375 -132.921875 C 34.488281 -132.921875 30.164062 -131.070312 27.375 -127.375 C 24.59375 -123.6875 23.203125 -118.5 23.203125 -111.8125 L 23.203125 -34.484375 C 23.203125 -27.796875 24.59375 -22.601562 27.375 -18.90625 C 30.164062 -15.21875 34.488281 -13.375 40.34375 -13.375 C 46.332031 -13.375 50.679688 -15.21875 53.390625 -18.90625 C 56.109375 -22.601562 57.46875 -27.796875 57.46875 -34.484375 L 57.46875 -53.5 L 72.9375 -53.5 L 72.9375 -35.328125 C 72.9375 -24.171875 70.253906 -15.25 64.890625 -8.5625 C 59.523438 -1.875 51.203125 1.46875 39.921875 1.46875 C 28.773438 1.46875 20.519531 -1.875 15.15625 -8.5625 C 9.789062 -15.25 7.109375 -24.171875 7.109375 -35.328125 L 7.109375 -110.984375 C 7.109375 -116.554688 7.769531 -121.601562 9.09375 -126.125 C 10.414062 -130.65625 12.4375 -134.519531 15.15625 -137.71875 C 17.875 -140.925781 21.285156 -143.398438 25.390625 -145.140625 C 29.503906 -146.890625 34.347656 -147.765625 39.921875 -147.765625 Z M 39.921875 -147.765625 "/></g></g></g><g fill="#000000" fill-opacity="1"><g transform="translate(240.621086, 603.000107)"><g><path d="M 7.109375 -110.984375 C 7.109375 -122.265625 9.859375 -131.210938 15.359375 -137.828125 C 20.859375 -144.453125 29.253906 -147.765625 40.546875 -147.765625 C 51.828125 -147.765625 60.253906 -144.453125 65.828125 -137.828125 C 71.398438 -131.210938 74.1875 -122.265625 74.1875 -110.984375 L 74.1875 -35.328125 C 74.1875 -24.171875 71.398438 -15.25 65.828125 -8.5625 C 60.253906 -1.875 51.828125 1.46875 40.546875 1.46875 C 29.253906 1.46875 20.859375 -1.875 15.359375 -8.5625 C 9.859375 -15.25 7.109375 -24.171875 7.109375 -35.328125 Z M 23.203125 -34.484375 C 23.203125 -27.796875 24.628906 -22.601562 27.484375 -18.90625 C 30.335938 -15.21875 34.691406 -13.375 40.546875 -13.375 C 46.535156 -13.375 50.921875 -15.21875 53.703125 -18.90625 C 56.492188 -22.601562 57.890625 -27.796875 57.890625 -34.484375 L 57.890625 -111.8125 C 57.890625 -118.5 56.492188 -123.6875 53.703125 -127.375 C 50.921875 -131.070312 46.535156 -132.921875 40.546875 -132.921875 C 34.691406 -132.921875 30.335938 -131.070312 27.484375 -127.375 C 24.628906 -123.6875 23.203125 -118.5 23.203125 -111.8125 Z M 23.203125 -34.484375 "/></g></g></g><g fill="#000000" fill-opacity="1"><g transform="translate(321.919967, 603.000107)"><g><path d="M 62.28125 -0.203125 L 46.609375 -0.203125 L 22.359375 -116.625 L 22.359375 0 L 8.15625 0 L 8.15625 -146.296875 L 30.9375 -146.296875 L 54.96875 -29.46875 L 78.171875 -146.296875 L 100.953125 -146.296875 L 100.953125 0 L 85.484375 0 L 85.484375 -117.671875 Z M 62.28125 -0.203125 "/></g></g></g><g fill="#000000" fill-opacity="1"><g transform="translate(431.224164, 603.000107)"><g><path d="M 62.28125 -0.203125 L 46.609375 -0.203125 L 22.359375 -116.625 L 22.359375 0 L 8.15625 0 L 8.15625 -146.296875 L 30.9375 -146.296875 L 54.96875 -29.46875 L 78.171875 -146.296875 L 100.953125 -146.296875 L 100.953125 0 L 85.484375 0 L 85.484375 -117.671875 Z M 62.28125 -0.203125 "/></g></g></g><g fill="#000000" fill-opacity="1"><g transform="translate(540.52835, 603.000107)"><g><path d="M 24.65625 -146.296875 L 24.65625 0 L 8.359375 0 L 8.359375 -146.296875 Z M 24.65625 -146.296875 "/></g></g></g><g fill="#000000" fill-opacity="1"><g transform="translate(573.54952, 603.000107)"><g><path d="M 29.46875 0 L 29.46875 -131.46875 L 2.515625 -131.46875 L 2.515625 -146.296875 L 72.515625 -146.296875 L 72.515625 -131.46875 L 45.5625 -131.46875 L 45.5625 0 Z M 29.46875 0 "/></g></g></g></svg>